G04 #@! TF.GenerationSoftware,KiCad,Pcbnew,(5.1.6-87-g1447494bc)*
G04 #@! TF.CreationDate,2022-08-29T16:49:27-05:00*
G04 #@! TF.ProjectId,sony-scopeman,736f6e79-2d73-4636-9f70-656d616e2e6b,rev?*
G04 #@! TF.SameCoordinates,Original*
G04 #@! TF.FileFunction,Paste,Top*
G04 #@! TF.FilePolarity,Positive*
%FSLAX46Y46*%
G04 Gerber Fmt 4.6, Leading zero omitted, Abs format (unit mm)*
G04 Created by KiCad (PCBNEW (5.1.6-87-g1447494bc)) date 2022-08-29 16:49:27*
%MOMM*%
%LPD*%
G01*
G04 APERTURE LIST*
%ADD10R,0.900000X0.800000*%
%ADD11R,0.240000X0.600000*%
%ADD12R,1.200000X1.600000*%
%ADD13R,0.900000X1.200000*%
%ADD14R,1.800000X2.500000*%
%ADD15R,1.200000X0.900000*%
%ADD16R,0.650000X1.060000*%
%ADD17R,5.000000X5.000000*%
%ADD18O,0.900000X3.000000*%
%ADD19R,0.450000X1.450000*%
%ADD20R,0.800000X0.900000*%
%ADD21R,2.000000X1.500000*%
%ADD22R,2.000000X3.800000*%
%ADD23R,1.160000X0.600000*%
%ADD24R,1.160000X0.300000*%
G04 APERTURE END LIST*
D10*
X125850000Y-134900000D03*
X123850000Y-135850000D03*
X123850000Y-133950000D03*
X125850000Y-127850000D03*
X123850000Y-128800000D03*
X123850000Y-126900000D03*
X108350001Y-134900000D03*
X110350001Y-133950000D03*
X110350001Y-135850000D03*
X108350000Y-127850000D03*
X110350000Y-126900000D03*
X110350000Y-128800000D03*
G36*
G01*
X118750000Y-88343750D02*
X118750000Y-88856250D01*
G75*
G02*
X118531250Y-89075000I-218750J0D01*
G01*
X118093750Y-89075000D01*
G75*
G02*
X117875000Y-88856250I0J218750D01*
G01*
X117875000Y-88343750D01*
G75*
G02*
X118093750Y-88125000I218750J0D01*
G01*
X118531250Y-88125000D01*
G75*
G02*
X118750000Y-88343750I0J-218750D01*
G01*
G37*
G36*
G01*
X120325000Y-88343750D02*
X120325000Y-88856250D01*
G75*
G02*
X120106250Y-89075000I-218750J0D01*
G01*
X119668750Y-89075000D01*
G75*
G02*
X119450000Y-88856250I0J218750D01*
G01*
X119450000Y-88343750D01*
G75*
G02*
X119668750Y-88125000I218750J0D01*
G01*
X120106250Y-88125000D01*
G75*
G02*
X120325000Y-88343750I0J-218750D01*
G01*
G37*
G36*
G01*
X114050000Y-53543750D02*
X114050000Y-54056250D01*
G75*
G02*
X113831250Y-54275000I-218750J0D01*
G01*
X113393750Y-54275000D01*
G75*
G02*
X113175000Y-54056250I0J218750D01*
G01*
X113175000Y-53543750D01*
G75*
G02*
X113393750Y-53325000I218750J0D01*
G01*
X113831250Y-53325000D01*
G75*
G02*
X114050000Y-53543750I0J-218750D01*
G01*
G37*
G36*
G01*
X115625000Y-53543750D02*
X115625000Y-54056250D01*
G75*
G02*
X115406250Y-54275000I-218750J0D01*
G01*
X114968750Y-54275000D01*
G75*
G02*
X114750000Y-54056250I0J218750D01*
G01*
X114750000Y-53543750D01*
G75*
G02*
X114968750Y-53325000I218750J0D01*
G01*
X115406250Y-53325000D01*
G75*
G02*
X115625000Y-53543750I0J-218750D01*
G01*
G37*
G36*
G01*
X114050000Y-52243750D02*
X114050000Y-52756250D01*
G75*
G02*
X113831250Y-52975000I-218750J0D01*
G01*
X113393750Y-52975000D01*
G75*
G02*
X113175000Y-52756250I0J218750D01*
G01*
X113175000Y-52243750D01*
G75*
G02*
X113393750Y-52025000I218750J0D01*
G01*
X113831250Y-52025000D01*
G75*
G02*
X114050000Y-52243750I0J-218750D01*
G01*
G37*
G36*
G01*
X115625000Y-52243750D02*
X115625000Y-52756250D01*
G75*
G02*
X115406250Y-52975000I-218750J0D01*
G01*
X114968750Y-52975000D01*
G75*
G02*
X114750000Y-52756250I0J218750D01*
G01*
X114750000Y-52243750D01*
G75*
G02*
X114968750Y-52025000I218750J0D01*
G01*
X115406250Y-52025000D01*
G75*
G02*
X115625000Y-52243750I0J-218750D01*
G01*
G37*
D11*
X128900000Y-117600000D03*
X129400000Y-117600000D03*
X129900000Y-117600000D03*
X130400000Y-117600000D03*
X130900000Y-117600000D03*
X130900000Y-120400000D03*
X130400000Y-120400000D03*
X129900000Y-120400000D03*
X129400000Y-120400000D03*
X128900000Y-120400000D03*
G36*
G01*
X131575000Y-118875000D02*
X131285000Y-118875000D01*
G75*
G02*
X131260000Y-118850000I0J25000D01*
G01*
X131260000Y-118650000D01*
G75*
G02*
X131285000Y-118625000I25000J0D01*
G01*
X131575000Y-118625000D01*
G75*
G02*
X131600000Y-118650000I0J-25000D01*
G01*
X131600000Y-118850000D01*
G75*
G02*
X131575000Y-118875000I-25000J0D01*
G01*
G37*
G36*
G01*
X131575000Y-119375000D02*
X131285000Y-119375000D01*
G75*
G02*
X131260000Y-119350000I0J25000D01*
G01*
X131260000Y-119150000D01*
G75*
G02*
X131285000Y-119125000I25000J0D01*
G01*
X131575000Y-119125000D01*
G75*
G02*
X131600000Y-119150000I0J-25000D01*
G01*
X131600000Y-119350000D01*
G75*
G02*
X131575000Y-119375000I-25000J0D01*
G01*
G37*
G36*
G01*
X128515000Y-118875000D02*
X128225000Y-118875000D01*
G75*
G02*
X128200000Y-118850000I0J25000D01*
G01*
X128200000Y-118650000D01*
G75*
G02*
X128225000Y-118625000I25000J0D01*
G01*
X128515000Y-118625000D01*
G75*
G02*
X128540000Y-118650000I0J-25000D01*
G01*
X128540000Y-118850000D01*
G75*
G02*
X128515000Y-118875000I-25000J0D01*
G01*
G37*
G36*
G01*
X128515000Y-119375000D02*
X128225000Y-119375000D01*
G75*
G02*
X128200000Y-119350000I0J25000D01*
G01*
X128200000Y-119150000D01*
G75*
G02*
X128225000Y-119125000I25000J0D01*
G01*
X128515000Y-119125000D01*
G75*
G02*
X128540000Y-119150000I0J-25000D01*
G01*
X128540000Y-119350000D01*
G75*
G02*
X128515000Y-119375000I-25000J0D01*
G01*
G37*
G36*
G01*
X129694000Y-119750000D02*
X128846000Y-119750000D01*
G75*
G02*
X128740000Y-119644000I0J106000D01*
G01*
X128740000Y-118356000D01*
G75*
G02*
X128846000Y-118250000I106000J0D01*
G01*
X129694000Y-118250000D01*
G75*
G02*
X129800000Y-118356000I0J-106000D01*
G01*
X129800000Y-119644000D01*
G75*
G02*
X129694000Y-119750000I-106000J0D01*
G01*
G37*
G36*
G01*
X130954000Y-119750000D02*
X130106000Y-119750000D01*
G75*
G02*
X130000000Y-119644000I0J106000D01*
G01*
X130000000Y-118356000D01*
G75*
G02*
X130106000Y-118250000I106000J0D01*
G01*
X130954000Y-118250000D01*
G75*
G02*
X131060000Y-118356000I0J-106000D01*
G01*
X131060000Y-119644000D01*
G75*
G02*
X130954000Y-119750000I-106000J0D01*
G01*
G37*
X137700000Y-120400000D03*
X137200000Y-120400000D03*
X136700000Y-120400000D03*
X136200000Y-120400000D03*
X135700000Y-120400000D03*
X135700000Y-117600000D03*
X136200000Y-117600000D03*
X136700000Y-117600000D03*
X137200000Y-117600000D03*
X137700000Y-117600000D03*
G36*
G01*
X135025000Y-119125000D02*
X135315000Y-119125000D01*
G75*
G02*
X135340000Y-119150000I0J-25000D01*
G01*
X135340000Y-119350000D01*
G75*
G02*
X135315000Y-119375000I-25000J0D01*
G01*
X135025000Y-119375000D01*
G75*
G02*
X135000000Y-119350000I0J25000D01*
G01*
X135000000Y-119150000D01*
G75*
G02*
X135025000Y-119125000I25000J0D01*
G01*
G37*
G36*
G01*
X135025000Y-118625000D02*
X135315000Y-118625000D01*
G75*
G02*
X135340000Y-118650000I0J-25000D01*
G01*
X135340000Y-118850000D01*
G75*
G02*
X135315000Y-118875000I-25000J0D01*
G01*
X135025000Y-118875000D01*
G75*
G02*
X135000000Y-118850000I0J25000D01*
G01*
X135000000Y-118650000D01*
G75*
G02*
X135025000Y-118625000I25000J0D01*
G01*
G37*
G36*
G01*
X138085000Y-119125000D02*
X138375000Y-119125000D01*
G75*
G02*
X138400000Y-119150000I0J-25000D01*
G01*
X138400000Y-119350000D01*
G75*
G02*
X138375000Y-119375000I-25000J0D01*
G01*
X138085000Y-119375000D01*
G75*
G02*
X138060000Y-119350000I0J25000D01*
G01*
X138060000Y-119150000D01*
G75*
G02*
X138085000Y-119125000I25000J0D01*
G01*
G37*
G36*
G01*
X138085000Y-118625000D02*
X138375000Y-118625000D01*
G75*
G02*
X138400000Y-118650000I0J-25000D01*
G01*
X138400000Y-118850000D01*
G75*
G02*
X138375000Y-118875000I-25000J0D01*
G01*
X138085000Y-118875000D01*
G75*
G02*
X138060000Y-118850000I0J25000D01*
G01*
X138060000Y-118650000D01*
G75*
G02*
X138085000Y-118625000I25000J0D01*
G01*
G37*
G36*
G01*
X136906000Y-118250000D02*
X137754000Y-118250000D01*
G75*
G02*
X137860000Y-118356000I0J-106000D01*
G01*
X137860000Y-119644000D01*
G75*
G02*
X137754000Y-119750000I-106000J0D01*
G01*
X136906000Y-119750000D01*
G75*
G02*
X136800000Y-119644000I0J106000D01*
G01*
X136800000Y-118356000D01*
G75*
G02*
X136906000Y-118250000I106000J0D01*
G01*
G37*
G36*
G01*
X135646000Y-118250000D02*
X136494000Y-118250000D01*
G75*
G02*
X136600000Y-118356000I0J-106000D01*
G01*
X136600000Y-119644000D01*
G75*
G02*
X136494000Y-119750000I-106000J0D01*
G01*
X135646000Y-119750000D01*
G75*
G02*
X135540000Y-119644000I0J106000D01*
G01*
X135540000Y-118356000D01*
G75*
G02*
X135646000Y-118250000I106000J0D01*
G01*
G37*
G36*
G01*
X108750000Y-76443750D02*
X108750000Y-77356250D01*
G75*
G02*
X108506250Y-77600000I-243750J0D01*
G01*
X108018750Y-77600000D01*
G75*
G02*
X107775000Y-77356250I0J243750D01*
G01*
X107775000Y-76443750D01*
G75*
G02*
X108018750Y-76200000I243750J0D01*
G01*
X108506250Y-76200000D01*
G75*
G02*
X108750000Y-76443750I0J-243750D01*
G01*
G37*
G36*
G01*
X110625000Y-76443750D02*
X110625000Y-77356250D01*
G75*
G02*
X110381250Y-77600000I-243750J0D01*
G01*
X109893750Y-77600000D01*
G75*
G02*
X109650000Y-77356250I0J243750D01*
G01*
X109650000Y-76443750D01*
G75*
G02*
X109893750Y-76200000I243750J0D01*
G01*
X110381250Y-76200000D01*
G75*
G02*
X110625000Y-76443750I0J-243750D01*
G01*
G37*
G36*
G01*
X127556250Y-118850000D02*
X126643750Y-118850000D01*
G75*
G02*
X126400000Y-118606250I0J243750D01*
G01*
X126400000Y-118118750D01*
G75*
G02*
X126643750Y-117875000I243750J0D01*
G01*
X127556250Y-117875000D01*
G75*
G02*
X127800000Y-118118750I0J-243750D01*
G01*
X127800000Y-118606250D01*
G75*
G02*
X127556250Y-118850000I-243750J0D01*
G01*
G37*
G36*
G01*
X127556250Y-120725000D02*
X126643750Y-120725000D01*
G75*
G02*
X126400000Y-120481250I0J243750D01*
G01*
X126400000Y-119993750D01*
G75*
G02*
X126643750Y-119750000I243750J0D01*
G01*
X127556250Y-119750000D01*
G75*
G02*
X127800000Y-119993750I0J-243750D01*
G01*
X127800000Y-120481250D01*
G75*
G02*
X127556250Y-120725000I-243750J0D01*
G01*
G37*
G36*
G01*
X144556250Y-128450000D02*
X143643750Y-128450000D01*
G75*
G02*
X143400000Y-128206250I0J243750D01*
G01*
X143400000Y-127718750D01*
G75*
G02*
X143643750Y-127475000I243750J0D01*
G01*
X144556250Y-127475000D01*
G75*
G02*
X144800000Y-127718750I0J-243750D01*
G01*
X144800000Y-128206250D01*
G75*
G02*
X144556250Y-128450000I-243750J0D01*
G01*
G37*
G36*
G01*
X144556250Y-130325000D02*
X143643750Y-130325000D01*
G75*
G02*
X143400000Y-130081250I0J243750D01*
G01*
X143400000Y-129593750D01*
G75*
G02*
X143643750Y-129350000I243750J0D01*
G01*
X144556250Y-129350000D01*
G75*
G02*
X144800000Y-129593750I0J-243750D01*
G01*
X144800000Y-130081250D01*
G75*
G02*
X144556250Y-130325000I-243750J0D01*
G01*
G37*
G36*
G01*
X149455000Y-128900000D02*
X149755000Y-128900000D01*
G75*
G02*
X149905000Y-129050000I0J-150000D01*
G01*
X149905000Y-130700000D01*
G75*
G02*
X149755000Y-130850000I-150000J0D01*
G01*
X149455000Y-130850000D01*
G75*
G02*
X149305000Y-130700000I0J150000D01*
G01*
X149305000Y-129050000D01*
G75*
G02*
X149455000Y-128900000I150000J0D01*
G01*
G37*
G36*
G01*
X148185000Y-128900000D02*
X148485000Y-128900000D01*
G75*
G02*
X148635000Y-129050000I0J-150000D01*
G01*
X148635000Y-130700000D01*
G75*
G02*
X148485000Y-130850000I-150000J0D01*
G01*
X148185000Y-130850000D01*
G75*
G02*
X148035000Y-130700000I0J150000D01*
G01*
X148035000Y-129050000D01*
G75*
G02*
X148185000Y-128900000I150000J0D01*
G01*
G37*
G36*
G01*
X146915000Y-128900000D02*
X147215000Y-128900000D01*
G75*
G02*
X147365000Y-129050000I0J-150000D01*
G01*
X147365000Y-130700000D01*
G75*
G02*
X147215000Y-130850000I-150000J0D01*
G01*
X146915000Y-130850000D01*
G75*
G02*
X146765000Y-130700000I0J150000D01*
G01*
X146765000Y-129050000D01*
G75*
G02*
X146915000Y-128900000I150000J0D01*
G01*
G37*
G36*
G01*
X145645000Y-128900000D02*
X145945000Y-128900000D01*
G75*
G02*
X146095000Y-129050000I0J-150000D01*
G01*
X146095000Y-130700000D01*
G75*
G02*
X145945000Y-130850000I-150000J0D01*
G01*
X145645000Y-130850000D01*
G75*
G02*
X145495000Y-130700000I0J150000D01*
G01*
X145495000Y-129050000D01*
G75*
G02*
X145645000Y-128900000I150000J0D01*
G01*
G37*
G36*
G01*
X145645000Y-123950000D02*
X145945000Y-123950000D01*
G75*
G02*
X146095000Y-124100000I0J-150000D01*
G01*
X146095000Y-125750000D01*
G75*
G02*
X145945000Y-125900000I-150000J0D01*
G01*
X145645000Y-125900000D01*
G75*
G02*
X145495000Y-125750000I0J150000D01*
G01*
X145495000Y-124100000D01*
G75*
G02*
X145645000Y-123950000I150000J0D01*
G01*
G37*
G36*
G01*
X146915000Y-123950000D02*
X147215000Y-123950000D01*
G75*
G02*
X147365000Y-124100000I0J-150000D01*
G01*
X147365000Y-125750000D01*
G75*
G02*
X147215000Y-125900000I-150000J0D01*
G01*
X146915000Y-125900000D01*
G75*
G02*
X146765000Y-125750000I0J150000D01*
G01*
X146765000Y-124100000D01*
G75*
G02*
X146915000Y-123950000I150000J0D01*
G01*
G37*
G36*
G01*
X148185000Y-123950000D02*
X148485000Y-123950000D01*
G75*
G02*
X148635000Y-124100000I0J-150000D01*
G01*
X148635000Y-125750000D01*
G75*
G02*
X148485000Y-125900000I-150000J0D01*
G01*
X148185000Y-125900000D01*
G75*
G02*
X148035000Y-125750000I0J150000D01*
G01*
X148035000Y-124100000D01*
G75*
G02*
X148185000Y-123950000I150000J0D01*
G01*
G37*
G36*
G01*
X149455000Y-123950000D02*
X149755000Y-123950000D01*
G75*
G02*
X149905000Y-124100000I0J-150000D01*
G01*
X149905000Y-125750000D01*
G75*
G02*
X149755000Y-125900000I-150000J0D01*
G01*
X149455000Y-125900000D01*
G75*
G02*
X149305000Y-125750000I0J150000D01*
G01*
X149305000Y-124100000D01*
G75*
G02*
X149455000Y-123950000I150000J0D01*
G01*
G37*
G36*
G01*
X146452500Y-127515000D02*
X147297500Y-127515000D01*
G75*
G02*
X147540000Y-127757500I0J-242500D01*
G01*
X147540000Y-128242500D01*
G75*
G02*
X147297500Y-128485000I-242500J0D01*
G01*
X146452500Y-128485000D01*
G75*
G02*
X146210000Y-128242500I0J242500D01*
G01*
X146210000Y-127757500D01*
G75*
G02*
X146452500Y-127515000I242500J0D01*
G01*
G37*
G36*
G01*
X148102500Y-127515000D02*
X148947500Y-127515000D01*
G75*
G02*
X149190000Y-127757500I0J-242500D01*
G01*
X149190000Y-128242500D01*
G75*
G02*
X148947500Y-128485000I-242500J0D01*
G01*
X148102500Y-128485000D01*
G75*
G02*
X147860000Y-128242500I0J242500D01*
G01*
X147860000Y-127757500D01*
G75*
G02*
X148102500Y-127515000I242500J0D01*
G01*
G37*
G36*
G01*
X146452500Y-126315000D02*
X147297500Y-126315000D01*
G75*
G02*
X147540000Y-126557500I0J-242500D01*
G01*
X147540000Y-127042500D01*
G75*
G02*
X147297500Y-127285000I-242500J0D01*
G01*
X146452500Y-127285000D01*
G75*
G02*
X146210000Y-127042500I0J242500D01*
G01*
X146210000Y-126557500D01*
G75*
G02*
X146452500Y-126315000I242500J0D01*
G01*
G37*
G36*
G01*
X148102500Y-126315000D02*
X148947500Y-126315000D01*
G75*
G02*
X149190000Y-126557500I0J-242500D01*
G01*
X149190000Y-127042500D01*
G75*
G02*
X148947500Y-127285000I-242500J0D01*
G01*
X148102500Y-127285000D01*
G75*
G02*
X147860000Y-127042500I0J242500D01*
G01*
X147860000Y-126557500D01*
G75*
G02*
X148102500Y-126315000I242500J0D01*
G01*
G37*
G36*
G01*
X145175000Y-122175000D02*
X146425000Y-122175000D01*
G75*
G02*
X146675000Y-122425000I0J-250000D01*
G01*
X146675000Y-123175000D01*
G75*
G02*
X146425000Y-123425000I-250000J0D01*
G01*
X145175000Y-123425000D01*
G75*
G02*
X144925000Y-123175000I0J250000D01*
G01*
X144925000Y-122425000D01*
G75*
G02*
X145175000Y-122175000I250000J0D01*
G01*
G37*
G36*
G01*
X145175000Y-119375000D02*
X146425000Y-119375000D01*
G75*
G02*
X146675000Y-119625000I0J-250000D01*
G01*
X146675000Y-120375000D01*
G75*
G02*
X146425000Y-120625000I-250000J0D01*
G01*
X145175000Y-120625000D01*
G75*
G02*
X144925000Y-120375000I0J250000D01*
G01*
X144925000Y-119625000D01*
G75*
G02*
X145175000Y-119375000I250000J0D01*
G01*
G37*
G36*
G01*
X144600000Y-139549600D02*
X144600000Y-142050400D01*
G75*
G02*
X144350400Y-142300000I-249600J0D01*
G01*
X143249600Y-142300000D01*
G75*
G02*
X143000000Y-142050400I0J249600D01*
G01*
X143000000Y-139549600D01*
G75*
G02*
X143249600Y-139300000I249600J0D01*
G01*
X144350400Y-139300000D01*
G75*
G02*
X144600000Y-139549600I0J-249600D01*
G01*
G37*
G36*
G01*
X151400000Y-139549600D02*
X151400000Y-142050400D01*
G75*
G02*
X151150400Y-142300000I-249600J0D01*
G01*
X150049600Y-142300000D01*
G75*
G02*
X149800000Y-142050400I0J249600D01*
G01*
X149800000Y-139549600D01*
G75*
G02*
X150049600Y-139300000I249600J0D01*
G01*
X151150400Y-139300000D01*
G75*
G02*
X151400000Y-139549600I0J-249600D01*
G01*
G37*
G36*
G01*
X146700000Y-136050000D02*
X146700000Y-141050000D01*
G75*
G02*
X146450000Y-141300000I-250000J0D01*
G01*
X145950000Y-141300000D01*
G75*
G02*
X145700000Y-141050000I0J250000D01*
G01*
X145700000Y-136050000D01*
G75*
G02*
X145950000Y-135800000I250000J0D01*
G01*
X146450000Y-135800000D01*
G75*
G02*
X146700000Y-136050000I0J-250000D01*
G01*
G37*
G36*
G01*
X148700000Y-136050000D02*
X148700000Y-141050000D01*
G75*
G02*
X148450000Y-141300000I-250000J0D01*
G01*
X147950000Y-141300000D01*
G75*
G02*
X147700000Y-141050000I0J250000D01*
G01*
X147700000Y-136050000D01*
G75*
G02*
X147950000Y-135800000I250000J0D01*
G01*
X148450000Y-135800000D01*
G75*
G02*
X148700000Y-136050000I0J-250000D01*
G01*
G37*
G36*
G01*
X134000000Y-139549600D02*
X134000000Y-142050400D01*
G75*
G02*
X133750400Y-142300000I-249600J0D01*
G01*
X132649600Y-142300000D01*
G75*
G02*
X132400000Y-142050400I0J249600D01*
G01*
X132400000Y-139549600D01*
G75*
G02*
X132649600Y-139300000I249600J0D01*
G01*
X133750400Y-139300000D01*
G75*
G02*
X134000000Y-139549600I0J-249600D01*
G01*
G37*
G36*
G01*
X140800000Y-139549600D02*
X140800000Y-142050400D01*
G75*
G02*
X140550400Y-142300000I-249600J0D01*
G01*
X139449600Y-142300000D01*
G75*
G02*
X139200000Y-142050400I0J249600D01*
G01*
X139200000Y-139549600D01*
G75*
G02*
X139449600Y-139300000I249600J0D01*
G01*
X140550400Y-139300000D01*
G75*
G02*
X140800000Y-139549600I0J-249600D01*
G01*
G37*
G36*
G01*
X136100000Y-136050000D02*
X136100000Y-141050000D01*
G75*
G02*
X135850000Y-141300000I-250000J0D01*
G01*
X135350000Y-141300000D01*
G75*
G02*
X135100000Y-141050000I0J250000D01*
G01*
X135100000Y-136050000D01*
G75*
G02*
X135350000Y-135800000I250000J0D01*
G01*
X135850000Y-135800000D01*
G75*
G02*
X136100000Y-136050000I0J-250000D01*
G01*
G37*
G36*
G01*
X138100000Y-136050000D02*
X138100000Y-141050000D01*
G75*
G02*
X137850000Y-141300000I-250000J0D01*
G01*
X137350000Y-141300000D01*
G75*
G02*
X137100000Y-141050000I0J250000D01*
G01*
X137100000Y-136050000D01*
G75*
G02*
X137350000Y-135800000I250000J0D01*
G01*
X137850000Y-135800000D01*
G75*
G02*
X138100000Y-136050000I0J-250000D01*
G01*
G37*
G36*
G01*
X132125000Y-132075000D02*
X132125000Y-134125000D01*
G75*
G02*
X131875000Y-134375000I-250000J0D01*
G01*
X130300000Y-134375000D01*
G75*
G02*
X130050000Y-134125000I0J250000D01*
G01*
X130050000Y-132075000D01*
G75*
G02*
X130300000Y-131825000I250000J0D01*
G01*
X131875000Y-131825000D01*
G75*
G02*
X132125000Y-132075000I0J-250000D01*
G01*
G37*
G36*
G01*
X138350000Y-132075000D02*
X138350000Y-134125000D01*
G75*
G02*
X138100000Y-134375000I-250000J0D01*
G01*
X136525000Y-134375000D01*
G75*
G02*
X136275000Y-134125000I0J250000D01*
G01*
X136275000Y-132075000D01*
G75*
G02*
X136525000Y-131825000I250000J0D01*
G01*
X138100000Y-131825000D01*
G75*
G02*
X138350000Y-132075000I0J-250000D01*
G01*
G37*
G36*
G01*
X136275000Y-128925000D02*
X136275000Y-126875000D01*
G75*
G02*
X136525000Y-126625000I250000J0D01*
G01*
X138100000Y-126625000D01*
G75*
G02*
X138350000Y-126875000I0J-250000D01*
G01*
X138350000Y-128925000D01*
G75*
G02*
X138100000Y-129175000I-250000J0D01*
G01*
X136525000Y-129175000D01*
G75*
G02*
X136275000Y-128925000I0J250000D01*
G01*
G37*
G36*
G01*
X130050000Y-128925000D02*
X130050000Y-126875000D01*
G75*
G02*
X130300000Y-126625000I250000J0D01*
G01*
X131875000Y-126625000D01*
G75*
G02*
X132125000Y-126875000I0J-250000D01*
G01*
X132125000Y-128925000D01*
G75*
G02*
X131875000Y-129175000I-250000J0D01*
G01*
X130300000Y-129175000D01*
G75*
G02*
X130050000Y-128925000I0J250000D01*
G01*
G37*
D12*
X128500000Y-123200000D03*
X131300000Y-123200000D03*
X135300000Y-123200000D03*
X138100000Y-123200000D03*
G36*
G01*
X138243750Y-62750000D02*
X139156250Y-62750000D01*
G75*
G02*
X139400000Y-62993750I0J-243750D01*
G01*
X139400000Y-63481250D01*
G75*
G02*
X139156250Y-63725000I-243750J0D01*
G01*
X138243750Y-63725000D01*
G75*
G02*
X138000000Y-63481250I0J243750D01*
G01*
X138000000Y-62993750D01*
G75*
G02*
X138243750Y-62750000I243750J0D01*
G01*
G37*
G36*
G01*
X138243750Y-60875000D02*
X139156250Y-60875000D01*
G75*
G02*
X139400000Y-61118750I0J-243750D01*
G01*
X139400000Y-61606250D01*
G75*
G02*
X139156250Y-61850000I-243750J0D01*
G01*
X138243750Y-61850000D01*
G75*
G02*
X138000000Y-61606250I0J243750D01*
G01*
X138000000Y-61118750D01*
G75*
G02*
X138243750Y-60875000I243750J0D01*
G01*
G37*
G36*
G01*
X137056250Y-61850000D02*
X136143750Y-61850000D01*
G75*
G02*
X135900000Y-61606250I0J243750D01*
G01*
X135900000Y-61118750D01*
G75*
G02*
X136143750Y-60875000I243750J0D01*
G01*
X137056250Y-60875000D01*
G75*
G02*
X137300000Y-61118750I0J-243750D01*
G01*
X137300000Y-61606250D01*
G75*
G02*
X137056250Y-61850000I-243750J0D01*
G01*
G37*
G36*
G01*
X137056250Y-63725000D02*
X136143750Y-63725000D01*
G75*
G02*
X135900000Y-63481250I0J243750D01*
G01*
X135900000Y-62993750D01*
G75*
G02*
X136143750Y-62750000I243750J0D01*
G01*
X137056250Y-62750000D01*
G75*
G02*
X137300000Y-62993750I0J-243750D01*
G01*
X137300000Y-63481250D01*
G75*
G02*
X137056250Y-63725000I-243750J0D01*
G01*
G37*
G36*
G01*
X112056250Y-100950000D02*
X111143750Y-100950000D01*
G75*
G02*
X110900000Y-100706250I0J243750D01*
G01*
X110900000Y-100218750D01*
G75*
G02*
X111143750Y-99975000I243750J0D01*
G01*
X112056250Y-99975000D01*
G75*
G02*
X112300000Y-100218750I0J-243750D01*
G01*
X112300000Y-100706250D01*
G75*
G02*
X112056250Y-100950000I-243750J0D01*
G01*
G37*
G36*
G01*
X112056250Y-102825000D02*
X111143750Y-102825000D01*
G75*
G02*
X110900000Y-102581250I0J243750D01*
G01*
X110900000Y-102093750D01*
G75*
G02*
X111143750Y-101850000I243750J0D01*
G01*
X112056250Y-101850000D01*
G75*
G02*
X112300000Y-102093750I0J-243750D01*
G01*
X112300000Y-102581250D01*
G75*
G02*
X112056250Y-102825000I-243750J0D01*
G01*
G37*
D13*
X118550000Y-81700000D03*
X115250000Y-81700000D03*
D14*
X140800000Y-129800000D03*
X140800000Y-125800000D03*
D15*
X119400000Y-128350000D03*
X119400000Y-131650000D03*
X114800000Y-128350000D03*
X114800000Y-131650000D03*
D16*
X120050000Y-87200000D03*
X118150000Y-87200000D03*
X118150000Y-85000000D03*
X119100000Y-85000000D03*
X120050000Y-85000000D03*
G36*
G01*
X140525000Y-110812500D02*
X140525000Y-111487500D01*
G75*
G02*
X140462500Y-111550000I-62500J0D01*
G01*
X140337500Y-111550000D01*
G75*
G02*
X140275000Y-111487500I0J62500D01*
G01*
X140275000Y-110812500D01*
G75*
G02*
X140337500Y-110750000I62500J0D01*
G01*
X140462500Y-110750000D01*
G75*
G02*
X140525000Y-110812500I0J-62500D01*
G01*
G37*
G36*
G01*
X140025000Y-110812500D02*
X140025000Y-111487500D01*
G75*
G02*
X139962500Y-111550000I-62500J0D01*
G01*
X139837500Y-111550000D01*
G75*
G02*
X139775000Y-111487500I0J62500D01*
G01*
X139775000Y-110812500D01*
G75*
G02*
X139837500Y-110750000I62500J0D01*
G01*
X139962500Y-110750000D01*
G75*
G02*
X140025000Y-110812500I0J-62500D01*
G01*
G37*
G36*
G01*
X139525000Y-110812500D02*
X139525000Y-111487500D01*
G75*
G02*
X139462500Y-111550000I-62500J0D01*
G01*
X139337500Y-111550000D01*
G75*
G02*
X139275000Y-111487500I0J62500D01*
G01*
X139275000Y-110812500D01*
G75*
G02*
X139337500Y-110750000I62500J0D01*
G01*
X139462500Y-110750000D01*
G75*
G02*
X139525000Y-110812500I0J-62500D01*
G01*
G37*
G36*
G01*
X139025000Y-110812500D02*
X139025000Y-111487500D01*
G75*
G02*
X138962500Y-111550000I-62500J0D01*
G01*
X138837500Y-111550000D01*
G75*
G02*
X138775000Y-111487500I0J62500D01*
G01*
X138775000Y-110812500D01*
G75*
G02*
X138837500Y-110750000I62500J0D01*
G01*
X138962500Y-110750000D01*
G75*
G02*
X139025000Y-110812500I0J-62500D01*
G01*
G37*
G36*
G01*
X138525000Y-110812500D02*
X138525000Y-111487500D01*
G75*
G02*
X138462500Y-111550000I-62500J0D01*
G01*
X138337500Y-111550000D01*
G75*
G02*
X138275000Y-111487500I0J62500D01*
G01*
X138275000Y-110812500D01*
G75*
G02*
X138337500Y-110750000I62500J0D01*
G01*
X138462500Y-110750000D01*
G75*
G02*
X138525000Y-110812500I0J-62500D01*
G01*
G37*
G36*
G01*
X138025000Y-110812500D02*
X138025000Y-111487500D01*
G75*
G02*
X137962500Y-111550000I-62500J0D01*
G01*
X137837500Y-111550000D01*
G75*
G02*
X137775000Y-111487500I0J62500D01*
G01*
X137775000Y-110812500D01*
G75*
G02*
X137837500Y-110750000I62500J0D01*
G01*
X137962500Y-110750000D01*
G75*
G02*
X138025000Y-110812500I0J-62500D01*
G01*
G37*
G36*
G01*
X137525000Y-110812500D02*
X137525000Y-111487500D01*
G75*
G02*
X137462500Y-111550000I-62500J0D01*
G01*
X137337500Y-111550000D01*
G75*
G02*
X137275000Y-111487500I0J62500D01*
G01*
X137275000Y-110812500D01*
G75*
G02*
X137337500Y-110750000I62500J0D01*
G01*
X137462500Y-110750000D01*
G75*
G02*
X137525000Y-110812500I0J-62500D01*
G01*
G37*
G36*
G01*
X136850000Y-110137500D02*
X136850000Y-110262500D01*
G75*
G02*
X136787500Y-110325000I-62500J0D01*
G01*
X136112500Y-110325000D01*
G75*
G02*
X136050000Y-110262500I0J62500D01*
G01*
X136050000Y-110137500D01*
G75*
G02*
X136112500Y-110075000I62500J0D01*
G01*
X136787500Y-110075000D01*
G75*
G02*
X136850000Y-110137500I0J-62500D01*
G01*
G37*
G36*
G01*
X136850000Y-109637500D02*
X136850000Y-109762500D01*
G75*
G02*
X136787500Y-109825000I-62500J0D01*
G01*
X136112500Y-109825000D01*
G75*
G02*
X136050000Y-109762500I0J62500D01*
G01*
X136050000Y-109637500D01*
G75*
G02*
X136112500Y-109575000I62500J0D01*
G01*
X136787500Y-109575000D01*
G75*
G02*
X136850000Y-109637500I0J-62500D01*
G01*
G37*
G36*
G01*
X136850000Y-109137500D02*
X136850000Y-109262500D01*
G75*
G02*
X136787500Y-109325000I-62500J0D01*
G01*
X136112500Y-109325000D01*
G75*
G02*
X136050000Y-109262500I0J62500D01*
G01*
X136050000Y-109137500D01*
G75*
G02*
X136112500Y-109075000I62500J0D01*
G01*
X136787500Y-109075000D01*
G75*
G02*
X136850000Y-109137500I0J-62500D01*
G01*
G37*
G36*
G01*
X136850000Y-108637500D02*
X136850000Y-108762500D01*
G75*
G02*
X136787500Y-108825000I-62500J0D01*
G01*
X136112500Y-108825000D01*
G75*
G02*
X136050000Y-108762500I0J62500D01*
G01*
X136050000Y-108637500D01*
G75*
G02*
X136112500Y-108575000I62500J0D01*
G01*
X136787500Y-108575000D01*
G75*
G02*
X136850000Y-108637500I0J-62500D01*
G01*
G37*
G36*
G01*
X136850000Y-108137500D02*
X136850000Y-108262500D01*
G75*
G02*
X136787500Y-108325000I-62500J0D01*
G01*
X136112500Y-108325000D01*
G75*
G02*
X136050000Y-108262500I0J62500D01*
G01*
X136050000Y-108137500D01*
G75*
G02*
X136112500Y-108075000I62500J0D01*
G01*
X136787500Y-108075000D01*
G75*
G02*
X136850000Y-108137500I0J-62500D01*
G01*
G37*
G36*
G01*
X136850000Y-107637500D02*
X136850000Y-107762500D01*
G75*
G02*
X136787500Y-107825000I-62500J0D01*
G01*
X136112500Y-107825000D01*
G75*
G02*
X136050000Y-107762500I0J62500D01*
G01*
X136050000Y-107637500D01*
G75*
G02*
X136112500Y-107575000I62500J0D01*
G01*
X136787500Y-107575000D01*
G75*
G02*
X136850000Y-107637500I0J-62500D01*
G01*
G37*
G36*
G01*
X136850000Y-107137500D02*
X136850000Y-107262500D01*
G75*
G02*
X136787500Y-107325000I-62500J0D01*
G01*
X136112500Y-107325000D01*
G75*
G02*
X136050000Y-107262500I0J62500D01*
G01*
X136050000Y-107137500D01*
G75*
G02*
X136112500Y-107075000I62500J0D01*
G01*
X136787500Y-107075000D01*
G75*
G02*
X136850000Y-107137500I0J-62500D01*
G01*
G37*
G36*
G01*
X137525000Y-105912500D02*
X137525000Y-106587500D01*
G75*
G02*
X137462500Y-106650000I-62500J0D01*
G01*
X137337500Y-106650000D01*
G75*
G02*
X137275000Y-106587500I0J62500D01*
G01*
X137275000Y-105912500D01*
G75*
G02*
X137337500Y-105850000I62500J0D01*
G01*
X137462500Y-105850000D01*
G75*
G02*
X137525000Y-105912500I0J-62500D01*
G01*
G37*
G36*
G01*
X138025000Y-105912500D02*
X138025000Y-106587500D01*
G75*
G02*
X137962500Y-106650000I-62500J0D01*
G01*
X137837500Y-106650000D01*
G75*
G02*
X137775000Y-106587500I0J62500D01*
G01*
X137775000Y-105912500D01*
G75*
G02*
X137837500Y-105850000I62500J0D01*
G01*
X137962500Y-105850000D01*
G75*
G02*
X138025000Y-105912500I0J-62500D01*
G01*
G37*
G36*
G01*
X138525000Y-105912500D02*
X138525000Y-106587500D01*
G75*
G02*
X138462500Y-106650000I-62500J0D01*
G01*
X138337500Y-106650000D01*
G75*
G02*
X138275000Y-106587500I0J62500D01*
G01*
X138275000Y-105912500D01*
G75*
G02*
X138337500Y-105850000I62500J0D01*
G01*
X138462500Y-105850000D01*
G75*
G02*
X138525000Y-105912500I0J-62500D01*
G01*
G37*
G36*
G01*
X139025000Y-105912500D02*
X139025000Y-106587500D01*
G75*
G02*
X138962500Y-106650000I-62500J0D01*
G01*
X138837500Y-106650000D01*
G75*
G02*
X138775000Y-106587500I0J62500D01*
G01*
X138775000Y-105912500D01*
G75*
G02*
X138837500Y-105850000I62500J0D01*
G01*
X138962500Y-105850000D01*
G75*
G02*
X139025000Y-105912500I0J-62500D01*
G01*
G37*
G36*
G01*
X139525000Y-105912500D02*
X139525000Y-106587500D01*
G75*
G02*
X139462500Y-106650000I-62500J0D01*
G01*
X139337500Y-106650000D01*
G75*
G02*
X139275000Y-106587500I0J62500D01*
G01*
X139275000Y-105912500D01*
G75*
G02*
X139337500Y-105850000I62500J0D01*
G01*
X139462500Y-105850000D01*
G75*
G02*
X139525000Y-105912500I0J-62500D01*
G01*
G37*
G36*
G01*
X140025000Y-105912500D02*
X140025000Y-106587500D01*
G75*
G02*
X139962500Y-106650000I-62500J0D01*
G01*
X139837500Y-106650000D01*
G75*
G02*
X139775000Y-106587500I0J62500D01*
G01*
X139775000Y-105912500D01*
G75*
G02*
X139837500Y-105850000I62500J0D01*
G01*
X139962500Y-105850000D01*
G75*
G02*
X140025000Y-105912500I0J-62500D01*
G01*
G37*
G36*
G01*
X140525000Y-105912500D02*
X140525000Y-106587500D01*
G75*
G02*
X140462500Y-106650000I-62500J0D01*
G01*
X140337500Y-106650000D01*
G75*
G02*
X140275000Y-106587500I0J62500D01*
G01*
X140275000Y-105912500D01*
G75*
G02*
X140337500Y-105850000I62500J0D01*
G01*
X140462500Y-105850000D01*
G75*
G02*
X140525000Y-105912500I0J-62500D01*
G01*
G37*
G36*
G01*
X141750000Y-107137500D02*
X141750000Y-107262500D01*
G75*
G02*
X141687500Y-107325000I-62500J0D01*
G01*
X141012500Y-107325000D01*
G75*
G02*
X140950000Y-107262500I0J62500D01*
G01*
X140950000Y-107137500D01*
G75*
G02*
X141012500Y-107075000I62500J0D01*
G01*
X141687500Y-107075000D01*
G75*
G02*
X141750000Y-107137500I0J-62500D01*
G01*
G37*
G36*
G01*
X141750000Y-107637500D02*
X141750000Y-107762500D01*
G75*
G02*
X141687500Y-107825000I-62500J0D01*
G01*
X141012500Y-107825000D01*
G75*
G02*
X140950000Y-107762500I0J62500D01*
G01*
X140950000Y-107637500D01*
G75*
G02*
X141012500Y-107575000I62500J0D01*
G01*
X141687500Y-107575000D01*
G75*
G02*
X141750000Y-107637500I0J-62500D01*
G01*
G37*
G36*
G01*
X141750000Y-108137500D02*
X141750000Y-108262500D01*
G75*
G02*
X141687500Y-108325000I-62500J0D01*
G01*
X141012500Y-108325000D01*
G75*
G02*
X140950000Y-108262500I0J62500D01*
G01*
X140950000Y-108137500D01*
G75*
G02*
X141012500Y-108075000I62500J0D01*
G01*
X141687500Y-108075000D01*
G75*
G02*
X141750000Y-108137500I0J-62500D01*
G01*
G37*
G36*
G01*
X141750000Y-108637500D02*
X141750000Y-108762500D01*
G75*
G02*
X141687500Y-108825000I-62500J0D01*
G01*
X141012500Y-108825000D01*
G75*
G02*
X140950000Y-108762500I0J62500D01*
G01*
X140950000Y-108637500D01*
G75*
G02*
X141012500Y-108575000I62500J0D01*
G01*
X141687500Y-108575000D01*
G75*
G02*
X141750000Y-108637500I0J-62500D01*
G01*
G37*
G36*
G01*
X141750000Y-109137500D02*
X141750000Y-109262500D01*
G75*
G02*
X141687500Y-109325000I-62500J0D01*
G01*
X141012500Y-109325000D01*
G75*
G02*
X140950000Y-109262500I0J62500D01*
G01*
X140950000Y-109137500D01*
G75*
G02*
X141012500Y-109075000I62500J0D01*
G01*
X141687500Y-109075000D01*
G75*
G02*
X141750000Y-109137500I0J-62500D01*
G01*
G37*
G36*
G01*
X141750000Y-109637500D02*
X141750000Y-109762500D01*
G75*
G02*
X141687500Y-109825000I-62500J0D01*
G01*
X141012500Y-109825000D01*
G75*
G02*
X140950000Y-109762500I0J62500D01*
G01*
X140950000Y-109637500D01*
G75*
G02*
X141012500Y-109575000I62500J0D01*
G01*
X141687500Y-109575000D01*
G75*
G02*
X141750000Y-109637500I0J-62500D01*
G01*
G37*
G36*
G01*
X141750000Y-110137500D02*
X141750000Y-110262500D01*
G75*
G02*
X141687500Y-110325000I-62500J0D01*
G01*
X141012500Y-110325000D01*
G75*
G02*
X140950000Y-110262500I0J62500D01*
G01*
X140950000Y-110137500D01*
G75*
G02*
X141012500Y-110075000I62500J0D01*
G01*
X141687500Y-110075000D01*
G75*
G02*
X141750000Y-110137500I0J-62500D01*
G01*
G37*
G36*
G01*
X138230000Y-107355000D02*
X138230000Y-107805000D01*
G75*
G02*
X138005000Y-108030000I-225000J0D01*
G01*
X137555000Y-108030000D01*
G75*
G02*
X137330000Y-107805000I0J225000D01*
G01*
X137330000Y-107355000D01*
G75*
G02*
X137555000Y-107130000I225000J0D01*
G01*
X138005000Y-107130000D01*
G75*
G02*
X138230000Y-107355000I0J-225000D01*
G01*
G37*
G36*
G01*
X138230000Y-108475000D02*
X138230000Y-108925000D01*
G75*
G02*
X138005000Y-109150000I-225000J0D01*
G01*
X137555000Y-109150000D01*
G75*
G02*
X137330000Y-108925000I0J225000D01*
G01*
X137330000Y-108475000D01*
G75*
G02*
X137555000Y-108250000I225000J0D01*
G01*
X138005000Y-108250000D01*
G75*
G02*
X138230000Y-108475000I0J-225000D01*
G01*
G37*
G36*
G01*
X138230000Y-109595000D02*
X138230000Y-110045000D01*
G75*
G02*
X138005000Y-110270000I-225000J0D01*
G01*
X137555000Y-110270000D01*
G75*
G02*
X137330000Y-110045000I0J225000D01*
G01*
X137330000Y-109595000D01*
G75*
G02*
X137555000Y-109370000I225000J0D01*
G01*
X138005000Y-109370000D01*
G75*
G02*
X138230000Y-109595000I0J-225000D01*
G01*
G37*
G36*
G01*
X139350000Y-107355000D02*
X139350000Y-107805000D01*
G75*
G02*
X139125000Y-108030000I-225000J0D01*
G01*
X138675000Y-108030000D01*
G75*
G02*
X138450000Y-107805000I0J225000D01*
G01*
X138450000Y-107355000D01*
G75*
G02*
X138675000Y-107130000I225000J0D01*
G01*
X139125000Y-107130000D01*
G75*
G02*
X139350000Y-107355000I0J-225000D01*
G01*
G37*
G36*
G01*
X139350000Y-108475000D02*
X139350000Y-108925000D01*
G75*
G02*
X139125000Y-109150000I-225000J0D01*
G01*
X138675000Y-109150000D01*
G75*
G02*
X138450000Y-108925000I0J225000D01*
G01*
X138450000Y-108475000D01*
G75*
G02*
X138675000Y-108250000I225000J0D01*
G01*
X139125000Y-108250000D01*
G75*
G02*
X139350000Y-108475000I0J-225000D01*
G01*
G37*
G36*
G01*
X139350000Y-109595000D02*
X139350000Y-110045000D01*
G75*
G02*
X139125000Y-110270000I-225000J0D01*
G01*
X138675000Y-110270000D01*
G75*
G02*
X138450000Y-110045000I0J225000D01*
G01*
X138450000Y-109595000D01*
G75*
G02*
X138675000Y-109370000I225000J0D01*
G01*
X139125000Y-109370000D01*
G75*
G02*
X139350000Y-109595000I0J-225000D01*
G01*
G37*
G36*
G01*
X140470000Y-107355000D02*
X140470000Y-107805000D01*
G75*
G02*
X140245000Y-108030000I-225000J0D01*
G01*
X139795000Y-108030000D01*
G75*
G02*
X139570000Y-107805000I0J225000D01*
G01*
X139570000Y-107355000D01*
G75*
G02*
X139795000Y-107130000I225000J0D01*
G01*
X140245000Y-107130000D01*
G75*
G02*
X140470000Y-107355000I0J-225000D01*
G01*
G37*
G36*
G01*
X140470000Y-108475000D02*
X140470000Y-108925000D01*
G75*
G02*
X140245000Y-109150000I-225000J0D01*
G01*
X139795000Y-109150000D01*
G75*
G02*
X139570000Y-108925000I0J225000D01*
G01*
X139570000Y-108475000D01*
G75*
G02*
X139795000Y-108250000I225000J0D01*
G01*
X140245000Y-108250000D01*
G75*
G02*
X140470000Y-108475000I0J-225000D01*
G01*
G37*
G36*
G01*
X140470000Y-109595000D02*
X140470000Y-110045000D01*
G75*
G02*
X140245000Y-110270000I-225000J0D01*
G01*
X139795000Y-110270000D01*
G75*
G02*
X139570000Y-110045000I0J225000D01*
G01*
X139570000Y-109595000D01*
G75*
G02*
X139795000Y-109370000I225000J0D01*
G01*
X140245000Y-109370000D01*
G75*
G02*
X140470000Y-109595000I0J-225000D01*
G01*
G37*
G36*
G01*
X139955000Y-57100000D02*
X140255000Y-57100000D01*
G75*
G02*
X140405000Y-57250000I0J-150000D01*
G01*
X140405000Y-58900000D01*
G75*
G02*
X140255000Y-59050000I-150000J0D01*
G01*
X139955000Y-59050000D01*
G75*
G02*
X139805000Y-58900000I0J150000D01*
G01*
X139805000Y-57250000D01*
G75*
G02*
X139955000Y-57100000I150000J0D01*
G01*
G37*
G36*
G01*
X138685000Y-57100000D02*
X138985000Y-57100000D01*
G75*
G02*
X139135000Y-57250000I0J-150000D01*
G01*
X139135000Y-58900000D01*
G75*
G02*
X138985000Y-59050000I-150000J0D01*
G01*
X138685000Y-59050000D01*
G75*
G02*
X138535000Y-58900000I0J150000D01*
G01*
X138535000Y-57250000D01*
G75*
G02*
X138685000Y-57100000I150000J0D01*
G01*
G37*
G36*
G01*
X137415000Y-57100000D02*
X137715000Y-57100000D01*
G75*
G02*
X137865000Y-57250000I0J-150000D01*
G01*
X137865000Y-58900000D01*
G75*
G02*
X137715000Y-59050000I-150000J0D01*
G01*
X137415000Y-59050000D01*
G75*
G02*
X137265000Y-58900000I0J150000D01*
G01*
X137265000Y-57250000D01*
G75*
G02*
X137415000Y-57100000I150000J0D01*
G01*
G37*
G36*
G01*
X136145000Y-57100000D02*
X136445000Y-57100000D01*
G75*
G02*
X136595000Y-57250000I0J-150000D01*
G01*
X136595000Y-58900000D01*
G75*
G02*
X136445000Y-59050000I-150000J0D01*
G01*
X136145000Y-59050000D01*
G75*
G02*
X135995000Y-58900000I0J150000D01*
G01*
X135995000Y-57250000D01*
G75*
G02*
X136145000Y-57100000I150000J0D01*
G01*
G37*
G36*
G01*
X136145000Y-52150000D02*
X136445000Y-52150000D01*
G75*
G02*
X136595000Y-52300000I0J-150000D01*
G01*
X136595000Y-53950000D01*
G75*
G02*
X136445000Y-54100000I-150000J0D01*
G01*
X136145000Y-54100000D01*
G75*
G02*
X135995000Y-53950000I0J150000D01*
G01*
X135995000Y-52300000D01*
G75*
G02*
X136145000Y-52150000I150000J0D01*
G01*
G37*
G36*
G01*
X137415000Y-52150000D02*
X137715000Y-52150000D01*
G75*
G02*
X137865000Y-52300000I0J-150000D01*
G01*
X137865000Y-53950000D01*
G75*
G02*
X137715000Y-54100000I-150000J0D01*
G01*
X137415000Y-54100000D01*
G75*
G02*
X137265000Y-53950000I0J150000D01*
G01*
X137265000Y-52300000D01*
G75*
G02*
X137415000Y-52150000I150000J0D01*
G01*
G37*
G36*
G01*
X138685000Y-52150000D02*
X138985000Y-52150000D01*
G75*
G02*
X139135000Y-52300000I0J-150000D01*
G01*
X139135000Y-53950000D01*
G75*
G02*
X138985000Y-54100000I-150000J0D01*
G01*
X138685000Y-54100000D01*
G75*
G02*
X138535000Y-53950000I0J150000D01*
G01*
X138535000Y-52300000D01*
G75*
G02*
X138685000Y-52150000I150000J0D01*
G01*
G37*
G36*
G01*
X139955000Y-52150000D02*
X140255000Y-52150000D01*
G75*
G02*
X140405000Y-52300000I0J-150000D01*
G01*
X140405000Y-53950000D01*
G75*
G02*
X140255000Y-54100000I-150000J0D01*
G01*
X139955000Y-54100000D01*
G75*
G02*
X139805000Y-53950000I0J150000D01*
G01*
X139805000Y-52300000D01*
G75*
G02*
X139955000Y-52150000I150000J0D01*
G01*
G37*
D17*
X115430000Y-65650000D03*
D18*
X108510000Y-74250000D03*
X109780000Y-74250000D03*
X111050000Y-74250000D03*
X112320000Y-74250000D03*
X113590000Y-74250000D03*
X114860000Y-74250000D03*
X116130000Y-74250000D03*
X117400000Y-74250000D03*
X118670000Y-74250000D03*
X119940000Y-74250000D03*
X121210000Y-74250000D03*
X122480000Y-74250000D03*
X123750000Y-74250000D03*
X125020000Y-74250000D03*
X126320000Y-74250000D03*
X127590000Y-74250000D03*
X128860000Y-74250000D03*
X130130000Y-74250000D03*
X131400000Y-74250000D03*
X131400000Y-56250000D03*
X130130000Y-56250000D03*
X128860000Y-56250000D03*
X127590000Y-56250000D03*
X126320000Y-56250000D03*
X125020000Y-56220000D03*
X123750000Y-56220000D03*
X122480000Y-56220000D03*
X121210000Y-56220000D03*
X119940000Y-56220000D03*
X118670000Y-56220000D03*
X117400000Y-56220000D03*
X116130000Y-56220000D03*
X114860000Y-56220000D03*
X113590000Y-56220000D03*
X112320000Y-56220000D03*
X111050000Y-56220000D03*
X109780000Y-56220000D03*
X108510000Y-56220000D03*
D19*
X113175000Y-96450000D03*
X113825000Y-96450000D03*
X114475000Y-96450000D03*
X115125000Y-96450000D03*
X115775000Y-96450000D03*
X116425000Y-96450000D03*
X117075000Y-96450000D03*
X117725000Y-96450000D03*
X118375000Y-96450000D03*
X119025000Y-96450000D03*
X119025000Y-102350000D03*
X118375000Y-102350000D03*
X117725000Y-102350000D03*
X117075000Y-102350000D03*
X116425000Y-102350000D03*
X115775000Y-102350000D03*
X115125000Y-102350000D03*
X114475000Y-102350000D03*
X113825000Y-102350000D03*
X113175000Y-102350000D03*
G36*
G01*
X115400000Y-123955000D02*
X115400000Y-124255000D01*
G75*
G02*
X115250000Y-124405000I-150000J0D01*
G01*
X113600000Y-124405000D01*
G75*
G02*
X113450000Y-124255000I0J150000D01*
G01*
X113450000Y-123955000D01*
G75*
G02*
X113600000Y-123805000I150000J0D01*
G01*
X115250000Y-123805000D01*
G75*
G02*
X115400000Y-123955000I0J-150000D01*
G01*
G37*
G36*
G01*
X115400000Y-122685000D02*
X115400000Y-122985000D01*
G75*
G02*
X115250000Y-123135000I-150000J0D01*
G01*
X113600000Y-123135000D01*
G75*
G02*
X113450000Y-122985000I0J150000D01*
G01*
X113450000Y-122685000D01*
G75*
G02*
X113600000Y-122535000I150000J0D01*
G01*
X115250000Y-122535000D01*
G75*
G02*
X115400000Y-122685000I0J-150000D01*
G01*
G37*
G36*
G01*
X115400000Y-121415000D02*
X115400000Y-121715000D01*
G75*
G02*
X115250000Y-121865000I-150000J0D01*
G01*
X113600000Y-121865000D01*
G75*
G02*
X113450000Y-121715000I0J150000D01*
G01*
X113450000Y-121415000D01*
G75*
G02*
X113600000Y-121265000I150000J0D01*
G01*
X115250000Y-121265000D01*
G75*
G02*
X115400000Y-121415000I0J-150000D01*
G01*
G37*
G36*
G01*
X115400000Y-120145000D02*
X115400000Y-120445000D01*
G75*
G02*
X115250000Y-120595000I-150000J0D01*
G01*
X113600000Y-120595000D01*
G75*
G02*
X113450000Y-120445000I0J150000D01*
G01*
X113450000Y-120145000D01*
G75*
G02*
X113600000Y-119995000I150000J0D01*
G01*
X115250000Y-119995000D01*
G75*
G02*
X115400000Y-120145000I0J-150000D01*
G01*
G37*
G36*
G01*
X120350000Y-120145000D02*
X120350000Y-120445000D01*
G75*
G02*
X120200000Y-120595000I-150000J0D01*
G01*
X118550000Y-120595000D01*
G75*
G02*
X118400000Y-120445000I0J150000D01*
G01*
X118400000Y-120145000D01*
G75*
G02*
X118550000Y-119995000I150000J0D01*
G01*
X120200000Y-119995000D01*
G75*
G02*
X120350000Y-120145000I0J-150000D01*
G01*
G37*
G36*
G01*
X120350000Y-121415000D02*
X120350000Y-121715000D01*
G75*
G02*
X120200000Y-121865000I-150000J0D01*
G01*
X118550000Y-121865000D01*
G75*
G02*
X118400000Y-121715000I0J150000D01*
G01*
X118400000Y-121415000D01*
G75*
G02*
X118550000Y-121265000I150000J0D01*
G01*
X120200000Y-121265000D01*
G75*
G02*
X120350000Y-121415000I0J-150000D01*
G01*
G37*
G36*
G01*
X120350000Y-122685000D02*
X120350000Y-122985000D01*
G75*
G02*
X120200000Y-123135000I-150000J0D01*
G01*
X118550000Y-123135000D01*
G75*
G02*
X118400000Y-122985000I0J150000D01*
G01*
X118400000Y-122685000D01*
G75*
G02*
X118550000Y-122535000I150000J0D01*
G01*
X120200000Y-122535000D01*
G75*
G02*
X120350000Y-122685000I0J-150000D01*
G01*
G37*
G36*
G01*
X120350000Y-123955000D02*
X120350000Y-124255000D01*
G75*
G02*
X120200000Y-124405000I-150000J0D01*
G01*
X118550000Y-124405000D01*
G75*
G02*
X118400000Y-124255000I0J150000D01*
G01*
X118400000Y-123955000D01*
G75*
G02*
X118550000Y-123805000I150000J0D01*
G01*
X120200000Y-123805000D01*
G75*
G02*
X120350000Y-123955000I0J-150000D01*
G01*
G37*
G36*
G01*
X116250000Y-85656249D02*
X116250000Y-85143749D01*
G75*
G02*
X116468750Y-84924999I218750J0D01*
G01*
X116906250Y-84924999D01*
G75*
G02*
X117125000Y-85143749I0J-218750D01*
G01*
X117125000Y-85656249D01*
G75*
G02*
X116906250Y-85874999I-218750J0D01*
G01*
X116468750Y-85874999D01*
G75*
G02*
X116250000Y-85656249I0J218750D01*
G01*
G37*
G36*
G01*
X114675000Y-85656249D02*
X114675000Y-85143749D01*
G75*
G02*
X114893750Y-84924999I218750J0D01*
G01*
X115331250Y-84924999D01*
G75*
G02*
X115550000Y-85143749I0J-218750D01*
G01*
X115550000Y-85656249D01*
G75*
G02*
X115331250Y-85874999I-218750J0D01*
G01*
X114893750Y-85874999D01*
G75*
G02*
X114675000Y-85656249I0J218750D01*
G01*
G37*
G36*
G01*
X119450000Y-83856250D02*
X119450000Y-83343750D01*
G75*
G02*
X119668750Y-83125000I218750J0D01*
G01*
X120106250Y-83125000D01*
G75*
G02*
X120325000Y-83343750I0J-218750D01*
G01*
X120325000Y-83856250D01*
G75*
G02*
X120106250Y-84075000I-218750J0D01*
G01*
X119668750Y-84075000D01*
G75*
G02*
X119450000Y-83856250I0J218750D01*
G01*
G37*
G36*
G01*
X117875000Y-83856250D02*
X117875000Y-83343750D01*
G75*
G02*
X118093750Y-83125000I218750J0D01*
G01*
X118531250Y-83125000D01*
G75*
G02*
X118750000Y-83343750I0J-218750D01*
G01*
X118750000Y-83856250D01*
G75*
G02*
X118531250Y-84075000I-218750J0D01*
G01*
X118093750Y-84075000D01*
G75*
G02*
X117875000Y-83856250I0J218750D01*
G01*
G37*
G36*
G01*
X106243750Y-77537500D02*
X106756250Y-77537500D01*
G75*
G02*
X106975000Y-77756250I0J-218750D01*
G01*
X106975000Y-78193750D01*
G75*
G02*
X106756250Y-78412500I-218750J0D01*
G01*
X106243750Y-78412500D01*
G75*
G02*
X106025000Y-78193750I0J218750D01*
G01*
X106025000Y-77756250D01*
G75*
G02*
X106243750Y-77537500I218750J0D01*
G01*
G37*
G36*
G01*
X106243750Y-75962500D02*
X106756250Y-75962500D01*
G75*
G02*
X106975000Y-76181250I0J-218750D01*
G01*
X106975000Y-76618750D01*
G75*
G02*
X106756250Y-76837500I-218750J0D01*
G01*
X106243750Y-76837500D01*
G75*
G02*
X106025000Y-76618750I0J218750D01*
G01*
X106025000Y-76181250D01*
G75*
G02*
X106243750Y-75962500I218750J0D01*
G01*
G37*
G36*
G01*
X117143750Y-53437501D02*
X117656250Y-53437501D01*
G75*
G02*
X117875000Y-53656251I0J-218750D01*
G01*
X117875000Y-54093751D01*
G75*
G02*
X117656250Y-54312501I-218750J0D01*
G01*
X117143750Y-54312501D01*
G75*
G02*
X116925000Y-54093751I0J218750D01*
G01*
X116925000Y-53656251D01*
G75*
G02*
X117143750Y-53437501I218750J0D01*
G01*
G37*
G36*
G01*
X117143750Y-51862501D02*
X117656250Y-51862501D01*
G75*
G02*
X117875000Y-52081251I0J-218750D01*
G01*
X117875000Y-52518751D01*
G75*
G02*
X117656250Y-52737501I-218750J0D01*
G01*
X117143750Y-52737501D01*
G75*
G02*
X116925000Y-52518751I0J218750D01*
G01*
X116925000Y-52081251D01*
G75*
G02*
X117143750Y-51862501I218750J0D01*
G01*
G37*
G36*
G01*
X148656250Y-122050000D02*
X148143750Y-122050000D01*
G75*
G02*
X147925000Y-121831250I0J218750D01*
G01*
X147925000Y-121393750D01*
G75*
G02*
X148143750Y-121175000I218750J0D01*
G01*
X148656250Y-121175000D01*
G75*
G02*
X148875000Y-121393750I0J-218750D01*
G01*
X148875000Y-121831250D01*
G75*
G02*
X148656250Y-122050000I-218750J0D01*
G01*
G37*
G36*
G01*
X148656250Y-123625000D02*
X148143750Y-123625000D01*
G75*
G02*
X147925000Y-123406250I0J218750D01*
G01*
X147925000Y-122968750D01*
G75*
G02*
X148143750Y-122750000I218750J0D01*
G01*
X148656250Y-122750000D01*
G75*
G02*
X148875000Y-122968750I0J-218750D01*
G01*
X148875000Y-123406250D01*
G75*
G02*
X148656250Y-123625000I-218750J0D01*
G01*
G37*
G36*
G01*
X109543750Y-53437500D02*
X110056250Y-53437500D01*
G75*
G02*
X110275000Y-53656250I0J-218750D01*
G01*
X110275000Y-54093750D01*
G75*
G02*
X110056250Y-54312500I-218750J0D01*
G01*
X109543750Y-54312500D01*
G75*
G02*
X109325000Y-54093750I0J218750D01*
G01*
X109325000Y-53656250D01*
G75*
G02*
X109543750Y-53437500I218750J0D01*
G01*
G37*
G36*
G01*
X109543750Y-51862500D02*
X110056250Y-51862500D01*
G75*
G02*
X110275000Y-52081250I0J-218750D01*
G01*
X110275000Y-52518750D01*
G75*
G02*
X110056250Y-52737500I-218750J0D01*
G01*
X109543750Y-52737500D01*
G75*
G02*
X109325000Y-52518750I0J218750D01*
G01*
X109325000Y-52081250D01*
G75*
G02*
X109543750Y-51862500I218750J0D01*
G01*
G37*
G36*
G01*
X131343750Y-107562499D02*
X131856250Y-107562499D01*
G75*
G02*
X132075000Y-107781249I0J-218750D01*
G01*
X132075000Y-108218749D01*
G75*
G02*
X131856250Y-108437499I-218750J0D01*
G01*
X131343750Y-108437499D01*
G75*
G02*
X131125000Y-108218749I0J218750D01*
G01*
X131125000Y-107781249D01*
G75*
G02*
X131343750Y-107562499I218750J0D01*
G01*
G37*
G36*
G01*
X131343750Y-105987499D02*
X131856250Y-105987499D01*
G75*
G02*
X132075000Y-106206249I0J-218750D01*
G01*
X132075000Y-106643749D01*
G75*
G02*
X131856250Y-106862499I-218750J0D01*
G01*
X131343750Y-106862499D01*
G75*
G02*
X131125000Y-106643749I0J218750D01*
G01*
X131125000Y-106206249D01*
G75*
G02*
X131343750Y-105987499I218750J0D01*
G01*
G37*
G36*
G01*
X135450000Y-112656250D02*
X135450000Y-112143750D01*
G75*
G02*
X135668750Y-111925000I218750J0D01*
G01*
X136106250Y-111925000D01*
G75*
G02*
X136325000Y-112143750I0J-218750D01*
G01*
X136325000Y-112656250D01*
G75*
G02*
X136106250Y-112875000I-218750J0D01*
G01*
X135668750Y-112875000D01*
G75*
G02*
X135450000Y-112656250I0J218750D01*
G01*
G37*
G36*
G01*
X133875000Y-112656250D02*
X133875000Y-112143750D01*
G75*
G02*
X134093750Y-111925000I218750J0D01*
G01*
X134531250Y-111925000D01*
G75*
G02*
X134750000Y-112143750I0J-218750D01*
G01*
X134750000Y-112656250D01*
G75*
G02*
X134531250Y-112875000I-218750J0D01*
G01*
X134093750Y-112875000D01*
G75*
G02*
X133875000Y-112656250I0J218750D01*
G01*
G37*
G36*
G01*
X144150000Y-107156250D02*
X144150000Y-106643750D01*
G75*
G02*
X144368750Y-106425000I218750J0D01*
G01*
X144806250Y-106425000D01*
G75*
G02*
X145025000Y-106643750I0J-218750D01*
G01*
X145025000Y-107156250D01*
G75*
G02*
X144806250Y-107375000I-218750J0D01*
G01*
X144368750Y-107375000D01*
G75*
G02*
X144150000Y-107156250I0J218750D01*
G01*
G37*
G36*
G01*
X142575000Y-107156250D02*
X142575000Y-106643750D01*
G75*
G02*
X142793750Y-106425000I218750J0D01*
G01*
X143231250Y-106425000D01*
G75*
G02*
X143450000Y-106643750I0J-218750D01*
G01*
X143450000Y-107156250D01*
G75*
G02*
X143231250Y-107375000I-218750J0D01*
G01*
X142793750Y-107375000D01*
G75*
G02*
X142575000Y-107156250I0J218750D01*
G01*
G37*
G36*
G01*
X144150000Y-110256250D02*
X144150000Y-109743750D01*
G75*
G02*
X144368750Y-109525000I218750J0D01*
G01*
X144806250Y-109525000D01*
G75*
G02*
X145025000Y-109743750I0J-218750D01*
G01*
X145025000Y-110256250D01*
G75*
G02*
X144806250Y-110475000I-218750J0D01*
G01*
X144368750Y-110475000D01*
G75*
G02*
X144150000Y-110256250I0J218750D01*
G01*
G37*
G36*
G01*
X142575000Y-110256250D02*
X142575000Y-109743750D01*
G75*
G02*
X142793750Y-109525000I218750J0D01*
G01*
X143231250Y-109525000D01*
G75*
G02*
X143450000Y-109743750I0J-218750D01*
G01*
X143450000Y-110256250D01*
G75*
G02*
X143231250Y-110475000I-218750J0D01*
G01*
X142793750Y-110475000D01*
G75*
G02*
X142575000Y-110256250I0J218750D01*
G01*
G37*
G36*
G01*
X131950000Y-112143750D02*
X131950000Y-112656250D01*
G75*
G02*
X131731250Y-112875000I-218750J0D01*
G01*
X131293750Y-112875000D01*
G75*
G02*
X131075000Y-112656250I0J218750D01*
G01*
X131075000Y-112143750D01*
G75*
G02*
X131293750Y-111925000I218750J0D01*
G01*
X131731250Y-111925000D01*
G75*
G02*
X131950000Y-112143750I0J-218750D01*
G01*
G37*
G36*
G01*
X133525000Y-112143750D02*
X133525000Y-112656250D01*
G75*
G02*
X133306250Y-112875000I-218750J0D01*
G01*
X132868750Y-112875000D01*
G75*
G02*
X132650000Y-112656250I0J218750D01*
G01*
X132650000Y-112143750D01*
G75*
G02*
X132868750Y-111925000I218750J0D01*
G01*
X133306250Y-111925000D01*
G75*
G02*
X133525000Y-112143750I0J-218750D01*
G01*
G37*
G36*
G01*
X141037500Y-105256250D02*
X141037500Y-104743750D01*
G75*
G02*
X141256250Y-104525000I218750J0D01*
G01*
X141693750Y-104525000D01*
G75*
G02*
X141912500Y-104743750I0J-218750D01*
G01*
X141912500Y-105256250D01*
G75*
G02*
X141693750Y-105475000I-218750J0D01*
G01*
X141256250Y-105475000D01*
G75*
G02*
X141037500Y-105256250I0J218750D01*
G01*
G37*
G36*
G01*
X139462500Y-105256250D02*
X139462500Y-104743750D01*
G75*
G02*
X139681250Y-104525000I218750J0D01*
G01*
X140118750Y-104525000D01*
G75*
G02*
X140337500Y-104743750I0J-218750D01*
G01*
X140337500Y-105256250D01*
G75*
G02*
X140118750Y-105475000I-218750J0D01*
G01*
X139681250Y-105475000D01*
G75*
G02*
X139462500Y-105256250I0J218750D01*
G01*
G37*
G36*
G01*
X132743750Y-107550000D02*
X133256250Y-107550000D01*
G75*
G02*
X133475000Y-107768750I0J-218750D01*
G01*
X133475000Y-108206250D01*
G75*
G02*
X133256250Y-108425000I-218750J0D01*
G01*
X132743750Y-108425000D01*
G75*
G02*
X132525000Y-108206250I0J218750D01*
G01*
X132525000Y-107768750D01*
G75*
G02*
X132743750Y-107550000I218750J0D01*
G01*
G37*
G36*
G01*
X132743750Y-105975000D02*
X133256250Y-105975000D01*
G75*
G02*
X133475000Y-106193750I0J-218750D01*
G01*
X133475000Y-106631250D01*
G75*
G02*
X133256250Y-106850000I-218750J0D01*
G01*
X132743750Y-106850000D01*
G75*
G02*
X132525000Y-106631250I0J218750D01*
G01*
X132525000Y-106193750D01*
G75*
G02*
X132743750Y-105975000I218750J0D01*
G01*
G37*
G36*
G01*
X117143750Y-77837501D02*
X117656250Y-77837501D01*
G75*
G02*
X117875000Y-78056251I0J-218750D01*
G01*
X117875000Y-78493751D01*
G75*
G02*
X117656250Y-78712501I-218750J0D01*
G01*
X117143750Y-78712501D01*
G75*
G02*
X116925000Y-78493751I0J218750D01*
G01*
X116925000Y-78056251D01*
G75*
G02*
X117143750Y-77837501I218750J0D01*
G01*
G37*
G36*
G01*
X117143750Y-76262501D02*
X117656250Y-76262501D01*
G75*
G02*
X117875000Y-76481251I0J-218750D01*
G01*
X117875000Y-76918751D01*
G75*
G02*
X117656250Y-77137501I-218750J0D01*
G01*
X117143750Y-77137501D01*
G75*
G02*
X116925000Y-76918751I0J218750D01*
G01*
X116925000Y-76481251D01*
G75*
G02*
X117143750Y-76262501I218750J0D01*
G01*
G37*
G36*
G01*
X133950000Y-62043750D02*
X133950000Y-62556250D01*
G75*
G02*
X133731250Y-62775000I-218750J0D01*
G01*
X133293750Y-62775000D01*
G75*
G02*
X133075000Y-62556250I0J218750D01*
G01*
X133075000Y-62043750D01*
G75*
G02*
X133293750Y-61825000I218750J0D01*
G01*
X133731250Y-61825000D01*
G75*
G02*
X133950000Y-62043750I0J-218750D01*
G01*
G37*
G36*
G01*
X135525000Y-62043750D02*
X135525000Y-62556250D01*
G75*
G02*
X135306250Y-62775000I-218750J0D01*
G01*
X134868750Y-62775000D01*
G75*
G02*
X134650000Y-62556250I0J218750D01*
G01*
X134650000Y-62043750D01*
G75*
G02*
X134868750Y-61825000I218750J0D01*
G01*
X135306250Y-61825000D01*
G75*
G02*
X135525000Y-62043750I0J-218750D01*
G01*
G37*
G36*
G01*
X129350000Y-116656250D02*
X129350000Y-116143750D01*
G75*
G02*
X129568750Y-115925000I218750J0D01*
G01*
X130006250Y-115925000D01*
G75*
G02*
X130225000Y-116143750I0J-218750D01*
G01*
X130225000Y-116656250D01*
G75*
G02*
X130006250Y-116875000I-218750J0D01*
G01*
X129568750Y-116875000D01*
G75*
G02*
X129350000Y-116656250I0J218750D01*
G01*
G37*
G36*
G01*
X127775000Y-116656250D02*
X127775000Y-116143750D01*
G75*
G02*
X127993750Y-115925000I218750J0D01*
G01*
X128431250Y-115925000D01*
G75*
G02*
X128650000Y-116143750I0J-218750D01*
G01*
X128650000Y-116656250D01*
G75*
G02*
X128431250Y-116875000I-218750J0D01*
G01*
X127993750Y-116875000D01*
G75*
G02*
X127775000Y-116656250I0J218750D01*
G01*
G37*
G36*
G01*
X126550000Y-116656250D02*
X126550000Y-116143750D01*
G75*
G02*
X126768750Y-115925000I218750J0D01*
G01*
X127206250Y-115925000D01*
G75*
G02*
X127425000Y-116143750I0J-218750D01*
G01*
X127425000Y-116656250D01*
G75*
G02*
X127206250Y-116875000I-218750J0D01*
G01*
X126768750Y-116875000D01*
G75*
G02*
X126550000Y-116656250I0J218750D01*
G01*
G37*
G36*
G01*
X124975000Y-116656250D02*
X124975000Y-116143750D01*
G75*
G02*
X125193750Y-115925000I218750J0D01*
G01*
X125631250Y-115925000D01*
G75*
G02*
X125850000Y-116143750I0J-218750D01*
G01*
X125850000Y-116656250D01*
G75*
G02*
X125631250Y-116875000I-218750J0D01*
G01*
X125193750Y-116875000D01*
G75*
G02*
X124975000Y-116656250I0J218750D01*
G01*
G37*
G36*
G01*
X132756250Y-118650000D02*
X132243750Y-118650000D01*
G75*
G02*
X132025000Y-118431250I0J218750D01*
G01*
X132025000Y-117993750D01*
G75*
G02*
X132243750Y-117775000I218750J0D01*
G01*
X132756250Y-117775000D01*
G75*
G02*
X132975000Y-117993750I0J-218750D01*
G01*
X132975000Y-118431250D01*
G75*
G02*
X132756250Y-118650000I-218750J0D01*
G01*
G37*
G36*
G01*
X132756250Y-120225000D02*
X132243750Y-120225000D01*
G75*
G02*
X132025000Y-120006250I0J218750D01*
G01*
X132025000Y-119568750D01*
G75*
G02*
X132243750Y-119350000I218750J0D01*
G01*
X132756250Y-119350000D01*
G75*
G02*
X132975000Y-119568750I0J-218750D01*
G01*
X132975000Y-120006250D01*
G75*
G02*
X132756250Y-120225000I-218750J0D01*
G01*
G37*
G36*
G01*
X110843750Y-53450000D02*
X111356250Y-53450000D01*
G75*
G02*
X111575000Y-53668750I0J-218750D01*
G01*
X111575000Y-54106250D01*
G75*
G02*
X111356250Y-54325000I-218750J0D01*
G01*
X110843750Y-54325000D01*
G75*
G02*
X110625000Y-54106250I0J218750D01*
G01*
X110625000Y-53668750D01*
G75*
G02*
X110843750Y-53450000I218750J0D01*
G01*
G37*
G36*
G01*
X110843750Y-51875000D02*
X111356250Y-51875000D01*
G75*
G02*
X111575000Y-52093750I0J-218750D01*
G01*
X111575000Y-52531250D01*
G75*
G02*
X111356250Y-52750000I-218750J0D01*
G01*
X110843750Y-52750000D01*
G75*
G02*
X110625000Y-52531250I0J218750D01*
G01*
X110625000Y-52093750D01*
G75*
G02*
X110843750Y-51875000I218750J0D01*
G01*
G37*
G36*
G01*
X136556250Y-50150000D02*
X136043750Y-50150000D01*
G75*
G02*
X135825000Y-49931250I0J218750D01*
G01*
X135825000Y-49493750D01*
G75*
G02*
X136043750Y-49275000I218750J0D01*
G01*
X136556250Y-49275000D01*
G75*
G02*
X136775000Y-49493750I0J-218750D01*
G01*
X136775000Y-49931250D01*
G75*
G02*
X136556250Y-50150000I-218750J0D01*
G01*
G37*
G36*
G01*
X136556250Y-51725000D02*
X136043750Y-51725000D01*
G75*
G02*
X135825000Y-51506250I0J218750D01*
G01*
X135825000Y-51068750D01*
G75*
G02*
X136043750Y-50850000I218750J0D01*
G01*
X136556250Y-50850000D01*
G75*
G02*
X136775000Y-51068750I0J-218750D01*
G01*
X136775000Y-51506250D01*
G75*
G02*
X136556250Y-51725000I-218750J0D01*
G01*
G37*
G36*
G01*
X134250000Y-116143750D02*
X134250000Y-116656250D01*
G75*
G02*
X134031250Y-116875000I-218750J0D01*
G01*
X133593750Y-116875000D01*
G75*
G02*
X133375000Y-116656250I0J218750D01*
G01*
X133375000Y-116143750D01*
G75*
G02*
X133593750Y-115925000I218750J0D01*
G01*
X134031250Y-115925000D01*
G75*
G02*
X134250000Y-116143750I0J-218750D01*
G01*
G37*
G36*
G01*
X135825000Y-116143750D02*
X135825000Y-116656250D01*
G75*
G02*
X135606250Y-116875000I-218750J0D01*
G01*
X135168750Y-116875000D01*
G75*
G02*
X134950000Y-116656250I0J218750D01*
G01*
X134950000Y-116143750D01*
G75*
G02*
X135168750Y-115925000I218750J0D01*
G01*
X135606250Y-115925000D01*
G75*
G02*
X135825000Y-116143750I0J-218750D01*
G01*
G37*
G36*
G01*
X137856250Y-50150000D02*
X137343750Y-50150000D01*
G75*
G02*
X137125000Y-49931250I0J218750D01*
G01*
X137125000Y-49493750D01*
G75*
G02*
X137343750Y-49275000I218750J0D01*
G01*
X137856250Y-49275000D01*
G75*
G02*
X138075000Y-49493750I0J-218750D01*
G01*
X138075000Y-49931250D01*
G75*
G02*
X137856250Y-50150000I-218750J0D01*
G01*
G37*
G36*
G01*
X137856250Y-51725000D02*
X137343750Y-51725000D01*
G75*
G02*
X137125000Y-51506250I0J218750D01*
G01*
X137125000Y-51068750D01*
G75*
G02*
X137343750Y-50850000I218750J0D01*
G01*
X137856250Y-50850000D01*
G75*
G02*
X138075000Y-51068750I0J-218750D01*
G01*
X138075000Y-51506250D01*
G75*
G02*
X137856250Y-51725000I-218750J0D01*
G01*
G37*
G36*
G01*
X140250000Y-120356250D02*
X140250000Y-119843750D01*
G75*
G02*
X140468750Y-119625000I218750J0D01*
G01*
X140906250Y-119625000D01*
G75*
G02*
X141125000Y-119843750I0J-218750D01*
G01*
X141125000Y-120356250D01*
G75*
G02*
X140906250Y-120575000I-218750J0D01*
G01*
X140468750Y-120575000D01*
G75*
G02*
X140250000Y-120356250I0J218750D01*
G01*
G37*
G36*
G01*
X138675000Y-120356250D02*
X138675000Y-119843750D01*
G75*
G02*
X138893750Y-119625000I218750J0D01*
G01*
X139331250Y-119625000D01*
G75*
G02*
X139550000Y-119843750I0J-218750D01*
G01*
X139550000Y-120356250D01*
G75*
G02*
X139331250Y-120575000I-218750J0D01*
G01*
X138893750Y-120575000D01*
G75*
G02*
X138675000Y-120356250I0J218750D01*
G01*
G37*
G36*
G01*
X118550000Y-116156250D02*
X118550000Y-115643750D01*
G75*
G02*
X118768750Y-115425000I218750J0D01*
G01*
X119206250Y-115425000D01*
G75*
G02*
X119425000Y-115643750I0J-218750D01*
G01*
X119425000Y-116156250D01*
G75*
G02*
X119206250Y-116375000I-218750J0D01*
G01*
X118768750Y-116375000D01*
G75*
G02*
X118550000Y-116156250I0J218750D01*
G01*
G37*
G36*
G01*
X116975000Y-116156250D02*
X116975000Y-115643750D01*
G75*
G02*
X117193750Y-115425000I218750J0D01*
G01*
X117631250Y-115425000D01*
G75*
G02*
X117850000Y-115643750I0J-218750D01*
G01*
X117850000Y-116156250D01*
G75*
G02*
X117631250Y-116375000I-218750J0D01*
G01*
X117193750Y-116375000D01*
G75*
G02*
X116975000Y-116156250I0J218750D01*
G01*
G37*
G36*
G01*
X114850000Y-115643750D02*
X114850000Y-116156250D01*
G75*
G02*
X114631250Y-116375000I-218750J0D01*
G01*
X114193750Y-116375000D01*
G75*
G02*
X113975000Y-116156250I0J218750D01*
G01*
X113975000Y-115643750D01*
G75*
G02*
X114193750Y-115425000I218750J0D01*
G01*
X114631250Y-115425000D01*
G75*
G02*
X114850000Y-115643750I0J-218750D01*
G01*
G37*
G36*
G01*
X116425000Y-115643750D02*
X116425000Y-116156250D01*
G75*
G02*
X116206250Y-116375000I-218750J0D01*
G01*
X115768750Y-116375000D01*
G75*
G02*
X115550000Y-116156250I0J218750D01*
G01*
X115550000Y-115643750D01*
G75*
G02*
X115768750Y-115425000I218750J0D01*
G01*
X116206250Y-115425000D01*
G75*
G02*
X116425000Y-115643750I0J-218750D01*
G01*
G37*
G36*
G01*
X141743750Y-121250000D02*
X142256250Y-121250000D01*
G75*
G02*
X142475000Y-121468750I0J-218750D01*
G01*
X142475000Y-121906250D01*
G75*
G02*
X142256250Y-122125000I-218750J0D01*
G01*
X141743750Y-122125000D01*
G75*
G02*
X141525000Y-121906250I0J218750D01*
G01*
X141525000Y-121468750D01*
G75*
G02*
X141743750Y-121250000I218750J0D01*
G01*
G37*
G36*
G01*
X141743750Y-119675000D02*
X142256250Y-119675000D01*
G75*
G02*
X142475000Y-119893750I0J-218750D01*
G01*
X142475000Y-120331250D01*
G75*
G02*
X142256250Y-120550000I-218750J0D01*
G01*
X141743750Y-120550000D01*
G75*
G02*
X141525000Y-120331250I0J218750D01*
G01*
X141525000Y-119893750D01*
G75*
G02*
X141743750Y-119675000I218750J0D01*
G01*
G37*
G36*
G01*
X122350000Y-122656250D02*
X122350000Y-122143750D01*
G75*
G02*
X122568750Y-121925000I218750J0D01*
G01*
X123006250Y-121925000D01*
G75*
G02*
X123225000Y-122143750I0J-218750D01*
G01*
X123225000Y-122656250D01*
G75*
G02*
X123006250Y-122875000I-218750J0D01*
G01*
X122568750Y-122875000D01*
G75*
G02*
X122350000Y-122656250I0J218750D01*
G01*
G37*
G36*
G01*
X120775000Y-122656250D02*
X120775000Y-122143750D01*
G75*
G02*
X120993750Y-121925000I218750J0D01*
G01*
X121431250Y-121925000D01*
G75*
G02*
X121650000Y-122143750I0J-218750D01*
G01*
X121650000Y-122656250D01*
G75*
G02*
X121431250Y-122875000I-218750J0D01*
G01*
X120993750Y-122875000D01*
G75*
G02*
X120775000Y-122656250I0J218750D01*
G01*
G37*
G36*
G01*
X120750000Y-118543750D02*
X120750000Y-119056250D01*
G75*
G02*
X120531250Y-119275000I-218750J0D01*
G01*
X120093750Y-119275000D01*
G75*
G02*
X119875000Y-119056250I0J218750D01*
G01*
X119875000Y-118543750D01*
G75*
G02*
X120093750Y-118325000I218750J0D01*
G01*
X120531250Y-118325000D01*
G75*
G02*
X120750000Y-118543750I0J-218750D01*
G01*
G37*
G36*
G01*
X122325000Y-118543750D02*
X122325000Y-119056250D01*
G75*
G02*
X122106250Y-119275000I-218750J0D01*
G01*
X121668750Y-119275000D01*
G75*
G02*
X121450000Y-119056250I0J218750D01*
G01*
X121450000Y-118543750D01*
G75*
G02*
X121668750Y-118325000I218750J0D01*
G01*
X122106250Y-118325000D01*
G75*
G02*
X122325000Y-118543750I0J-218750D01*
G01*
G37*
G36*
G01*
X142256250Y-117750000D02*
X141743750Y-117750000D01*
G75*
G02*
X141525000Y-117531250I0J218750D01*
G01*
X141525000Y-117093750D01*
G75*
G02*
X141743750Y-116875000I218750J0D01*
G01*
X142256250Y-116875000D01*
G75*
G02*
X142475000Y-117093750I0J-218750D01*
G01*
X142475000Y-117531250D01*
G75*
G02*
X142256250Y-117750000I-218750J0D01*
G01*
G37*
G36*
G01*
X142256250Y-119325000D02*
X141743750Y-119325000D01*
G75*
G02*
X141525000Y-119106250I0J218750D01*
G01*
X141525000Y-118668750D01*
G75*
G02*
X141743750Y-118450000I218750J0D01*
G01*
X142256250Y-118450000D01*
G75*
G02*
X142475000Y-118668750I0J-218750D01*
G01*
X142475000Y-119106250D01*
G75*
G02*
X142256250Y-119325000I-218750J0D01*
G01*
G37*
G36*
G01*
X121650000Y-123443750D02*
X121650000Y-123956250D01*
G75*
G02*
X121431250Y-124175000I-218750J0D01*
G01*
X120993750Y-124175000D01*
G75*
G02*
X120775000Y-123956250I0J218750D01*
G01*
X120775000Y-123443750D01*
G75*
G02*
X120993750Y-123225000I218750J0D01*
G01*
X121431250Y-123225000D01*
G75*
G02*
X121650000Y-123443750I0J-218750D01*
G01*
G37*
G36*
G01*
X123225000Y-123443750D02*
X123225000Y-123956250D01*
G75*
G02*
X123006250Y-124175000I-218750J0D01*
G01*
X122568750Y-124175000D01*
G75*
G02*
X122350000Y-123956250I0J218750D01*
G01*
X122350000Y-123443750D01*
G75*
G02*
X122568750Y-123225000I218750J0D01*
G01*
X123006250Y-123225000D01*
G75*
G02*
X123225000Y-123443750I0J-218750D01*
G01*
G37*
G36*
G01*
X108750000Y-102343750D02*
X108750000Y-102856250D01*
G75*
G02*
X108531250Y-103075000I-218750J0D01*
G01*
X108093750Y-103075000D01*
G75*
G02*
X107875000Y-102856250I0J218750D01*
G01*
X107875000Y-102343750D01*
G75*
G02*
X108093750Y-102125000I218750J0D01*
G01*
X108531250Y-102125000D01*
G75*
G02*
X108750000Y-102343750I0J-218750D01*
G01*
G37*
G36*
G01*
X110325000Y-102343750D02*
X110325000Y-102856250D01*
G75*
G02*
X110106250Y-103075000I-218750J0D01*
G01*
X109668750Y-103075000D01*
G75*
G02*
X109450000Y-102856250I0J218750D01*
G01*
X109450000Y-102343750D01*
G75*
G02*
X109668750Y-102125000I218750J0D01*
G01*
X110106250Y-102125000D01*
G75*
G02*
X110325000Y-102343750I0J-218750D01*
G01*
G37*
G36*
G01*
X120556250Y-112150000D02*
X120043750Y-112150000D01*
G75*
G02*
X119825000Y-111931250I0J218750D01*
G01*
X119825000Y-111493750D01*
G75*
G02*
X120043750Y-111275000I218750J0D01*
G01*
X120556250Y-111275000D01*
G75*
G02*
X120775000Y-111493750I0J-218750D01*
G01*
X120775000Y-111931250D01*
G75*
G02*
X120556250Y-112150000I-218750J0D01*
G01*
G37*
G36*
G01*
X120556250Y-113725000D02*
X120043750Y-113725000D01*
G75*
G02*
X119825000Y-113506250I0J218750D01*
G01*
X119825000Y-113068750D01*
G75*
G02*
X120043750Y-112850000I218750J0D01*
G01*
X120556250Y-112850000D01*
G75*
G02*
X120775000Y-113068750I0J-218750D01*
G01*
X120775000Y-113506250D01*
G75*
G02*
X120556250Y-113725000I-218750J0D01*
G01*
G37*
G36*
G01*
X113356250Y-112150000D02*
X112843750Y-112150000D01*
G75*
G02*
X112625000Y-111931250I0J218750D01*
G01*
X112625000Y-111493750D01*
G75*
G02*
X112843750Y-111275000I218750J0D01*
G01*
X113356250Y-111275000D01*
G75*
G02*
X113575000Y-111493750I0J-218750D01*
G01*
X113575000Y-111931250D01*
G75*
G02*
X113356250Y-112150000I-218750J0D01*
G01*
G37*
G36*
G01*
X113356250Y-113725000D02*
X112843750Y-113725000D01*
G75*
G02*
X112625000Y-113506250I0J218750D01*
G01*
X112625000Y-113068750D01*
G75*
G02*
X112843750Y-112850000I218750J0D01*
G01*
X113356250Y-112850000D01*
G75*
G02*
X113575000Y-113068750I0J-218750D01*
G01*
X113575000Y-113506250D01*
G75*
G02*
X113356250Y-113725000I-218750J0D01*
G01*
G37*
G36*
G01*
X124356250Y-122550000D02*
X123843750Y-122550000D01*
G75*
G02*
X123625000Y-122331250I0J218750D01*
G01*
X123625000Y-121893750D01*
G75*
G02*
X123843750Y-121675000I218750J0D01*
G01*
X124356250Y-121675000D01*
G75*
G02*
X124575000Y-121893750I0J-218750D01*
G01*
X124575000Y-122331250D01*
G75*
G02*
X124356250Y-122550000I-218750J0D01*
G01*
G37*
G36*
G01*
X124356250Y-124125000D02*
X123843750Y-124125000D01*
G75*
G02*
X123625000Y-123906250I0J218750D01*
G01*
X123625000Y-123468750D01*
G75*
G02*
X123843750Y-123250000I218750J0D01*
G01*
X124356250Y-123250000D01*
G75*
G02*
X124575000Y-123468750I0J-218750D01*
G01*
X124575000Y-123906250D01*
G75*
G02*
X124356250Y-124125000I-218750J0D01*
G01*
G37*
G36*
G01*
X116656250Y-138150000D02*
X116143750Y-138150000D01*
G75*
G02*
X115925000Y-137931250I0J218750D01*
G01*
X115925000Y-137493750D01*
G75*
G02*
X116143750Y-137275000I218750J0D01*
G01*
X116656250Y-137275000D01*
G75*
G02*
X116875000Y-137493750I0J-218750D01*
G01*
X116875000Y-137931250D01*
G75*
G02*
X116656250Y-138150000I-218750J0D01*
G01*
G37*
G36*
G01*
X116656250Y-139725000D02*
X116143750Y-139725000D01*
G75*
G02*
X115925000Y-139506250I0J218750D01*
G01*
X115925000Y-139068750D01*
G75*
G02*
X116143750Y-138850000I218750J0D01*
G01*
X116656250Y-138850000D01*
G75*
G02*
X116875000Y-139068750I0J-218750D01*
G01*
X116875000Y-139506250D01*
G75*
G02*
X116656250Y-139725000I-218750J0D01*
G01*
G37*
G36*
G01*
X119150000Y-140256250D02*
X119150000Y-139743750D01*
G75*
G02*
X119368750Y-139525000I218750J0D01*
G01*
X119806250Y-139525000D01*
G75*
G02*
X120025000Y-139743750I0J-218750D01*
G01*
X120025000Y-140256250D01*
G75*
G02*
X119806250Y-140475000I-218750J0D01*
G01*
X119368750Y-140475000D01*
G75*
G02*
X119150000Y-140256250I0J218750D01*
G01*
G37*
G36*
G01*
X117575000Y-140256250D02*
X117575000Y-139743750D01*
G75*
G02*
X117793750Y-139525000I218750J0D01*
G01*
X118231250Y-139525000D01*
G75*
G02*
X118450000Y-139743750I0J-218750D01*
G01*
X118450000Y-140256250D01*
G75*
G02*
X118231250Y-140475000I-218750J0D01*
G01*
X117793750Y-140475000D01*
G75*
G02*
X117575000Y-140256250I0J218750D01*
G01*
G37*
G36*
G01*
X109450000Y-107856250D02*
X109450000Y-107343750D01*
G75*
G02*
X109668750Y-107125000I218750J0D01*
G01*
X110106250Y-107125000D01*
G75*
G02*
X110325000Y-107343750I0J-218750D01*
G01*
X110325000Y-107856250D01*
G75*
G02*
X110106250Y-108075000I-218750J0D01*
G01*
X109668750Y-108075000D01*
G75*
G02*
X109450000Y-107856250I0J218750D01*
G01*
G37*
G36*
G01*
X107875000Y-107856250D02*
X107875000Y-107343750D01*
G75*
G02*
X108093750Y-107125000I218750J0D01*
G01*
X108531250Y-107125000D01*
G75*
G02*
X108750000Y-107343750I0J-218750D01*
G01*
X108750000Y-107856250D01*
G75*
G02*
X108531250Y-108075000I-218750J0D01*
G01*
X108093750Y-108075000D01*
G75*
G02*
X107875000Y-107856250I0J218750D01*
G01*
G37*
G36*
G01*
X119656250Y-125950000D02*
X119143750Y-125950000D01*
G75*
G02*
X118925000Y-125731250I0J218750D01*
G01*
X118925000Y-125293750D01*
G75*
G02*
X119143750Y-125075000I218750J0D01*
G01*
X119656250Y-125075000D01*
G75*
G02*
X119875000Y-125293750I0J-218750D01*
G01*
X119875000Y-125731250D01*
G75*
G02*
X119656250Y-125950000I-218750J0D01*
G01*
G37*
G36*
G01*
X119656250Y-127525000D02*
X119143750Y-127525000D01*
G75*
G02*
X118925000Y-127306250I0J218750D01*
G01*
X118925000Y-126868750D01*
G75*
G02*
X119143750Y-126650000I218750J0D01*
G01*
X119656250Y-126650000D01*
G75*
G02*
X119875000Y-126868750I0J-218750D01*
G01*
X119875000Y-127306250D01*
G75*
G02*
X119656250Y-127525000I-218750J0D01*
G01*
G37*
G36*
G01*
X119256250Y-117662499D02*
X118743750Y-117662499D01*
G75*
G02*
X118525000Y-117443749I0J218750D01*
G01*
X118525000Y-117006249D01*
G75*
G02*
X118743750Y-116787499I218750J0D01*
G01*
X119256250Y-116787499D01*
G75*
G02*
X119475000Y-117006249I0J-218750D01*
G01*
X119475000Y-117443749D01*
G75*
G02*
X119256250Y-117662499I-218750J0D01*
G01*
G37*
G36*
G01*
X119256250Y-119237499D02*
X118743750Y-119237499D01*
G75*
G02*
X118525000Y-119018749I0J218750D01*
G01*
X118525000Y-118581249D01*
G75*
G02*
X118743750Y-118362499I218750J0D01*
G01*
X119256250Y-118362499D01*
G75*
G02*
X119475000Y-118581249I0J-218750D01*
G01*
X119475000Y-119018749D01*
G75*
G02*
X119256250Y-119237499I-218750J0D01*
G01*
G37*
G36*
G01*
X111450000Y-122143750D02*
X111450000Y-122656250D01*
G75*
G02*
X111231250Y-122875000I-218750J0D01*
G01*
X110793750Y-122875000D01*
G75*
G02*
X110575000Y-122656250I0J218750D01*
G01*
X110575000Y-122143750D01*
G75*
G02*
X110793750Y-121925000I218750J0D01*
G01*
X111231250Y-121925000D01*
G75*
G02*
X111450000Y-122143750I0J-218750D01*
G01*
G37*
G36*
G01*
X113025000Y-122143750D02*
X113025000Y-122656250D01*
G75*
G02*
X112806250Y-122875000I-218750J0D01*
G01*
X112368750Y-122875000D01*
G75*
G02*
X112150000Y-122656250I0J218750D01*
G01*
X112150000Y-122143750D01*
G75*
G02*
X112368750Y-121925000I218750J0D01*
G01*
X112806250Y-121925000D01*
G75*
G02*
X113025000Y-122143750I0J-218750D01*
G01*
G37*
G36*
G01*
X112650000Y-119056250D02*
X112650000Y-118543750D01*
G75*
G02*
X112868750Y-118325000I218750J0D01*
G01*
X113306250Y-118325000D01*
G75*
G02*
X113525000Y-118543750I0J-218750D01*
G01*
X113525000Y-119056250D01*
G75*
G02*
X113306250Y-119275000I-218750J0D01*
G01*
X112868750Y-119275000D01*
G75*
G02*
X112650000Y-119056250I0J218750D01*
G01*
G37*
G36*
G01*
X111075000Y-119056250D02*
X111075000Y-118543750D01*
G75*
G02*
X111293750Y-118325000I218750J0D01*
G01*
X111731250Y-118325000D01*
G75*
G02*
X111950000Y-118543750I0J-218750D01*
G01*
X111950000Y-119056250D01*
G75*
G02*
X111731250Y-119275000I-218750J0D01*
G01*
X111293750Y-119275000D01*
G75*
G02*
X111075000Y-119056250I0J218750D01*
G01*
G37*
G36*
G01*
X112150000Y-123956250D02*
X112150000Y-123443750D01*
G75*
G02*
X112368750Y-123225000I218750J0D01*
G01*
X112806250Y-123225000D01*
G75*
G02*
X113025000Y-123443750I0J-218750D01*
G01*
X113025000Y-123956250D01*
G75*
G02*
X112806250Y-124175000I-218750J0D01*
G01*
X112368750Y-124175000D01*
G75*
G02*
X112150000Y-123956250I0J218750D01*
G01*
G37*
G36*
G01*
X110575000Y-123956250D02*
X110575000Y-123443750D01*
G75*
G02*
X110793750Y-123225000I218750J0D01*
G01*
X111231250Y-123225000D01*
G75*
G02*
X111450000Y-123443750I0J-218750D01*
G01*
X111450000Y-123956250D01*
G75*
G02*
X111231250Y-124175000I-218750J0D01*
G01*
X110793750Y-124175000D01*
G75*
G02*
X110575000Y-123956250I0J218750D01*
G01*
G37*
G36*
G01*
X108750000Y-114043750D02*
X108750000Y-114556250D01*
G75*
G02*
X108531250Y-114775000I-218750J0D01*
G01*
X108093750Y-114775000D01*
G75*
G02*
X107875000Y-114556250I0J218750D01*
G01*
X107875000Y-114043750D01*
G75*
G02*
X108093750Y-113825000I218750J0D01*
G01*
X108531250Y-113825000D01*
G75*
G02*
X108750000Y-114043750I0J-218750D01*
G01*
G37*
G36*
G01*
X110325000Y-114043750D02*
X110325000Y-114556250D01*
G75*
G02*
X110106250Y-114775000I-218750J0D01*
G01*
X109668750Y-114775000D01*
G75*
G02*
X109450000Y-114556250I0J218750D01*
G01*
X109450000Y-114043750D01*
G75*
G02*
X109668750Y-113825000I218750J0D01*
G01*
X110106250Y-113825000D01*
G75*
G02*
X110325000Y-114043750I0J-218750D01*
G01*
G37*
G36*
G01*
X109956250Y-122550000D02*
X109443750Y-122550000D01*
G75*
G02*
X109225000Y-122331250I0J218750D01*
G01*
X109225000Y-121893750D01*
G75*
G02*
X109443750Y-121675000I218750J0D01*
G01*
X109956250Y-121675000D01*
G75*
G02*
X110175000Y-121893750I0J-218750D01*
G01*
X110175000Y-122331250D01*
G75*
G02*
X109956250Y-122550000I-218750J0D01*
G01*
G37*
G36*
G01*
X109956250Y-124125000D02*
X109443750Y-124125000D01*
G75*
G02*
X109225000Y-123906250I0J218750D01*
G01*
X109225000Y-123468750D01*
G75*
G02*
X109443750Y-123250000I218750J0D01*
G01*
X109956250Y-123250000D01*
G75*
G02*
X110175000Y-123468750I0J-218750D01*
G01*
X110175000Y-123906250D01*
G75*
G02*
X109956250Y-124125000I-218750J0D01*
G01*
G37*
G36*
G01*
X115056250Y-138150000D02*
X114543750Y-138150000D01*
G75*
G02*
X114325000Y-137931250I0J218750D01*
G01*
X114325000Y-137493750D01*
G75*
G02*
X114543750Y-137275000I218750J0D01*
G01*
X115056250Y-137275000D01*
G75*
G02*
X115275000Y-137493750I0J-218750D01*
G01*
X115275000Y-137931250D01*
G75*
G02*
X115056250Y-138150000I-218750J0D01*
G01*
G37*
G36*
G01*
X115056250Y-139725000D02*
X114543750Y-139725000D01*
G75*
G02*
X114325000Y-139506250I0J218750D01*
G01*
X114325000Y-139068750D01*
G75*
G02*
X114543750Y-138850000I218750J0D01*
G01*
X115056250Y-138850000D01*
G75*
G02*
X115275000Y-139068750I0J-218750D01*
G01*
X115275000Y-139506250D01*
G75*
G02*
X115056250Y-139725000I-218750J0D01*
G01*
G37*
G36*
G01*
X111350000Y-140256250D02*
X111350000Y-139743750D01*
G75*
G02*
X111568750Y-139525000I218750J0D01*
G01*
X112006250Y-139525000D01*
G75*
G02*
X112225000Y-139743750I0J-218750D01*
G01*
X112225000Y-140256250D01*
G75*
G02*
X112006250Y-140475000I-218750J0D01*
G01*
X111568750Y-140475000D01*
G75*
G02*
X111350000Y-140256250I0J218750D01*
G01*
G37*
G36*
G01*
X109775000Y-140256250D02*
X109775000Y-139743750D01*
G75*
G02*
X109993750Y-139525000I218750J0D01*
G01*
X110431250Y-139525000D01*
G75*
G02*
X110650000Y-139743750I0J-218750D01*
G01*
X110650000Y-140256250D01*
G75*
G02*
X110431250Y-140475000I-218750J0D01*
G01*
X109993750Y-140475000D01*
G75*
G02*
X109775000Y-140256250I0J218750D01*
G01*
G37*
G36*
G01*
X109450000Y-119556250D02*
X109450000Y-119043750D01*
G75*
G02*
X109668750Y-118825000I218750J0D01*
G01*
X110106250Y-118825000D01*
G75*
G02*
X110325000Y-119043750I0J-218750D01*
G01*
X110325000Y-119556250D01*
G75*
G02*
X110106250Y-119775000I-218750J0D01*
G01*
X109668750Y-119775000D01*
G75*
G02*
X109450000Y-119556250I0J218750D01*
G01*
G37*
G36*
G01*
X107875000Y-119556250D02*
X107875000Y-119043750D01*
G75*
G02*
X108093750Y-118825000I218750J0D01*
G01*
X108531250Y-118825000D01*
G75*
G02*
X108750000Y-119043750I0J-218750D01*
G01*
X108750000Y-119556250D01*
G75*
G02*
X108531250Y-119775000I-218750J0D01*
G01*
X108093750Y-119775000D01*
G75*
G02*
X107875000Y-119556250I0J218750D01*
G01*
G37*
G36*
G01*
X115056250Y-125950000D02*
X114543750Y-125950000D01*
G75*
G02*
X114325000Y-125731250I0J218750D01*
G01*
X114325000Y-125293750D01*
G75*
G02*
X114543750Y-125075000I218750J0D01*
G01*
X115056250Y-125075000D01*
G75*
G02*
X115275000Y-125293750I0J-218750D01*
G01*
X115275000Y-125731250D01*
G75*
G02*
X115056250Y-125950000I-218750J0D01*
G01*
G37*
G36*
G01*
X115056250Y-127525000D02*
X114543750Y-127525000D01*
G75*
G02*
X114325000Y-127306250I0J218750D01*
G01*
X114325000Y-126868750D01*
G75*
G02*
X114543750Y-126650000I218750J0D01*
G01*
X115056250Y-126650000D01*
G75*
G02*
X115275000Y-126868750I0J-218750D01*
G01*
X115275000Y-127306250D01*
G75*
G02*
X115056250Y-127525000I-218750J0D01*
G01*
G37*
G36*
G01*
X118456250Y-107850000D02*
X117943750Y-107850000D01*
G75*
G02*
X117725000Y-107631250I0J218750D01*
G01*
X117725000Y-107193750D01*
G75*
G02*
X117943750Y-106975000I218750J0D01*
G01*
X118456250Y-106975000D01*
G75*
G02*
X118675000Y-107193750I0J-218750D01*
G01*
X118675000Y-107631250D01*
G75*
G02*
X118456250Y-107850000I-218750J0D01*
G01*
G37*
G36*
G01*
X118456250Y-109425000D02*
X117943750Y-109425000D01*
G75*
G02*
X117725000Y-109206250I0J218750D01*
G01*
X117725000Y-108768750D01*
G75*
G02*
X117943750Y-108550000I218750J0D01*
G01*
X118456250Y-108550000D01*
G75*
G02*
X118675000Y-108768750I0J-218750D01*
G01*
X118675000Y-109206250D01*
G75*
G02*
X118456250Y-109425000I-218750J0D01*
G01*
G37*
G36*
G01*
X114656250Y-117650000D02*
X114143750Y-117650000D01*
G75*
G02*
X113925000Y-117431250I0J218750D01*
G01*
X113925000Y-116993750D01*
G75*
G02*
X114143750Y-116775000I218750J0D01*
G01*
X114656250Y-116775000D01*
G75*
G02*
X114875000Y-116993750I0J-218750D01*
G01*
X114875000Y-117431250D01*
G75*
G02*
X114656250Y-117650000I-218750J0D01*
G01*
G37*
G36*
G01*
X114656250Y-119225000D02*
X114143750Y-119225000D01*
G75*
G02*
X113925000Y-119006250I0J218750D01*
G01*
X113925000Y-118568750D01*
G75*
G02*
X114143750Y-118350000I218750J0D01*
G01*
X114656250Y-118350000D01*
G75*
G02*
X114875000Y-118568750I0J-218750D01*
G01*
X114875000Y-119006250D01*
G75*
G02*
X114656250Y-119225000I-218750J0D01*
G01*
G37*
G36*
G01*
X115456250Y-107850000D02*
X114943750Y-107850000D01*
G75*
G02*
X114725000Y-107631250I0J218750D01*
G01*
X114725000Y-107193750D01*
G75*
G02*
X114943750Y-106975000I218750J0D01*
G01*
X115456250Y-106975000D01*
G75*
G02*
X115675000Y-107193750I0J-218750D01*
G01*
X115675000Y-107631250D01*
G75*
G02*
X115456250Y-107850000I-218750J0D01*
G01*
G37*
G36*
G01*
X115456250Y-109425000D02*
X114943750Y-109425000D01*
G75*
G02*
X114725000Y-109206250I0J218750D01*
G01*
X114725000Y-108768750D01*
G75*
G02*
X114943750Y-108550000I218750J0D01*
G01*
X115456250Y-108550000D01*
G75*
G02*
X115675000Y-108768750I0J-218750D01*
G01*
X115675000Y-109206250D01*
G75*
G02*
X115456250Y-109425000I-218750J0D01*
G01*
G37*
D20*
X130600000Y-109100000D03*
X131550000Y-111100000D03*
X129650000Y-111100000D03*
X134000000Y-109100000D03*
X134950000Y-111100000D03*
X133050000Y-111100000D03*
D21*
X121700000Y-132600000D03*
X121700000Y-137200000D03*
X121700000Y-134900000D03*
D22*
X128000000Y-134900000D03*
D21*
X121700000Y-125550000D03*
X121700000Y-130150000D03*
X121700000Y-127850000D03*
D22*
X128000000Y-127850000D03*
D21*
X112500001Y-137200000D03*
X112500001Y-132600000D03*
X112500001Y-134900000D03*
D22*
X106200001Y-134900000D03*
D21*
X112500000Y-130150000D03*
X112500000Y-125550000D03*
X112500000Y-127850000D03*
D22*
X106200000Y-127850000D03*
D23*
X147690000Y-105450000D03*
X147690000Y-106250000D03*
X147690000Y-105450000D03*
X147690000Y-106250000D03*
X147690000Y-111850000D03*
X147690000Y-111850000D03*
X147690000Y-111050000D03*
X147690000Y-111050000D03*
D24*
X147690000Y-106900000D03*
X147690000Y-107900000D03*
X147690000Y-107400000D03*
X147690000Y-109900000D03*
X147690000Y-110400000D03*
X147690000Y-108400000D03*
X147690000Y-108900000D03*
X147690000Y-109400000D03*
G36*
G01*
X116550000Y-84256250D02*
X116550000Y-83343750D01*
G75*
G02*
X116793750Y-83100000I243750J0D01*
G01*
X117281250Y-83100000D01*
G75*
G02*
X117525000Y-83343750I0J-243750D01*
G01*
X117525000Y-84256250D01*
G75*
G02*
X117281250Y-84500000I-243750J0D01*
G01*
X116793750Y-84500000D01*
G75*
G02*
X116550000Y-84256250I0J243750D01*
G01*
G37*
G36*
G01*
X114675000Y-84256250D02*
X114675000Y-83343750D01*
G75*
G02*
X114918750Y-83100000I243750J0D01*
G01*
X115406250Y-83100000D01*
G75*
G02*
X115650000Y-83343750I0J-243750D01*
G01*
X115650000Y-84256250D01*
G75*
G02*
X115406250Y-84500000I-243750J0D01*
G01*
X114918750Y-84500000D01*
G75*
G02*
X114675000Y-84256250I0J243750D01*
G01*
G37*
G36*
G01*
X144156250Y-122350000D02*
X143643750Y-122350000D01*
G75*
G02*
X143425000Y-122131250I0J218750D01*
G01*
X143425000Y-121693750D01*
G75*
G02*
X143643750Y-121475000I218750J0D01*
G01*
X144156250Y-121475000D01*
G75*
G02*
X144375000Y-121693750I0J-218750D01*
G01*
X144375000Y-122131250D01*
G75*
G02*
X144156250Y-122350000I-218750J0D01*
G01*
G37*
G36*
G01*
X144156250Y-123925000D02*
X143643750Y-123925000D01*
G75*
G02*
X143425000Y-123706250I0J218750D01*
G01*
X143425000Y-123268750D01*
G75*
G02*
X143643750Y-123050000I218750J0D01*
G01*
X144156250Y-123050000D01*
G75*
G02*
X144375000Y-123268750I0J-218750D01*
G01*
X144375000Y-123706250D01*
G75*
G02*
X144156250Y-123925000I-218750J0D01*
G01*
G37*
G36*
G01*
X143643750Y-126150000D02*
X144556250Y-126150000D01*
G75*
G02*
X144800000Y-126393750I0J-243750D01*
G01*
X144800000Y-126881250D01*
G75*
G02*
X144556250Y-127125000I-243750J0D01*
G01*
X143643750Y-127125000D01*
G75*
G02*
X143400000Y-126881250I0J243750D01*
G01*
X143400000Y-126393750D01*
G75*
G02*
X143643750Y-126150000I243750J0D01*
G01*
G37*
G36*
G01*
X143643750Y-124275000D02*
X144556250Y-124275000D01*
G75*
G02*
X144800000Y-124518750I0J-243750D01*
G01*
X144800000Y-125006250D01*
G75*
G02*
X144556250Y-125250000I-243750J0D01*
G01*
X143643750Y-125250000D01*
G75*
G02*
X143400000Y-125006250I0J243750D01*
G01*
X143400000Y-124518750D01*
G75*
G02*
X143643750Y-124275000I243750J0D01*
G01*
G37*
G36*
G01*
X144150000Y-105856250D02*
X144150000Y-105343750D01*
G75*
G02*
X144368750Y-105125000I218750J0D01*
G01*
X144806250Y-105125000D01*
G75*
G02*
X145025000Y-105343750I0J-218750D01*
G01*
X145025000Y-105856250D01*
G75*
G02*
X144806250Y-106075000I-218750J0D01*
G01*
X144368750Y-106075000D01*
G75*
G02*
X144150000Y-105856250I0J218750D01*
G01*
G37*
G36*
G01*
X142575000Y-105856250D02*
X142575000Y-105343750D01*
G75*
G02*
X142793750Y-105125000I218750J0D01*
G01*
X143231250Y-105125000D01*
G75*
G02*
X143450000Y-105343750I0J-218750D01*
G01*
X143450000Y-105856250D01*
G75*
G02*
X143231250Y-106075000I-218750J0D01*
G01*
X142793750Y-106075000D01*
G75*
G02*
X142575000Y-105856250I0J218750D01*
G01*
G37*
G36*
G01*
X144150000Y-108456250D02*
X144150000Y-107943750D01*
G75*
G02*
X144368750Y-107725000I218750J0D01*
G01*
X144806250Y-107725000D01*
G75*
G02*
X145025000Y-107943750I0J-218750D01*
G01*
X145025000Y-108456250D01*
G75*
G02*
X144806250Y-108675000I-218750J0D01*
G01*
X144368750Y-108675000D01*
G75*
G02*
X144150000Y-108456250I0J218750D01*
G01*
G37*
G36*
G01*
X142575000Y-108456250D02*
X142575000Y-107943750D01*
G75*
G02*
X142793750Y-107725000I218750J0D01*
G01*
X143231250Y-107725000D01*
G75*
G02*
X143450000Y-107943750I0J-218750D01*
G01*
X143450000Y-108456250D01*
G75*
G02*
X143231250Y-108675000I-218750J0D01*
G01*
X142793750Y-108675000D01*
G75*
G02*
X142575000Y-108456250I0J218750D01*
G01*
G37*
G36*
G01*
X115843750Y-77850000D02*
X116356250Y-77850000D01*
G75*
G02*
X116575000Y-78068750I0J-218750D01*
G01*
X116575000Y-78506250D01*
G75*
G02*
X116356250Y-78725000I-218750J0D01*
G01*
X115843750Y-78725000D01*
G75*
G02*
X115625000Y-78506250I0J218750D01*
G01*
X115625000Y-78068750D01*
G75*
G02*
X115843750Y-77850000I218750J0D01*
G01*
G37*
G36*
G01*
X115843750Y-76275000D02*
X116356250Y-76275000D01*
G75*
G02*
X116575000Y-76493750I0J-218750D01*
G01*
X116575000Y-76931250D01*
G75*
G02*
X116356250Y-77150000I-218750J0D01*
G01*
X115843750Y-77150000D01*
G75*
G02*
X115625000Y-76931250I0J218750D01*
G01*
X115625000Y-76493750D01*
G75*
G02*
X115843750Y-76275000I218750J0D01*
G01*
G37*
G36*
G01*
X131450000Y-116143750D02*
X131450000Y-116656250D01*
G75*
G02*
X131231250Y-116875000I-218750J0D01*
G01*
X130793750Y-116875000D01*
G75*
G02*
X130575000Y-116656250I0J218750D01*
G01*
X130575000Y-116143750D01*
G75*
G02*
X130793750Y-115925000I218750J0D01*
G01*
X131231250Y-115925000D01*
G75*
G02*
X131450000Y-116143750I0J-218750D01*
G01*
G37*
G36*
G01*
X133025000Y-116143750D02*
X133025000Y-116656250D01*
G75*
G02*
X132806250Y-116875000I-218750J0D01*
G01*
X132368750Y-116875000D01*
G75*
G02*
X132150000Y-116656250I0J218750D01*
G01*
X132150000Y-116143750D01*
G75*
G02*
X132368750Y-115925000I218750J0D01*
G01*
X132806250Y-115925000D01*
G75*
G02*
X133025000Y-116143750I0J-218750D01*
G01*
G37*
G36*
G01*
X111143750Y-105050000D02*
X112056250Y-105050000D01*
G75*
G02*
X112300000Y-105293750I0J-243750D01*
G01*
X112300000Y-105781250D01*
G75*
G02*
X112056250Y-106025000I-243750J0D01*
G01*
X111143750Y-106025000D01*
G75*
G02*
X110900000Y-105781250I0J243750D01*
G01*
X110900000Y-105293750D01*
G75*
G02*
X111143750Y-105050000I243750J0D01*
G01*
G37*
G36*
G01*
X111143750Y-103175000D02*
X112056250Y-103175000D01*
G75*
G02*
X112300000Y-103418750I0J-243750D01*
G01*
X112300000Y-103906250D01*
G75*
G02*
X112056250Y-104150000I-243750J0D01*
G01*
X111143750Y-104150000D01*
G75*
G02*
X110900000Y-103906250I0J243750D01*
G01*
X110900000Y-103418750D01*
G75*
G02*
X111143750Y-103175000I243750J0D01*
G01*
G37*
G36*
G01*
X108656250Y-122250000D02*
X107743750Y-122250000D01*
G75*
G02*
X107500000Y-122006250I0J243750D01*
G01*
X107500000Y-121518750D01*
G75*
G02*
X107743750Y-121275000I243750J0D01*
G01*
X108656250Y-121275000D01*
G75*
G02*
X108900000Y-121518750I0J-243750D01*
G01*
X108900000Y-122006250D01*
G75*
G02*
X108656250Y-122250000I-243750J0D01*
G01*
G37*
G36*
G01*
X108656250Y-124125000D02*
X107743750Y-124125000D01*
G75*
G02*
X107500000Y-123881250I0J243750D01*
G01*
X107500000Y-123393750D01*
G75*
G02*
X107743750Y-123150000I243750J0D01*
G01*
X108656250Y-123150000D01*
G75*
G02*
X108900000Y-123393750I0J-243750D01*
G01*
X108900000Y-123881250D01*
G75*
G02*
X108656250Y-124125000I-243750J0D01*
G01*
G37*
G36*
G01*
X132843750Y-122550000D02*
X133756250Y-122550000D01*
G75*
G02*
X134000000Y-122793750I0J-243750D01*
G01*
X134000000Y-123281250D01*
G75*
G02*
X133756250Y-123525000I-243750J0D01*
G01*
X132843750Y-123525000D01*
G75*
G02*
X132600000Y-123281250I0J243750D01*
G01*
X132600000Y-122793750D01*
G75*
G02*
X132843750Y-122550000I243750J0D01*
G01*
G37*
G36*
G01*
X132843750Y-120675000D02*
X133756250Y-120675000D01*
G75*
G02*
X134000000Y-120918750I0J-243750D01*
G01*
X134000000Y-121406250D01*
G75*
G02*
X133756250Y-121650000I-243750J0D01*
G01*
X132843750Y-121650000D01*
G75*
G02*
X132600000Y-121406250I0J243750D01*
G01*
X132600000Y-120918750D01*
G75*
G02*
X132843750Y-120675000I243750J0D01*
G01*
G37*
G36*
G01*
X139343750Y-123050000D02*
X140256250Y-123050000D01*
G75*
G02*
X140500000Y-123293750I0J-243750D01*
G01*
X140500000Y-123781250D01*
G75*
G02*
X140256250Y-124025000I-243750J0D01*
G01*
X139343750Y-124025000D01*
G75*
G02*
X139100000Y-123781250I0J243750D01*
G01*
X139100000Y-123293750D01*
G75*
G02*
X139343750Y-123050000I243750J0D01*
G01*
G37*
G36*
G01*
X139343750Y-121175000D02*
X140256250Y-121175000D01*
G75*
G02*
X140500000Y-121418750I0J-243750D01*
G01*
X140500000Y-121906250D01*
G75*
G02*
X140256250Y-122150000I-243750J0D01*
G01*
X139343750Y-122150000D01*
G75*
G02*
X139100000Y-121906250I0J243750D01*
G01*
X139100000Y-121418750D01*
G75*
G02*
X139343750Y-121175000I243750J0D01*
G01*
G37*
G36*
G01*
X122650000Y-120756250D02*
X122650000Y-119843750D01*
G75*
G02*
X122893750Y-119600000I243750J0D01*
G01*
X123381250Y-119600000D01*
G75*
G02*
X123625000Y-119843750I0J-243750D01*
G01*
X123625000Y-120756250D01*
G75*
G02*
X123381250Y-121000000I-243750J0D01*
G01*
X122893750Y-121000000D01*
G75*
G02*
X122650000Y-120756250I0J243750D01*
G01*
G37*
G36*
G01*
X120775000Y-120756250D02*
X120775000Y-119843750D01*
G75*
G02*
X121018750Y-119600000I243750J0D01*
G01*
X121506250Y-119600000D01*
G75*
G02*
X121750000Y-119843750I0J-243750D01*
G01*
X121750000Y-120756250D01*
G75*
G02*
X121506250Y-121000000I-243750J0D01*
G01*
X121018750Y-121000000D01*
G75*
G02*
X120775000Y-120756250I0J243750D01*
G01*
G37*
G36*
G01*
X114543750Y-77850000D02*
X115056250Y-77850000D01*
G75*
G02*
X115275000Y-78068750I0J-218750D01*
G01*
X115275000Y-78506250D01*
G75*
G02*
X115056250Y-78725000I-218750J0D01*
G01*
X114543750Y-78725000D01*
G75*
G02*
X114325000Y-78506250I0J218750D01*
G01*
X114325000Y-78068750D01*
G75*
G02*
X114543750Y-77850000I218750J0D01*
G01*
G37*
G36*
G01*
X114543750Y-76275000D02*
X115056250Y-76275000D01*
G75*
G02*
X115275000Y-76493750I0J-218750D01*
G01*
X115275000Y-76931250D01*
G75*
G02*
X115056250Y-77150000I-218750J0D01*
G01*
X114543750Y-77150000D01*
G75*
G02*
X114325000Y-76931250I0J218750D01*
G01*
X114325000Y-76493750D01*
G75*
G02*
X114543750Y-76275000I218750J0D01*
G01*
G37*
G36*
G01*
X140250000Y-117756250D02*
X140250000Y-117243750D01*
G75*
G02*
X140468750Y-117025000I218750J0D01*
G01*
X140906250Y-117025000D01*
G75*
G02*
X141125000Y-117243750I0J-218750D01*
G01*
X141125000Y-117756250D01*
G75*
G02*
X140906250Y-117975000I-218750J0D01*
G01*
X140468750Y-117975000D01*
G75*
G02*
X140250000Y-117756250I0J218750D01*
G01*
G37*
G36*
G01*
X138675000Y-117756250D02*
X138675000Y-117243750D01*
G75*
G02*
X138893750Y-117025000I218750J0D01*
G01*
X139331250Y-117025000D01*
G75*
G02*
X139550000Y-117243750I0J-218750D01*
G01*
X139550000Y-117756250D01*
G75*
G02*
X139331250Y-117975000I-218750J0D01*
G01*
X138893750Y-117975000D01*
G75*
G02*
X138675000Y-117756250I0J218750D01*
G01*
G37*
G36*
G01*
X138550000Y-64956250D02*
X138550000Y-64443750D01*
G75*
G02*
X138768750Y-64225000I218750J0D01*
G01*
X139206250Y-64225000D01*
G75*
G02*
X139425000Y-64443750I0J-218750D01*
G01*
X139425000Y-64956250D01*
G75*
G02*
X139206250Y-65175000I-218750J0D01*
G01*
X138768750Y-65175000D01*
G75*
G02*
X138550000Y-64956250I0J218750D01*
G01*
G37*
G36*
G01*
X136975000Y-64956250D02*
X136975000Y-64443750D01*
G75*
G02*
X137193750Y-64225000I218750J0D01*
G01*
X137631250Y-64225000D01*
G75*
G02*
X137850000Y-64443750I0J-218750D01*
G01*
X137850000Y-64956250D01*
G75*
G02*
X137631250Y-65175000I-218750J0D01*
G01*
X137193750Y-65175000D01*
G75*
G02*
X136975000Y-64956250I0J218750D01*
G01*
G37*
G36*
G01*
X136556250Y-47350000D02*
X136043750Y-47350000D01*
G75*
G02*
X135825000Y-47131250I0J218750D01*
G01*
X135825000Y-46693750D01*
G75*
G02*
X136043750Y-46475000I218750J0D01*
G01*
X136556250Y-46475000D01*
G75*
G02*
X136775000Y-46693750I0J-218750D01*
G01*
X136775000Y-47131250D01*
G75*
G02*
X136556250Y-47350000I-218750J0D01*
G01*
G37*
G36*
G01*
X136556250Y-48925000D02*
X136043750Y-48925000D01*
G75*
G02*
X135825000Y-48706250I0J218750D01*
G01*
X135825000Y-48268750D01*
G75*
G02*
X136043750Y-48050000I218750J0D01*
G01*
X136556250Y-48050000D01*
G75*
G02*
X136775000Y-48268750I0J-218750D01*
G01*
X136775000Y-48706250D01*
G75*
G02*
X136556250Y-48925000I-218750J0D01*
G01*
G37*
G36*
G01*
X138550000Y-60256250D02*
X138550000Y-59743750D01*
G75*
G02*
X138768750Y-59525000I218750J0D01*
G01*
X139206250Y-59525000D01*
G75*
G02*
X139425000Y-59743750I0J-218750D01*
G01*
X139425000Y-60256250D01*
G75*
G02*
X139206250Y-60475000I-218750J0D01*
G01*
X138768750Y-60475000D01*
G75*
G02*
X138550000Y-60256250I0J218750D01*
G01*
G37*
G36*
G01*
X136975000Y-60256250D02*
X136975000Y-59743750D01*
G75*
G02*
X137193750Y-59525000I218750J0D01*
G01*
X137631250Y-59525000D01*
G75*
G02*
X137850000Y-59743750I0J-218750D01*
G01*
X137850000Y-60256250D01*
G75*
G02*
X137631250Y-60475000I-218750J0D01*
G01*
X137193750Y-60475000D01*
G75*
G02*
X136975000Y-60256250I0J218750D01*
G01*
G37*
G36*
G01*
X140250000Y-119056250D02*
X140250000Y-118543750D01*
G75*
G02*
X140468750Y-118325000I218750J0D01*
G01*
X140906250Y-118325000D01*
G75*
G02*
X141125000Y-118543750I0J-218750D01*
G01*
X141125000Y-119056250D01*
G75*
G02*
X140906250Y-119275000I-218750J0D01*
G01*
X140468750Y-119275000D01*
G75*
G02*
X140250000Y-119056250I0J218750D01*
G01*
G37*
G36*
G01*
X138675000Y-119056250D02*
X138675000Y-118543750D01*
G75*
G02*
X138893750Y-118325000I218750J0D01*
G01*
X139331250Y-118325000D01*
G75*
G02*
X139550000Y-118543750I0J-218750D01*
G01*
X139550000Y-119056250D01*
G75*
G02*
X139331250Y-119275000I-218750J0D01*
G01*
X138893750Y-119275000D01*
G75*
G02*
X138675000Y-119056250I0J218750D01*
G01*
G37*
G36*
G01*
X137856250Y-47350000D02*
X137343750Y-47350000D01*
G75*
G02*
X137125000Y-47131250I0J218750D01*
G01*
X137125000Y-46693750D01*
G75*
G02*
X137343750Y-46475000I218750J0D01*
G01*
X137856250Y-46475000D01*
G75*
G02*
X138075000Y-46693750I0J-218750D01*
G01*
X138075000Y-47131250D01*
G75*
G02*
X137856250Y-47350000I-218750J0D01*
G01*
G37*
G36*
G01*
X137856250Y-48925000D02*
X137343750Y-48925000D01*
G75*
G02*
X137125000Y-48706250I0J218750D01*
G01*
X137125000Y-48268750D01*
G75*
G02*
X137343750Y-48050000I218750J0D01*
G01*
X137856250Y-48050000D01*
G75*
G02*
X138075000Y-48268750I0J-218750D01*
G01*
X138075000Y-48706250D01*
G75*
G02*
X137856250Y-48925000I-218750J0D01*
G01*
G37*
G36*
G01*
X135062500Y-64443750D02*
X135062500Y-64956250D01*
G75*
G02*
X134843750Y-65175000I-218750J0D01*
G01*
X134406250Y-65175000D01*
G75*
G02*
X134187500Y-64956250I0J218750D01*
G01*
X134187500Y-64443750D01*
G75*
G02*
X134406250Y-64225000I218750J0D01*
G01*
X134843750Y-64225000D01*
G75*
G02*
X135062500Y-64443750I0J-218750D01*
G01*
G37*
G36*
G01*
X136637500Y-64443750D02*
X136637500Y-64956250D01*
G75*
G02*
X136418750Y-65175000I-218750J0D01*
G01*
X135981250Y-65175000D01*
G75*
G02*
X135762500Y-64956250I0J218750D01*
G01*
X135762500Y-64443750D01*
G75*
G02*
X135981250Y-64225000I218750J0D01*
G01*
X136418750Y-64225000D01*
G75*
G02*
X136637500Y-64443750I0J-218750D01*
G01*
G37*
G36*
G01*
X137750000Y-116656250D02*
X137750000Y-116143750D01*
G75*
G02*
X137968750Y-115925000I218750J0D01*
G01*
X138406250Y-115925000D01*
G75*
G02*
X138625000Y-116143750I0J-218750D01*
G01*
X138625000Y-116656250D01*
G75*
G02*
X138406250Y-116875000I-218750J0D01*
G01*
X137968750Y-116875000D01*
G75*
G02*
X137750000Y-116656250I0J218750D01*
G01*
G37*
G36*
G01*
X136175000Y-116656250D02*
X136175000Y-116143750D01*
G75*
G02*
X136393750Y-115925000I218750J0D01*
G01*
X136831250Y-115925000D01*
G75*
G02*
X137050000Y-116143750I0J-218750D01*
G01*
X137050000Y-116656250D01*
G75*
G02*
X136831250Y-116875000I-218750J0D01*
G01*
X136393750Y-116875000D01*
G75*
G02*
X136175000Y-116656250I0J218750D01*
G01*
G37*
G36*
G01*
X143043750Y-120050000D02*
X143556250Y-120050000D01*
G75*
G02*
X143775000Y-120268750I0J-218750D01*
G01*
X143775000Y-120706250D01*
G75*
G02*
X143556250Y-120925000I-218750J0D01*
G01*
X143043750Y-120925000D01*
G75*
G02*
X142825000Y-120706250I0J218750D01*
G01*
X142825000Y-120268750D01*
G75*
G02*
X143043750Y-120050000I218750J0D01*
G01*
G37*
G36*
G01*
X143043750Y-118475000D02*
X143556250Y-118475000D01*
G75*
G02*
X143775000Y-118693750I0J-218750D01*
G01*
X143775000Y-119131250D01*
G75*
G02*
X143556250Y-119350000I-218750J0D01*
G01*
X143043750Y-119350000D01*
G75*
G02*
X142825000Y-119131250I0J218750D01*
G01*
X142825000Y-118693750D01*
G75*
G02*
X143043750Y-118475000I218750J0D01*
G01*
G37*
G36*
G01*
X116643750Y-127850000D02*
X117556250Y-127850000D01*
G75*
G02*
X117800000Y-128093750I0J-243750D01*
G01*
X117800000Y-128581250D01*
G75*
G02*
X117556250Y-128825000I-243750J0D01*
G01*
X116643750Y-128825000D01*
G75*
G02*
X116400000Y-128581250I0J243750D01*
G01*
X116400000Y-128093750D01*
G75*
G02*
X116643750Y-127850000I243750J0D01*
G01*
G37*
G36*
G01*
X116643750Y-125975000D02*
X117556250Y-125975000D01*
G75*
G02*
X117800000Y-126218750I0J-243750D01*
G01*
X117800000Y-126706250D01*
G75*
G02*
X117556250Y-126950000I-243750J0D01*
G01*
X116643750Y-126950000D01*
G75*
G02*
X116400000Y-126706250I0J243750D01*
G01*
X116400000Y-126218750D01*
G75*
G02*
X116643750Y-125975000I243750J0D01*
G01*
G37*
G36*
G01*
X115450000Y-95056250D02*
X115450000Y-94543750D01*
G75*
G02*
X115668750Y-94325000I218750J0D01*
G01*
X116106250Y-94325000D01*
G75*
G02*
X116325000Y-94543750I0J-218750D01*
G01*
X116325000Y-95056250D01*
G75*
G02*
X116106250Y-95275000I-218750J0D01*
G01*
X115668750Y-95275000D01*
G75*
G02*
X115450000Y-95056250I0J218750D01*
G01*
G37*
G36*
G01*
X113875000Y-95056250D02*
X113875000Y-94543750D01*
G75*
G02*
X114093750Y-94325000I218750J0D01*
G01*
X114531250Y-94325000D01*
G75*
G02*
X114750000Y-94543750I0J-218750D01*
G01*
X114750000Y-95056250D01*
G75*
G02*
X114531250Y-95275000I-218750J0D01*
G01*
X114093750Y-95275000D01*
G75*
G02*
X113875000Y-95056250I0J218750D01*
G01*
G37*
G36*
G01*
X113850000Y-104943750D02*
X113850000Y-105456250D01*
G75*
G02*
X113631250Y-105675000I-218750J0D01*
G01*
X113193750Y-105675000D01*
G75*
G02*
X112975000Y-105456250I0J218750D01*
G01*
X112975000Y-104943750D01*
G75*
G02*
X113193750Y-104725000I218750J0D01*
G01*
X113631250Y-104725000D01*
G75*
G02*
X113850000Y-104943750I0J-218750D01*
G01*
G37*
G36*
G01*
X115425000Y-104943750D02*
X115425000Y-105456250D01*
G75*
G02*
X115206250Y-105675000I-218750J0D01*
G01*
X114768750Y-105675000D01*
G75*
G02*
X114550000Y-105456250I0J218750D01*
G01*
X114550000Y-104943750D01*
G75*
G02*
X114768750Y-104725000I218750J0D01*
G01*
X115206250Y-104725000D01*
G75*
G02*
X115425000Y-104943750I0J-218750D01*
G01*
G37*
G36*
G01*
X114550000Y-104156250D02*
X114550000Y-103643750D01*
G75*
G02*
X114768750Y-103425000I218750J0D01*
G01*
X115206250Y-103425000D01*
G75*
G02*
X115425000Y-103643750I0J-218750D01*
G01*
X115425000Y-104156250D01*
G75*
G02*
X115206250Y-104375000I-218750J0D01*
G01*
X114768750Y-104375000D01*
G75*
G02*
X114550000Y-104156250I0J218750D01*
G01*
G37*
G36*
G01*
X112975000Y-104156250D02*
X112975000Y-103643750D01*
G75*
G02*
X113193750Y-103425000I218750J0D01*
G01*
X113631250Y-103425000D01*
G75*
G02*
X113850000Y-103643750I0J-218750D01*
G01*
X113850000Y-104156250D01*
G75*
G02*
X113631250Y-104375000I-218750J0D01*
G01*
X113193750Y-104375000D01*
G75*
G02*
X112975000Y-104156250I0J218750D01*
G01*
G37*
G36*
G01*
X116643750Y-131100000D02*
X117556250Y-131100000D01*
G75*
G02*
X117800000Y-131343750I0J-243750D01*
G01*
X117800000Y-131831250D01*
G75*
G02*
X117556250Y-132075000I-243750J0D01*
G01*
X116643750Y-132075000D01*
G75*
G02*
X116400000Y-131831250I0J243750D01*
G01*
X116400000Y-131343750D01*
G75*
G02*
X116643750Y-131100000I243750J0D01*
G01*
G37*
G36*
G01*
X116643750Y-129225000D02*
X117556250Y-129225000D01*
G75*
G02*
X117800000Y-129468750I0J-243750D01*
G01*
X117800000Y-129956250D01*
G75*
G02*
X117556250Y-130200000I-243750J0D01*
G01*
X116643750Y-130200000D01*
G75*
G02*
X116400000Y-129956250I0J243750D01*
G01*
X116400000Y-129468750D01*
G75*
G02*
X116643750Y-129225000I243750J0D01*
G01*
G37*
G36*
G01*
X120650000Y-109256250D02*
X120650000Y-108743750D01*
G75*
G02*
X120868750Y-108525000I218750J0D01*
G01*
X121306250Y-108525000D01*
G75*
G02*
X121525000Y-108743750I0J-218750D01*
G01*
X121525000Y-109256250D01*
G75*
G02*
X121306250Y-109475000I-218750J0D01*
G01*
X120868750Y-109475000D01*
G75*
G02*
X120650000Y-109256250I0J218750D01*
G01*
G37*
G36*
G01*
X119075000Y-109256250D02*
X119075000Y-108743750D01*
G75*
G02*
X119293750Y-108525000I218750J0D01*
G01*
X119731250Y-108525000D01*
G75*
G02*
X119950000Y-108743750I0J-218750D01*
G01*
X119950000Y-109256250D01*
G75*
G02*
X119731250Y-109475000I-218750J0D01*
G01*
X119293750Y-109475000D01*
G75*
G02*
X119075000Y-109256250I0J218750D01*
G01*
G37*
G36*
G01*
X113450000Y-109256250D02*
X113450000Y-108743750D01*
G75*
G02*
X113668750Y-108525000I218750J0D01*
G01*
X114106250Y-108525000D01*
G75*
G02*
X114325000Y-108743750I0J-218750D01*
G01*
X114325000Y-109256250D01*
G75*
G02*
X114106250Y-109475000I-218750J0D01*
G01*
X113668750Y-109475000D01*
G75*
G02*
X113450000Y-109256250I0J218750D01*
G01*
G37*
G36*
G01*
X111875000Y-109256250D02*
X111875000Y-108743750D01*
G75*
G02*
X112093750Y-108525000I218750J0D01*
G01*
X112531250Y-108525000D01*
G75*
G02*
X112750000Y-108743750I0J-218750D01*
G01*
X112750000Y-109256250D01*
G75*
G02*
X112531250Y-109475000I-218750J0D01*
G01*
X112093750Y-109475000D01*
G75*
G02*
X111875000Y-109256250I0J218750D01*
G01*
G37*
G36*
G01*
X118950000Y-104156250D02*
X118950000Y-103643750D01*
G75*
G02*
X119168750Y-103425000I218750J0D01*
G01*
X119606250Y-103425000D01*
G75*
G02*
X119825000Y-103643750I0J-218750D01*
G01*
X119825000Y-104156250D01*
G75*
G02*
X119606250Y-104375000I-218750J0D01*
G01*
X119168750Y-104375000D01*
G75*
G02*
X118950000Y-104156250I0J218750D01*
G01*
G37*
G36*
G01*
X117375000Y-104156250D02*
X117375000Y-103643750D01*
G75*
G02*
X117593750Y-103425000I218750J0D01*
G01*
X118031250Y-103425000D01*
G75*
G02*
X118250000Y-103643750I0J-218750D01*
G01*
X118250000Y-104156250D01*
G75*
G02*
X118031250Y-104375000I-218750J0D01*
G01*
X117593750Y-104375000D01*
G75*
G02*
X117375000Y-104156250I0J218750D01*
G01*
G37*
G36*
G01*
X112056250Y-97750000D02*
X111143750Y-97750000D01*
G75*
G02*
X110900000Y-97506250I0J243750D01*
G01*
X110900000Y-97018750D01*
G75*
G02*
X111143750Y-96775000I243750J0D01*
G01*
X112056250Y-96775000D01*
G75*
G02*
X112300000Y-97018750I0J-243750D01*
G01*
X112300000Y-97506250D01*
G75*
G02*
X112056250Y-97750000I-243750J0D01*
G01*
G37*
G36*
G01*
X112056250Y-99625000D02*
X111143750Y-99625000D01*
G75*
G02*
X110900000Y-99381250I0J243750D01*
G01*
X110900000Y-98893750D01*
G75*
G02*
X111143750Y-98650000I243750J0D01*
G01*
X112056250Y-98650000D01*
G75*
G02*
X112300000Y-98893750I0J-243750D01*
G01*
X112300000Y-99381250D01*
G75*
G02*
X112056250Y-99625000I-243750J0D01*
G01*
G37*
M02*
