G04 #@! TF.GenerationSoftware,KiCad,Pcbnew,(5.1.6-87-g1447494bc)*
G04 #@! TF.CreationDate,2022-08-29T16:49:27-05:00*
G04 #@! TF.ProjectId,sony-scopeman,736f6e79-2d73-4636-9f70-656d616e2e6b,rev?*
G04 #@! TF.SameCoordinates,Original*
G04 #@! TF.FileFunction,Legend,Bot*
G04 #@! TF.FilePolarity,Positive*
%FSLAX46Y46*%
G04 Gerber Fmt 4.6, Leading zero omitted, Abs format (unit mm)*
G04 Created by KiCad (PCBNEW (5.1.6-87-g1447494bc)) date 2022-08-29 16:49:27*
%MOMM*%
%LPD*%
G01*
G04 APERTURE LIST*
%ADD10C,0.150000*%
%ADD11C,0.120000*%
G04 APERTURE END LIST*
D10*
X141271047Y-44156380D02*
X141271047Y-44870666D01*
X141318666Y-45013523D01*
X141413904Y-45108761D01*
X141556761Y-45156380D01*
X141652000Y-45156380D01*
X140318666Y-45156380D02*
X140794857Y-45156380D01*
X140794857Y-44156380D01*
X139413904Y-45061142D02*
X139461523Y-45108761D01*
X139604380Y-45156380D01*
X139699619Y-45156380D01*
X139842476Y-45108761D01*
X139937714Y-45013523D01*
X139985333Y-44918285D01*
X140032952Y-44727809D01*
X140032952Y-44584952D01*
X139985333Y-44394476D01*
X139937714Y-44299238D01*
X139842476Y-44204000D01*
X139699619Y-44156380D01*
X139604380Y-44156380D01*
X139461523Y-44204000D01*
X139413904Y-44251619D01*
X138699619Y-44156380D02*
X138699619Y-44870666D01*
X138747238Y-45013523D01*
X138842476Y-45108761D01*
X138985333Y-45156380D01*
X139080571Y-45156380D01*
X137747238Y-45156380D02*
X138223428Y-45156380D01*
X138223428Y-44156380D01*
X136842476Y-45061142D02*
X136890095Y-45108761D01*
X137032952Y-45156380D01*
X137128190Y-45156380D01*
X137271047Y-45108761D01*
X137366285Y-45013523D01*
X137413904Y-44918285D01*
X137461523Y-44727809D01*
X137461523Y-44584952D01*
X137413904Y-44394476D01*
X137366285Y-44299238D01*
X137271047Y-44204000D01*
X137128190Y-44156380D01*
X137032952Y-44156380D01*
X136890095Y-44204000D01*
X136842476Y-44251619D01*
X136128190Y-44156380D02*
X136128190Y-44870666D01*
X136175809Y-45013523D01*
X136271047Y-45108761D01*
X136413904Y-45156380D01*
X136509142Y-45156380D01*
X135175809Y-45156380D02*
X135652000Y-45156380D01*
X135652000Y-44156380D01*
X134271047Y-45061142D02*
X134318666Y-45108761D01*
X134461523Y-45156380D01*
X134556761Y-45156380D01*
X134699619Y-45108761D01*
X134794857Y-45013523D01*
X134842476Y-44918285D01*
X134890095Y-44727809D01*
X134890095Y-44584952D01*
X134842476Y-44394476D01*
X134794857Y-44299238D01*
X134699619Y-44204000D01*
X134556761Y-44156380D01*
X134461523Y-44156380D01*
X134318666Y-44204000D01*
X134271047Y-44251619D01*
X133556761Y-44156380D02*
X133556761Y-44870666D01*
X133604380Y-45013523D01*
X133699619Y-45108761D01*
X133842476Y-45156380D01*
X133937714Y-45156380D01*
X132604380Y-45156380D02*
X133080571Y-45156380D01*
X133080571Y-44156380D01*
X131699619Y-45061142D02*
X131747238Y-45108761D01*
X131890095Y-45156380D01*
X131985333Y-45156380D01*
X132128190Y-45108761D01*
X132223428Y-45013523D01*
X132271047Y-44918285D01*
X132318666Y-44727809D01*
X132318666Y-44584952D01*
X132271047Y-44394476D01*
X132223428Y-44299238D01*
X132128190Y-44204000D01*
X131985333Y-44156380D01*
X131890095Y-44156380D01*
X131747238Y-44204000D01*
X131699619Y-44251619D01*
X131281333Y-109203571D02*
X131181333Y-109251190D01*
X131148000Y-109298809D01*
X131114666Y-109394047D01*
X131114666Y-109536904D01*
X131148000Y-109632142D01*
X131181333Y-109679761D01*
X131248000Y-109727380D01*
X131514666Y-109727380D01*
X131514666Y-108727380D01*
X131281333Y-108727380D01*
X131214666Y-108775000D01*
X131181333Y-108822619D01*
X131148000Y-108917857D01*
X131148000Y-109013095D01*
X131181333Y-109108333D01*
X131214666Y-109155952D01*
X131281333Y-109203571D01*
X131514666Y-109203571D01*
X130481333Y-109727380D02*
X130814666Y-109727380D01*
X130814666Y-108727380D01*
X130281333Y-109441666D02*
X129948000Y-109441666D01*
X130348000Y-109727380D02*
X130114666Y-108727380D01*
X129881333Y-109727380D01*
X129248000Y-109632142D02*
X129281333Y-109679761D01*
X129381333Y-109727380D01*
X129448000Y-109727380D01*
X129548000Y-109679761D01*
X129614666Y-109584523D01*
X129648000Y-109489285D01*
X129681333Y-109298809D01*
X129681333Y-109155952D01*
X129648000Y-108965476D01*
X129614666Y-108870238D01*
X129548000Y-108775000D01*
X129448000Y-108727380D01*
X129381333Y-108727380D01*
X129281333Y-108775000D01*
X129248000Y-108822619D01*
X128948000Y-109727380D02*
X128948000Y-108727380D01*
X128548000Y-109727380D02*
X128848000Y-109155952D01*
X128548000Y-108727380D02*
X128948000Y-109298809D01*
X131898000Y-111377380D02*
X131898000Y-110377380D01*
X131631333Y-110377380D01*
X131564666Y-110425000D01*
X131531333Y-110472619D01*
X131498000Y-110567857D01*
X131498000Y-110710714D01*
X131531333Y-110805952D01*
X131564666Y-110853571D01*
X131631333Y-110901190D01*
X131898000Y-110901190D01*
X131198000Y-110377380D02*
X131198000Y-111186904D01*
X131164666Y-111282142D01*
X131131333Y-111329761D01*
X131064666Y-111377380D01*
X130931333Y-111377380D01*
X130864666Y-111329761D01*
X130831333Y-111282142D01*
X130798000Y-111186904D01*
X130798000Y-110377380D01*
X130064666Y-111377380D02*
X130298000Y-110901190D01*
X130464666Y-111377380D02*
X130464666Y-110377380D01*
X130198000Y-110377380D01*
X130131333Y-110425000D01*
X130098000Y-110472619D01*
X130064666Y-110567857D01*
X130064666Y-110710714D01*
X130098000Y-110805952D01*
X130131333Y-110853571D01*
X130198000Y-110901190D01*
X130464666Y-110901190D01*
X129764666Y-111377380D02*
X129764666Y-110377380D01*
X129498000Y-110377380D01*
X129431333Y-110425000D01*
X129398000Y-110472619D01*
X129364666Y-110567857D01*
X129364666Y-110710714D01*
X129398000Y-110805952D01*
X129431333Y-110853571D01*
X129498000Y-110901190D01*
X129764666Y-110901190D01*
X128731333Y-111377380D02*
X129064666Y-111377380D01*
X129064666Y-110377380D01*
X128498000Y-110853571D02*
X128264666Y-110853571D01*
X128164666Y-111377380D02*
X128498000Y-111377380D01*
X128498000Y-110377380D01*
X128164666Y-110377380D01*
X139816666Y-69028571D02*
X139716666Y-69076190D01*
X139683333Y-69123809D01*
X139650000Y-69219047D01*
X139650000Y-69361904D01*
X139683333Y-69457142D01*
X139716666Y-69504761D01*
X139783333Y-69552380D01*
X140050000Y-69552380D01*
X140050000Y-68552380D01*
X139816666Y-68552380D01*
X139750000Y-68600000D01*
X139716666Y-68647619D01*
X139683333Y-68742857D01*
X139683333Y-68838095D01*
X139716666Y-68933333D01*
X139750000Y-68980952D01*
X139816666Y-69028571D01*
X140050000Y-69028571D01*
X139016666Y-69552380D02*
X139350000Y-69552380D01*
X139350000Y-68552380D01*
X138816666Y-69266666D02*
X138483333Y-69266666D01*
X138883333Y-69552380D02*
X138650000Y-68552380D01*
X138416666Y-69552380D01*
X137783333Y-69457142D02*
X137816666Y-69504761D01*
X137916666Y-69552380D01*
X137983333Y-69552380D01*
X138083333Y-69504761D01*
X138150000Y-69409523D01*
X138183333Y-69314285D01*
X138216666Y-69123809D01*
X138216666Y-68980952D01*
X138183333Y-68790476D01*
X138150000Y-68695238D01*
X138083333Y-68600000D01*
X137983333Y-68552380D01*
X137916666Y-68552380D01*
X137816666Y-68600000D01*
X137783333Y-68647619D01*
X137483333Y-69552380D02*
X137483333Y-68552380D01*
X137083333Y-69552380D02*
X137383333Y-68980952D01*
X137083333Y-68552380D02*
X137483333Y-69123809D01*
X136316666Y-68552380D02*
X136150000Y-69552380D01*
X136016666Y-68838095D01*
X135883333Y-69552380D01*
X135716666Y-68552380D01*
X135450000Y-69552380D02*
X135450000Y-68552380D01*
X135450000Y-69028571D02*
X135050000Y-69028571D01*
X135050000Y-69552380D02*
X135050000Y-68552380D01*
X134716666Y-69552380D02*
X134716666Y-68552380D01*
X134483333Y-68552380D02*
X134083333Y-68552380D01*
X134283333Y-69552380D02*
X134283333Y-68552380D01*
X133850000Y-69028571D02*
X133616666Y-69028571D01*
X133516666Y-69552380D02*
X133850000Y-69552380D01*
X133850000Y-68552380D01*
X133516666Y-68552380D01*
X115133333Y-85976190D02*
X115133333Y-86452380D01*
X115366666Y-85452380D02*
X115133333Y-85976190D01*
X114900000Y-85452380D01*
X114666666Y-85928571D02*
X114433333Y-85928571D01*
X114333333Y-86452380D02*
X114666666Y-86452380D01*
X114666666Y-85452380D01*
X114333333Y-85452380D01*
X113700000Y-86452380D02*
X114033333Y-86452380D01*
X114033333Y-85452380D01*
X113133333Y-86452380D02*
X113466666Y-86452380D01*
X113466666Y-85452380D01*
X112766666Y-85452380D02*
X112633333Y-85452380D01*
X112566666Y-85500000D01*
X112500000Y-85595238D01*
X112466666Y-85785714D01*
X112466666Y-86119047D01*
X112500000Y-86309523D01*
X112566666Y-86404761D01*
X112633333Y-86452380D01*
X112766666Y-86452380D01*
X112833333Y-86404761D01*
X112900000Y-86309523D01*
X112933333Y-86119047D01*
X112933333Y-85785714D01*
X112900000Y-85595238D01*
X112833333Y-85500000D01*
X112766666Y-85452380D01*
X112233333Y-85452380D02*
X112066666Y-86452380D01*
X111933333Y-85738095D01*
X111800000Y-86452380D01*
X111633333Y-85452380D01*
X110600000Y-85928571D02*
X110500000Y-85976190D01*
X110466666Y-86023809D01*
X110433333Y-86119047D01*
X110433333Y-86261904D01*
X110466666Y-86357142D01*
X110500000Y-86404761D01*
X110566666Y-86452380D01*
X110833333Y-86452380D01*
X110833333Y-85452380D01*
X110600000Y-85452380D01*
X110533333Y-85500000D01*
X110500000Y-85547619D01*
X110466666Y-85642857D01*
X110466666Y-85738095D01*
X110500000Y-85833333D01*
X110533333Y-85880952D01*
X110600000Y-85928571D01*
X110833333Y-85928571D01*
X109800000Y-86452380D02*
X110133333Y-86452380D01*
X110133333Y-85452380D01*
X109566666Y-85452380D02*
X109566666Y-86261904D01*
X109533333Y-86357142D01*
X109500000Y-86404761D01*
X109433333Y-86452380D01*
X109300000Y-86452380D01*
X109233333Y-86404761D01*
X109200000Y-86357142D01*
X109166666Y-86261904D01*
X109166666Y-85452380D01*
X108833333Y-85928571D02*
X108600000Y-85928571D01*
X108500000Y-86452380D02*
X108833333Y-86452380D01*
X108833333Y-85452380D01*
X108500000Y-85452380D01*
X121366666Y-140228571D02*
X121266666Y-140276190D01*
X121233333Y-140323809D01*
X121200000Y-140419047D01*
X121200000Y-140561904D01*
X121233333Y-140657142D01*
X121266666Y-140704761D01*
X121333333Y-140752380D01*
X121600000Y-140752380D01*
X121600000Y-139752380D01*
X121366666Y-139752380D01*
X121300000Y-139800000D01*
X121266666Y-139847619D01*
X121233333Y-139942857D01*
X121233333Y-140038095D01*
X121266666Y-140133333D01*
X121300000Y-140180952D01*
X121366666Y-140228571D01*
X121600000Y-140228571D01*
X120566666Y-140752380D02*
X120900000Y-140752380D01*
X120900000Y-139752380D01*
X120333333Y-139752380D02*
X120333333Y-140561904D01*
X120300000Y-140657142D01*
X120266666Y-140704761D01*
X120200000Y-140752380D01*
X120066666Y-140752380D01*
X120000000Y-140704761D01*
X119966666Y-140657142D01*
X119933333Y-140561904D01*
X119933333Y-139752380D01*
X119600000Y-140228571D02*
X119366666Y-140228571D01*
X119266666Y-140752380D02*
X119600000Y-140752380D01*
X119600000Y-139752380D01*
X119266666Y-139752380D01*
X118033333Y-140752380D02*
X118266666Y-140276190D01*
X118433333Y-140752380D02*
X118433333Y-139752380D01*
X118166666Y-139752380D01*
X118100000Y-139800000D01*
X118066666Y-139847619D01*
X118033333Y-139942857D01*
X118033333Y-140085714D01*
X118066666Y-140180952D01*
X118100000Y-140228571D01*
X118166666Y-140276190D01*
X118433333Y-140276190D01*
X117733333Y-140228571D02*
X117500000Y-140228571D01*
X117400000Y-140752380D02*
X117733333Y-140752380D01*
X117733333Y-139752380D01*
X117400000Y-139752380D01*
X117100000Y-140752380D02*
X117100000Y-139752380D01*
X116933333Y-139752380D01*
X116833333Y-139800000D01*
X116766666Y-139895238D01*
X116733333Y-139990476D01*
X116700000Y-140180952D01*
X116700000Y-140323809D01*
X116733333Y-140514285D01*
X116766666Y-140609523D01*
X116833333Y-140704761D01*
X116933333Y-140752380D01*
X117100000Y-140752380D01*
X114333333Y-139752380D02*
X114166666Y-140752380D01*
X114033333Y-140038095D01*
X113900000Y-140752380D01*
X113733333Y-139752380D01*
X113466666Y-140752380D02*
X113466666Y-139752380D01*
X113466666Y-140228571D02*
X113066666Y-140228571D01*
X113066666Y-140752380D02*
X113066666Y-139752380D01*
X112733333Y-140752380D02*
X112733333Y-139752380D01*
X112500000Y-139752380D02*
X112100000Y-139752380D01*
X112300000Y-140752380D02*
X112300000Y-139752380D01*
X111866666Y-140228571D02*
X111633333Y-140228571D01*
X111533333Y-140752380D02*
X111866666Y-140752380D01*
X111866666Y-139752380D01*
X111533333Y-139752380D01*
X110700000Y-140752380D02*
X110700000Y-139752380D01*
X110433333Y-139752380D01*
X110366666Y-139800000D01*
X110333333Y-139847619D01*
X110300000Y-139942857D01*
X110300000Y-140085714D01*
X110333333Y-140180952D01*
X110366666Y-140228571D01*
X110433333Y-140276190D01*
X110700000Y-140276190D01*
X110000000Y-139752380D02*
X110000000Y-140561904D01*
X109966666Y-140657142D01*
X109933333Y-140704761D01*
X109866666Y-140752380D01*
X109733333Y-140752380D01*
X109666666Y-140704761D01*
X109633333Y-140657142D01*
X109600000Y-140561904D01*
X109600000Y-139752380D01*
X108866666Y-140752380D02*
X109100000Y-140276190D01*
X109266666Y-140752380D02*
X109266666Y-139752380D01*
X109000000Y-139752380D01*
X108933333Y-139800000D01*
X108900000Y-139847619D01*
X108866666Y-139942857D01*
X108866666Y-140085714D01*
X108900000Y-140180952D01*
X108933333Y-140228571D01*
X109000000Y-140276190D01*
X109266666Y-140276190D01*
X108566666Y-140752380D02*
X108566666Y-139752380D01*
X108300000Y-139752380D01*
X108233333Y-139800000D01*
X108200000Y-139847619D01*
X108166666Y-139942857D01*
X108166666Y-140085714D01*
X108200000Y-140180952D01*
X108233333Y-140228571D01*
X108300000Y-140276190D01*
X108566666Y-140276190D01*
X107533333Y-140752380D02*
X107866666Y-140752380D01*
X107866666Y-139752380D01*
X107300000Y-140228571D02*
X107066666Y-140228571D01*
X106966666Y-140752380D02*
X107300000Y-140752380D01*
X107300000Y-139752380D01*
X106966666Y-139752380D01*
D11*
X117000000Y-138050000D02*
X117000000Y-136950000D01*
X117000000Y-136950000D02*
X117300000Y-137250000D01*
X117000000Y-136950000D02*
X116700000Y-137250000D01*
X150929289Y-77479289D02*
X151353553Y-77479289D01*
X150929289Y-77479289D02*
X150929289Y-77903553D01*
X151707107Y-78257107D02*
X150929289Y-77479289D01*
M02*
