G04 #@! TF.GenerationSoftware,KiCad,Pcbnew,(5.1.6-87-g1447494bc)*
G04 #@! TF.CreationDate,2022-08-29T16:49:30-05:00*
G04 #@! TF.ProjectId,sony-scopeman,736f6e79-2d73-4636-9f70-656d616e2e6b,rev?*
G04 #@! TF.SameCoordinates,Original*
G04 #@! TF.FileFunction,Soldermask,Bot*
G04 #@! TF.FilePolarity,Negative*
%FSLAX46Y46*%
G04 Gerber Fmt 4.6, Leading zero omitted, Abs format (unit mm)*
G04 Created by KiCad (PCBNEW (5.1.6-87-g1447494bc)) date 2022-08-29 16:49:30*
%MOMM*%
%LPD*%
G01*
G04 APERTURE LIST*
%ADD10C,2.442000*%
%ADD11O,1.802000X1.802000*%
%ADD12C,0.902000*%
%ADD13C,0.702000*%
%ADD14O,1.802000X1.002000*%
%ADD15O,2.102000X1.002000*%
%ADD16C,1.802000*%
%ADD17C,2.102000*%
%ADD18C,1.602000*%
%ADD19C,0.100000*%
G04 APERTURE END LIST*
D10*
X106200000Y-107600000D03*
X102400000Y-105100000D03*
X106200000Y-102600000D03*
X106200000Y-119300000D03*
X102400000Y-116800000D03*
X106200000Y-114300000D03*
D11*
X122400000Y-113740000D03*
G36*
G01*
X121499000Y-112050000D02*
X121499000Y-110350000D01*
G75*
G02*
X121550000Y-110299000I51000J0D01*
G01*
X123250000Y-110299000D01*
G75*
G02*
X123301000Y-110350000I0J-51000D01*
G01*
X123301000Y-112050000D01*
G75*
G02*
X123250000Y-112101000I-51000J0D01*
G01*
X121550000Y-112101000D01*
G75*
G02*
X121499000Y-112050000I0J51000D01*
G01*
G37*
X126500000Y-113740000D03*
X126500000Y-111200000D03*
G36*
G01*
X125599000Y-109510000D02*
X125599000Y-107810000D01*
G75*
G02*
X125650000Y-107759000I51000J0D01*
G01*
X127350000Y-107759000D01*
G75*
G02*
X127401000Y-107810000I0J-51000D01*
G01*
X127401000Y-109510000D01*
G75*
G02*
X127350000Y-109561000I-51000J0D01*
G01*
X125650000Y-109561000D01*
G75*
G02*
X125599000Y-109510000I0J51000D01*
G01*
G37*
X112840000Y-83800000D03*
G36*
G01*
X111150000Y-84701000D02*
X109450000Y-84701000D01*
G75*
G02*
X109399000Y-84650000I0J51000D01*
G01*
X109399000Y-82950000D01*
G75*
G02*
X109450000Y-82899000I51000J0D01*
G01*
X111150000Y-82899000D01*
G75*
G02*
X111201000Y-82950000I0J-51000D01*
G01*
X111201000Y-84650000D01*
G75*
G02*
X111150000Y-84701000I-51000J0D01*
G01*
G37*
X138040000Y-67000000D03*
G36*
G01*
X136350000Y-67901000D02*
X134650000Y-67901000D01*
G75*
G02*
X134599000Y-67850000I0J51000D01*
G01*
X134599000Y-66150000D01*
G75*
G02*
X134650000Y-66099000I51000J0D01*
G01*
X136350000Y-66099000D01*
G75*
G02*
X136401000Y-66150000I0J-51000D01*
G01*
X136401000Y-67850000D01*
G75*
G02*
X136350000Y-67901000I-51000J0D01*
G01*
G37*
X120140000Y-142350000D03*
G36*
G01*
X118450000Y-143251000D02*
X116750000Y-143251000D01*
G75*
G02*
X116699000Y-143200000I0J51000D01*
G01*
X116699000Y-141500000D01*
G75*
G02*
X116750000Y-141449000I51000J0D01*
G01*
X118450000Y-141449000D01*
G75*
G02*
X118501000Y-141500000I0J-51000D01*
G01*
X118501000Y-143200000D01*
G75*
G02*
X118450000Y-143251000I-51000J0D01*
G01*
G37*
X118200000Y-113740000D03*
G36*
G01*
X117299000Y-112050000D02*
X117299000Y-110350000D01*
G75*
G02*
X117350000Y-110299000I51000J0D01*
G01*
X119050000Y-110299000D01*
G75*
G02*
X119101000Y-110350000I0J-51000D01*
G01*
X119101000Y-112050000D01*
G75*
G02*
X119050000Y-112101000I-51000J0D01*
G01*
X117350000Y-112101000D01*
G75*
G02*
X117299000Y-112050000I0J51000D01*
G01*
G37*
X112400000Y-142350000D03*
G36*
G01*
X110710000Y-143251000D02*
X109010000Y-143251000D01*
G75*
G02*
X108959000Y-143200000I0J51000D01*
G01*
X108959000Y-141500000D01*
G75*
G02*
X109010000Y-141449000I51000J0D01*
G01*
X110710000Y-141449000D01*
G75*
G02*
X110761000Y-141500000I0J-51000D01*
G01*
X110761000Y-143200000D01*
G75*
G02*
X110710000Y-143251000I-51000J0D01*
G01*
G37*
X115200000Y-113740000D03*
G36*
G01*
X114299000Y-112050000D02*
X114299000Y-110350000D01*
G75*
G02*
X114350000Y-110299000I51000J0D01*
G01*
X116050000Y-110299000D01*
G75*
G02*
X116101000Y-110350000I0J-51000D01*
G01*
X116101000Y-112050000D01*
G75*
G02*
X116050000Y-112101000I-51000J0D01*
G01*
X114350000Y-112101000D01*
G75*
G02*
X114299000Y-112050000I0J51000D01*
G01*
G37*
D12*
X113420000Y-67650000D03*
X114420000Y-67650000D03*
X115420000Y-67650000D03*
X116420000Y-67650000D03*
X117420000Y-67650000D03*
X117420000Y-66650000D03*
X116420000Y-66650000D03*
X115420000Y-66650000D03*
X114420000Y-66650000D03*
X113420000Y-66650000D03*
X113420000Y-64650000D03*
X114420000Y-64650000D03*
X115420000Y-64650000D03*
X116420000Y-64650000D03*
X117420000Y-64650000D03*
X117420000Y-65650000D03*
X116420000Y-65650000D03*
X115420000Y-65650000D03*
X114420000Y-65650000D03*
X113420000Y-65650000D03*
X117420000Y-63650000D03*
X116420000Y-63650000D03*
X115420000Y-63650000D03*
X114420000Y-63650000D03*
X113420000Y-63650000D03*
D13*
X148750000Y-111540000D03*
X148750000Y-105760000D03*
D14*
X152440000Y-104330000D03*
X152440000Y-112970000D03*
D15*
X148270000Y-104330000D03*
X148270000Y-112970000D03*
D16*
X130000000Y-93550000D03*
X132000000Y-93550000D03*
X134000000Y-93550000D03*
X136000000Y-93550000D03*
X138000000Y-93550000D03*
X140000000Y-93550000D03*
X132000000Y-77050000D03*
X138000000Y-77050000D03*
D17*
X146400001Y-45500000D03*
X146400001Y-52000000D03*
G36*
G01*
X152050501Y-44051000D02*
X149749501Y-44051000D01*
G75*
G02*
X149349001Y-43650500I0J400500D01*
G01*
X149349001Y-42849500D01*
G75*
G02*
X149749501Y-42449000I400500J0D01*
G01*
X152050501Y-42449000D01*
G75*
G02*
X152451001Y-42849500I0J-400500D01*
G01*
X152451001Y-43650500D01*
G75*
G02*
X152050501Y-44051000I-400500J0D01*
G01*
G37*
G36*
G01*
X152050501Y-47051000D02*
X149749501Y-47051000D01*
G75*
G02*
X149349001Y-46650500I0J400500D01*
G01*
X149349001Y-45849500D01*
G75*
G02*
X149749501Y-45449000I400500J0D01*
G01*
X152050501Y-45449000D01*
G75*
G02*
X152451001Y-45849500I0J-400500D01*
G01*
X152451001Y-46650500D01*
G75*
G02*
X152050501Y-47051000I-400500J0D01*
G01*
G37*
G36*
G01*
X149249001Y-47000000D02*
X149249001Y-42500000D01*
G75*
G02*
X149300001Y-42449000I51000J0D01*
G01*
X150300001Y-42449000D01*
G75*
G02*
X150351001Y-42500000I0J-51000D01*
G01*
X150351001Y-47000000D01*
G75*
G02*
X150300001Y-47051000I-51000J0D01*
G01*
X149300001Y-47051000D01*
G75*
G02*
X149249001Y-47000000I0J51000D01*
G01*
G37*
G36*
G01*
X149249001Y-55000000D02*
X149249001Y-50500000D01*
G75*
G02*
X149300001Y-50449000I51000J0D01*
G01*
X150300001Y-50449000D01*
G75*
G02*
X150351001Y-50500000I0J-51000D01*
G01*
X150351001Y-55000000D01*
G75*
G02*
X150300001Y-55051000I-51000J0D01*
G01*
X149300001Y-55051000D01*
G75*
G02*
X149249001Y-55000000I0J51000D01*
G01*
G37*
G36*
G01*
X152050501Y-52051000D02*
X149749501Y-52051000D01*
G75*
G02*
X149349001Y-51650500I0J400500D01*
G01*
X149349001Y-50849500D01*
G75*
G02*
X149749501Y-50449000I400500J0D01*
G01*
X152050501Y-50449000D01*
G75*
G02*
X152451001Y-50849500I0J-400500D01*
G01*
X152451001Y-51650500D01*
G75*
G02*
X152050501Y-52051000I-400500J0D01*
G01*
G37*
G36*
G01*
X152050501Y-55051000D02*
X149749501Y-55051000D01*
G75*
G02*
X149349001Y-54650500I0J400500D01*
G01*
X149349001Y-53849500D01*
G75*
G02*
X149749501Y-53449000I400500J0D01*
G01*
X152050501Y-53449000D01*
G75*
G02*
X152451001Y-53849500I0J-400500D01*
G01*
X152451001Y-54650500D01*
G75*
G02*
X152050501Y-55051000I-400500J0D01*
G01*
G37*
X140900000Y-74050000D03*
X146900000Y-61050000D03*
D18*
X145150000Y-71550000D03*
X142650000Y-71550000D03*
X142650000Y-67550000D03*
X145150000Y-67550000D03*
X142650000Y-65550000D03*
X145150000Y-65550000D03*
X142650000Y-63550000D03*
X145150000Y-63550000D03*
D19*
G36*
X137122277Y-93372453D02*
G01*
X137122779Y-93374210D01*
X137105339Y-93461886D01*
X137105339Y-93638114D01*
X137122779Y-93725790D01*
X137122136Y-93727684D01*
X137120174Y-93728074D01*
X137118903Y-93726761D01*
X137113627Y-93709369D01*
X137102262Y-93688105D01*
X137086967Y-93669468D01*
X137068330Y-93654173D01*
X137047066Y-93642808D01*
X137023991Y-93635808D01*
X137000000Y-93633445D01*
X136976009Y-93635808D01*
X136952934Y-93642808D01*
X136931670Y-93654173D01*
X136913033Y-93669468D01*
X136897738Y-93688105D01*
X136886373Y-93709369D01*
X136881097Y-93726761D01*
X136879637Y-93728128D01*
X136877723Y-93727547D01*
X136877221Y-93725790D01*
X136894661Y-93638114D01*
X136894661Y-93461886D01*
X136877221Y-93374210D01*
X136877864Y-93372316D01*
X136879826Y-93371926D01*
X136881097Y-93373239D01*
X136886373Y-93390631D01*
X136897738Y-93411895D01*
X136913033Y-93430532D01*
X136931670Y-93445827D01*
X136952934Y-93457192D01*
X136976009Y-93464192D01*
X137000000Y-93466555D01*
X137023991Y-93464192D01*
X137047066Y-93457192D01*
X137068330Y-93445827D01*
X137086967Y-93430532D01*
X137102262Y-93411895D01*
X137113627Y-93390631D01*
X137118903Y-93373239D01*
X137120363Y-93371872D01*
X137122277Y-93372453D01*
G37*
G36*
X133122277Y-93372453D02*
G01*
X133122779Y-93374210D01*
X133105339Y-93461886D01*
X133105339Y-93638114D01*
X133122779Y-93725790D01*
X133122136Y-93727684D01*
X133120174Y-93728074D01*
X133118903Y-93726761D01*
X133113627Y-93709369D01*
X133102262Y-93688105D01*
X133086967Y-93669468D01*
X133068330Y-93654173D01*
X133047066Y-93642808D01*
X133023991Y-93635808D01*
X133000000Y-93633445D01*
X132976009Y-93635808D01*
X132952934Y-93642808D01*
X132931670Y-93654173D01*
X132913033Y-93669468D01*
X132897738Y-93688105D01*
X132886373Y-93709369D01*
X132881097Y-93726761D01*
X132879637Y-93728128D01*
X132877723Y-93727547D01*
X132877221Y-93725790D01*
X132894661Y-93638114D01*
X132894661Y-93461886D01*
X132877221Y-93374210D01*
X132877864Y-93372316D01*
X132879826Y-93371926D01*
X132881097Y-93373239D01*
X132886373Y-93390631D01*
X132897738Y-93411895D01*
X132913033Y-93430532D01*
X132931670Y-93445827D01*
X132952934Y-93457192D01*
X132976009Y-93464192D01*
X133000000Y-93466555D01*
X133023991Y-93464192D01*
X133047066Y-93457192D01*
X133068330Y-93445827D01*
X133086967Y-93430532D01*
X133102262Y-93411895D01*
X133113627Y-93390631D01*
X133118903Y-93373239D01*
X133120363Y-93371872D01*
X133122277Y-93372453D01*
G37*
G36*
X135122277Y-93372453D02*
G01*
X135122779Y-93374210D01*
X135105339Y-93461886D01*
X135105339Y-93638114D01*
X135122779Y-93725790D01*
X135122136Y-93727684D01*
X135120174Y-93728074D01*
X135118903Y-93726761D01*
X135113627Y-93709369D01*
X135102262Y-93688105D01*
X135086967Y-93669468D01*
X135068330Y-93654173D01*
X135047066Y-93642808D01*
X135023991Y-93635808D01*
X135000000Y-93633445D01*
X134976009Y-93635808D01*
X134952934Y-93642808D01*
X134931670Y-93654173D01*
X134913033Y-93669468D01*
X134897738Y-93688105D01*
X134886373Y-93709369D01*
X134881097Y-93726761D01*
X134879637Y-93728128D01*
X134877723Y-93727547D01*
X134877221Y-93725790D01*
X134894661Y-93638114D01*
X134894661Y-93461886D01*
X134877221Y-93374210D01*
X134877864Y-93372316D01*
X134879826Y-93371926D01*
X134881097Y-93373239D01*
X134886373Y-93390631D01*
X134897738Y-93411895D01*
X134913033Y-93430532D01*
X134931670Y-93445827D01*
X134952934Y-93457192D01*
X134976009Y-93464192D01*
X135000000Y-93466555D01*
X135023991Y-93464192D01*
X135047066Y-93457192D01*
X135068330Y-93445827D01*
X135086967Y-93430532D01*
X135102262Y-93411895D01*
X135113627Y-93390631D01*
X135118903Y-93373239D01*
X135120363Y-93371872D01*
X135122277Y-93372453D01*
G37*
G36*
X139122277Y-93372453D02*
G01*
X139122779Y-93374210D01*
X139105339Y-93461886D01*
X139105339Y-93638114D01*
X139122779Y-93725790D01*
X139122136Y-93727684D01*
X139120174Y-93728074D01*
X139118903Y-93726761D01*
X139113627Y-93709369D01*
X139102262Y-93688105D01*
X139086967Y-93669468D01*
X139068330Y-93654173D01*
X139047066Y-93642808D01*
X139023991Y-93635808D01*
X139000000Y-93633445D01*
X138976009Y-93635808D01*
X138952934Y-93642808D01*
X138931670Y-93654173D01*
X138913033Y-93669468D01*
X138897738Y-93688105D01*
X138886373Y-93709369D01*
X138881097Y-93726761D01*
X138879637Y-93728128D01*
X138877723Y-93727547D01*
X138877221Y-93725790D01*
X138894661Y-93638114D01*
X138894661Y-93461886D01*
X138877221Y-93374210D01*
X138877864Y-93372316D01*
X138879826Y-93371926D01*
X138881097Y-93373239D01*
X138886373Y-93390631D01*
X138897738Y-93411895D01*
X138913033Y-93430532D01*
X138931670Y-93445827D01*
X138952934Y-93457192D01*
X138976009Y-93464192D01*
X139000000Y-93466555D01*
X139023991Y-93464192D01*
X139047066Y-93457192D01*
X139068330Y-93445827D01*
X139086967Y-93430532D01*
X139102262Y-93411895D01*
X139113627Y-93390631D01*
X139118903Y-93373239D01*
X139120363Y-93371872D01*
X139122277Y-93372453D01*
G37*
G36*
X131122277Y-93372453D02*
G01*
X131122779Y-93374210D01*
X131105339Y-93461886D01*
X131105339Y-93638114D01*
X131122779Y-93725790D01*
X131122136Y-93727684D01*
X131120174Y-93728074D01*
X131118903Y-93726761D01*
X131113627Y-93709369D01*
X131102262Y-93688105D01*
X131086967Y-93669468D01*
X131068330Y-93654173D01*
X131047066Y-93642808D01*
X131023991Y-93635808D01*
X131000000Y-93633445D01*
X130976009Y-93635808D01*
X130952934Y-93642808D01*
X130931670Y-93654173D01*
X130913033Y-93669468D01*
X130897738Y-93688105D01*
X130886373Y-93709369D01*
X130881097Y-93726761D01*
X130879637Y-93728128D01*
X130877723Y-93727547D01*
X130877221Y-93725790D01*
X130894661Y-93638114D01*
X130894661Y-93461886D01*
X130877221Y-93374210D01*
X130877864Y-93372316D01*
X130879826Y-93371926D01*
X130881097Y-93373239D01*
X130886373Y-93390631D01*
X130897738Y-93411895D01*
X130913033Y-93430532D01*
X130931670Y-93445827D01*
X130952934Y-93457192D01*
X130976009Y-93464192D01*
X131000000Y-93466555D01*
X131023991Y-93464192D01*
X131047066Y-93457192D01*
X131068330Y-93445827D01*
X131086967Y-93430532D01*
X131102262Y-93411895D01*
X131113627Y-93390631D01*
X131118903Y-93373239D01*
X131120363Y-93371872D01*
X131122277Y-93372453D01*
G37*
G36*
X114819807Y-67437374D02*
G01*
X114833034Y-67453491D01*
X114851671Y-67468786D01*
X114872934Y-67480151D01*
X114896009Y-67487151D01*
X114920000Y-67489514D01*
X114943992Y-67487151D01*
X114967066Y-67480151D01*
X114988330Y-67468786D01*
X115006967Y-67453490D01*
X115020193Y-67437374D01*
X115022065Y-67436670D01*
X115023611Y-67437939D01*
X115023587Y-67439408D01*
X114990344Y-67519664D01*
X114973172Y-67605993D01*
X114973172Y-67694007D01*
X114990344Y-67780336D01*
X115023587Y-67860592D01*
X115023326Y-67862575D01*
X115021478Y-67863340D01*
X115020193Y-67862626D01*
X115006966Y-67846509D01*
X114988329Y-67831214D01*
X114967066Y-67819849D01*
X114943991Y-67812849D01*
X114920000Y-67810486D01*
X114896008Y-67812849D01*
X114872934Y-67819849D01*
X114851670Y-67831214D01*
X114833033Y-67846510D01*
X114819807Y-67862626D01*
X114817935Y-67863330D01*
X114816389Y-67862061D01*
X114816413Y-67860592D01*
X114849656Y-67780336D01*
X114866828Y-67694007D01*
X114866828Y-67605993D01*
X114849656Y-67519664D01*
X114816413Y-67439408D01*
X114816674Y-67437425D01*
X114818522Y-67436660D01*
X114819807Y-67437374D01*
G37*
G36*
X115819807Y-67437374D02*
G01*
X115833034Y-67453491D01*
X115851671Y-67468786D01*
X115872934Y-67480151D01*
X115896009Y-67487151D01*
X115920000Y-67489514D01*
X115943992Y-67487151D01*
X115967066Y-67480151D01*
X115988330Y-67468786D01*
X116006967Y-67453490D01*
X116020193Y-67437374D01*
X116022065Y-67436670D01*
X116023611Y-67437939D01*
X116023587Y-67439408D01*
X115990344Y-67519664D01*
X115973172Y-67605993D01*
X115973172Y-67694007D01*
X115990344Y-67780336D01*
X116023587Y-67860592D01*
X116023326Y-67862575D01*
X116021478Y-67863340D01*
X116020193Y-67862626D01*
X116006966Y-67846509D01*
X115988329Y-67831214D01*
X115967066Y-67819849D01*
X115943991Y-67812849D01*
X115920000Y-67810486D01*
X115896008Y-67812849D01*
X115872934Y-67819849D01*
X115851670Y-67831214D01*
X115833033Y-67846510D01*
X115819807Y-67862626D01*
X115817935Y-67863330D01*
X115816389Y-67862061D01*
X115816413Y-67860592D01*
X115849656Y-67780336D01*
X115866828Y-67694007D01*
X115866828Y-67605993D01*
X115849656Y-67519664D01*
X115816413Y-67439408D01*
X115816674Y-67437425D01*
X115818522Y-67436660D01*
X115819807Y-67437374D01*
G37*
G36*
X113819807Y-67437374D02*
G01*
X113833034Y-67453491D01*
X113851671Y-67468786D01*
X113872934Y-67480151D01*
X113896009Y-67487151D01*
X113920000Y-67489514D01*
X113943992Y-67487151D01*
X113967066Y-67480151D01*
X113988330Y-67468786D01*
X114006967Y-67453490D01*
X114020193Y-67437374D01*
X114022065Y-67436670D01*
X114023611Y-67437939D01*
X114023587Y-67439408D01*
X113990344Y-67519664D01*
X113973172Y-67605993D01*
X113973172Y-67694007D01*
X113990344Y-67780336D01*
X114023587Y-67860592D01*
X114023326Y-67862575D01*
X114021478Y-67863340D01*
X114020193Y-67862626D01*
X114006966Y-67846509D01*
X113988329Y-67831214D01*
X113967066Y-67819849D01*
X113943991Y-67812849D01*
X113920000Y-67810486D01*
X113896008Y-67812849D01*
X113872934Y-67819849D01*
X113851670Y-67831214D01*
X113833033Y-67846510D01*
X113819807Y-67862626D01*
X113817935Y-67863330D01*
X113816389Y-67862061D01*
X113816413Y-67860592D01*
X113849656Y-67780336D01*
X113866828Y-67694007D01*
X113866828Y-67605993D01*
X113849656Y-67519664D01*
X113816413Y-67439408D01*
X113816674Y-67437425D01*
X113818522Y-67436660D01*
X113819807Y-67437374D01*
G37*
G36*
X116819807Y-67437374D02*
G01*
X116833034Y-67453491D01*
X116851671Y-67468786D01*
X116872934Y-67480151D01*
X116896009Y-67487151D01*
X116920000Y-67489514D01*
X116943992Y-67487151D01*
X116967066Y-67480151D01*
X116988330Y-67468786D01*
X117006967Y-67453490D01*
X117020193Y-67437374D01*
X117022065Y-67436670D01*
X117023611Y-67437939D01*
X117023587Y-67439408D01*
X116990344Y-67519664D01*
X116973172Y-67605993D01*
X116973172Y-67694007D01*
X116990344Y-67780336D01*
X117023587Y-67860592D01*
X117023326Y-67862575D01*
X117021478Y-67863340D01*
X117020193Y-67862626D01*
X117006966Y-67846509D01*
X116988329Y-67831214D01*
X116967066Y-67819849D01*
X116943991Y-67812849D01*
X116920000Y-67810486D01*
X116896008Y-67812849D01*
X116872934Y-67819849D01*
X116851670Y-67831214D01*
X116833033Y-67846510D01*
X116819807Y-67862626D01*
X116817935Y-67863330D01*
X116816389Y-67862061D01*
X116816413Y-67860592D01*
X116849656Y-67780336D01*
X116866828Y-67694007D01*
X116866828Y-67605993D01*
X116849656Y-67519664D01*
X116816413Y-67439408D01*
X116816674Y-67437425D01*
X116818522Y-67436660D01*
X116819807Y-67437374D01*
G37*
G36*
X117209408Y-67046413D02*
G01*
X117289664Y-67079656D01*
X117375993Y-67096828D01*
X117464007Y-67096828D01*
X117550336Y-67079656D01*
X117630592Y-67046413D01*
X117632575Y-67046674D01*
X117633340Y-67048522D01*
X117632626Y-67049807D01*
X117616509Y-67063034D01*
X117601214Y-67081671D01*
X117589849Y-67102934D01*
X117582849Y-67126009D01*
X117580486Y-67150000D01*
X117582849Y-67173992D01*
X117589849Y-67197066D01*
X117601214Y-67218330D01*
X117616510Y-67236967D01*
X117632626Y-67250193D01*
X117633330Y-67252065D01*
X117632061Y-67253611D01*
X117630592Y-67253587D01*
X117550336Y-67220344D01*
X117464007Y-67203172D01*
X117375993Y-67203172D01*
X117289664Y-67220344D01*
X117209408Y-67253587D01*
X117207425Y-67253326D01*
X117206660Y-67251478D01*
X117207374Y-67250193D01*
X117223491Y-67236966D01*
X117238786Y-67218329D01*
X117250151Y-67197066D01*
X117257151Y-67173991D01*
X117259514Y-67150000D01*
X117257151Y-67126008D01*
X117250151Y-67102934D01*
X117238786Y-67081670D01*
X117223490Y-67063033D01*
X117207374Y-67049807D01*
X117206670Y-67047935D01*
X117207939Y-67046389D01*
X117209408Y-67046413D01*
G37*
G36*
X115209408Y-67046413D02*
G01*
X115289664Y-67079656D01*
X115375993Y-67096828D01*
X115464007Y-67096828D01*
X115550336Y-67079656D01*
X115630592Y-67046413D01*
X115632575Y-67046674D01*
X115633340Y-67048522D01*
X115632626Y-67049807D01*
X115616509Y-67063034D01*
X115601214Y-67081671D01*
X115589849Y-67102934D01*
X115582849Y-67126009D01*
X115580486Y-67150000D01*
X115582849Y-67173992D01*
X115589849Y-67197066D01*
X115601214Y-67218330D01*
X115616510Y-67236967D01*
X115632626Y-67250193D01*
X115633330Y-67252065D01*
X115632061Y-67253611D01*
X115630592Y-67253587D01*
X115550336Y-67220344D01*
X115464007Y-67203172D01*
X115375993Y-67203172D01*
X115289664Y-67220344D01*
X115209408Y-67253587D01*
X115207425Y-67253326D01*
X115206660Y-67251478D01*
X115207374Y-67250193D01*
X115223491Y-67236966D01*
X115238786Y-67218329D01*
X115250151Y-67197066D01*
X115257151Y-67173991D01*
X115259514Y-67150000D01*
X115257151Y-67126008D01*
X115250151Y-67102934D01*
X115238786Y-67081670D01*
X115223490Y-67063033D01*
X115207374Y-67049807D01*
X115206670Y-67047935D01*
X115207939Y-67046389D01*
X115209408Y-67046413D01*
G37*
G36*
X114209408Y-67046413D02*
G01*
X114289664Y-67079656D01*
X114375993Y-67096828D01*
X114464007Y-67096828D01*
X114550336Y-67079656D01*
X114630592Y-67046413D01*
X114632575Y-67046674D01*
X114633340Y-67048522D01*
X114632626Y-67049807D01*
X114616509Y-67063034D01*
X114601214Y-67081671D01*
X114589849Y-67102934D01*
X114582849Y-67126009D01*
X114580486Y-67150000D01*
X114582849Y-67173992D01*
X114589849Y-67197066D01*
X114601214Y-67218330D01*
X114616510Y-67236967D01*
X114632626Y-67250193D01*
X114633330Y-67252065D01*
X114632061Y-67253611D01*
X114630592Y-67253587D01*
X114550336Y-67220344D01*
X114464007Y-67203172D01*
X114375993Y-67203172D01*
X114289664Y-67220344D01*
X114209408Y-67253587D01*
X114207425Y-67253326D01*
X114206660Y-67251478D01*
X114207374Y-67250193D01*
X114223491Y-67236966D01*
X114238786Y-67218329D01*
X114250151Y-67197066D01*
X114257151Y-67173991D01*
X114259514Y-67150000D01*
X114257151Y-67126008D01*
X114250151Y-67102934D01*
X114238786Y-67081670D01*
X114223490Y-67063033D01*
X114207374Y-67049807D01*
X114206670Y-67047935D01*
X114207939Y-67046389D01*
X114209408Y-67046413D01*
G37*
G36*
X113209408Y-67046413D02*
G01*
X113289664Y-67079656D01*
X113375993Y-67096828D01*
X113464007Y-67096828D01*
X113550336Y-67079656D01*
X113630592Y-67046413D01*
X113632575Y-67046674D01*
X113633340Y-67048522D01*
X113632626Y-67049807D01*
X113616509Y-67063034D01*
X113601214Y-67081671D01*
X113589849Y-67102934D01*
X113582849Y-67126009D01*
X113580486Y-67150000D01*
X113582849Y-67173992D01*
X113589849Y-67197066D01*
X113601214Y-67218330D01*
X113616510Y-67236967D01*
X113632626Y-67250193D01*
X113633330Y-67252065D01*
X113632061Y-67253611D01*
X113630592Y-67253587D01*
X113550336Y-67220344D01*
X113464007Y-67203172D01*
X113375993Y-67203172D01*
X113289664Y-67220344D01*
X113209408Y-67253587D01*
X113207425Y-67253326D01*
X113206660Y-67251478D01*
X113207374Y-67250193D01*
X113223491Y-67236966D01*
X113238786Y-67218329D01*
X113250151Y-67197066D01*
X113257151Y-67173991D01*
X113259514Y-67150000D01*
X113257151Y-67126008D01*
X113250151Y-67102934D01*
X113238786Y-67081670D01*
X113223490Y-67063033D01*
X113207374Y-67049807D01*
X113206670Y-67047935D01*
X113207939Y-67046389D01*
X113209408Y-67046413D01*
G37*
G36*
X116209408Y-67046413D02*
G01*
X116289664Y-67079656D01*
X116375993Y-67096828D01*
X116464007Y-67096828D01*
X116550336Y-67079656D01*
X116630592Y-67046413D01*
X116632575Y-67046674D01*
X116633340Y-67048522D01*
X116632626Y-67049807D01*
X116616509Y-67063034D01*
X116601214Y-67081671D01*
X116589849Y-67102934D01*
X116582849Y-67126009D01*
X116580486Y-67150000D01*
X116582849Y-67173992D01*
X116589849Y-67197066D01*
X116601214Y-67218330D01*
X116616510Y-67236967D01*
X116632626Y-67250193D01*
X116633330Y-67252065D01*
X116632061Y-67253611D01*
X116630592Y-67253587D01*
X116550336Y-67220344D01*
X116464007Y-67203172D01*
X116375993Y-67203172D01*
X116289664Y-67220344D01*
X116209408Y-67253587D01*
X116207425Y-67253326D01*
X116206660Y-67251478D01*
X116207374Y-67250193D01*
X116223491Y-67236966D01*
X116238786Y-67218329D01*
X116250151Y-67197066D01*
X116257151Y-67173991D01*
X116259514Y-67150000D01*
X116257151Y-67126008D01*
X116250151Y-67102934D01*
X116238786Y-67081670D01*
X116223490Y-67063033D01*
X116207374Y-67049807D01*
X116206670Y-67047935D01*
X116207939Y-67046389D01*
X116209408Y-67046413D01*
G37*
G36*
X114819807Y-66437374D02*
G01*
X114833034Y-66453491D01*
X114851671Y-66468786D01*
X114872934Y-66480151D01*
X114896009Y-66487151D01*
X114920000Y-66489514D01*
X114943992Y-66487151D01*
X114967066Y-66480151D01*
X114988330Y-66468786D01*
X115006967Y-66453490D01*
X115020193Y-66437374D01*
X115022065Y-66436670D01*
X115023611Y-66437939D01*
X115023587Y-66439408D01*
X114990344Y-66519664D01*
X114973172Y-66605993D01*
X114973172Y-66694007D01*
X114990344Y-66780336D01*
X115023587Y-66860592D01*
X115023326Y-66862575D01*
X115021478Y-66863340D01*
X115020193Y-66862626D01*
X115006966Y-66846509D01*
X114988329Y-66831214D01*
X114967066Y-66819849D01*
X114943991Y-66812849D01*
X114920000Y-66810486D01*
X114896008Y-66812849D01*
X114872934Y-66819849D01*
X114851670Y-66831214D01*
X114833033Y-66846510D01*
X114819807Y-66862626D01*
X114817935Y-66863330D01*
X114816389Y-66862061D01*
X114816413Y-66860592D01*
X114849656Y-66780336D01*
X114866828Y-66694007D01*
X114866828Y-66605993D01*
X114849656Y-66519664D01*
X114816413Y-66439408D01*
X114816674Y-66437425D01*
X114818522Y-66436660D01*
X114819807Y-66437374D01*
G37*
G36*
X115819807Y-66437374D02*
G01*
X115833034Y-66453491D01*
X115851671Y-66468786D01*
X115872934Y-66480151D01*
X115896009Y-66487151D01*
X115920000Y-66489514D01*
X115943992Y-66487151D01*
X115967066Y-66480151D01*
X115988330Y-66468786D01*
X116006967Y-66453490D01*
X116020193Y-66437374D01*
X116022065Y-66436670D01*
X116023611Y-66437939D01*
X116023587Y-66439408D01*
X115990344Y-66519664D01*
X115973172Y-66605993D01*
X115973172Y-66694007D01*
X115990344Y-66780336D01*
X116023587Y-66860592D01*
X116023326Y-66862575D01*
X116021478Y-66863340D01*
X116020193Y-66862626D01*
X116006966Y-66846509D01*
X115988329Y-66831214D01*
X115967066Y-66819849D01*
X115943991Y-66812849D01*
X115920000Y-66810486D01*
X115896008Y-66812849D01*
X115872934Y-66819849D01*
X115851670Y-66831214D01*
X115833033Y-66846510D01*
X115819807Y-66862626D01*
X115817935Y-66863330D01*
X115816389Y-66862061D01*
X115816413Y-66860592D01*
X115849656Y-66780336D01*
X115866828Y-66694007D01*
X115866828Y-66605993D01*
X115849656Y-66519664D01*
X115816413Y-66439408D01*
X115816674Y-66437425D01*
X115818522Y-66436660D01*
X115819807Y-66437374D01*
G37*
G36*
X113819807Y-66437374D02*
G01*
X113833034Y-66453491D01*
X113851671Y-66468786D01*
X113872934Y-66480151D01*
X113896009Y-66487151D01*
X113920000Y-66489514D01*
X113943992Y-66487151D01*
X113967066Y-66480151D01*
X113988330Y-66468786D01*
X114006967Y-66453490D01*
X114020193Y-66437374D01*
X114022065Y-66436670D01*
X114023611Y-66437939D01*
X114023587Y-66439408D01*
X113990344Y-66519664D01*
X113973172Y-66605993D01*
X113973172Y-66694007D01*
X113990344Y-66780336D01*
X114023587Y-66860592D01*
X114023326Y-66862575D01*
X114021478Y-66863340D01*
X114020193Y-66862626D01*
X114006966Y-66846509D01*
X113988329Y-66831214D01*
X113967066Y-66819849D01*
X113943991Y-66812849D01*
X113920000Y-66810486D01*
X113896008Y-66812849D01*
X113872934Y-66819849D01*
X113851670Y-66831214D01*
X113833033Y-66846510D01*
X113819807Y-66862626D01*
X113817935Y-66863330D01*
X113816389Y-66862061D01*
X113816413Y-66860592D01*
X113849656Y-66780336D01*
X113866828Y-66694007D01*
X113866828Y-66605993D01*
X113849656Y-66519664D01*
X113816413Y-66439408D01*
X113816674Y-66437425D01*
X113818522Y-66436660D01*
X113819807Y-66437374D01*
G37*
G36*
X116819807Y-66437374D02*
G01*
X116833034Y-66453491D01*
X116851671Y-66468786D01*
X116872934Y-66480151D01*
X116896009Y-66487151D01*
X116920000Y-66489514D01*
X116943992Y-66487151D01*
X116967066Y-66480151D01*
X116988330Y-66468786D01*
X117006967Y-66453490D01*
X117020193Y-66437374D01*
X117022065Y-66436670D01*
X117023611Y-66437939D01*
X117023587Y-66439408D01*
X116990344Y-66519664D01*
X116973172Y-66605993D01*
X116973172Y-66694007D01*
X116990344Y-66780336D01*
X117023587Y-66860592D01*
X117023326Y-66862575D01*
X117021478Y-66863340D01*
X117020193Y-66862626D01*
X117006966Y-66846509D01*
X116988329Y-66831214D01*
X116967066Y-66819849D01*
X116943991Y-66812849D01*
X116920000Y-66810486D01*
X116896008Y-66812849D01*
X116872934Y-66819849D01*
X116851670Y-66831214D01*
X116833033Y-66846510D01*
X116819807Y-66862626D01*
X116817935Y-66863330D01*
X116816389Y-66862061D01*
X116816413Y-66860592D01*
X116849656Y-66780336D01*
X116866828Y-66694007D01*
X116866828Y-66605993D01*
X116849656Y-66519664D01*
X116816413Y-66439408D01*
X116816674Y-66437425D01*
X116818522Y-66436660D01*
X116819807Y-66437374D01*
G37*
G36*
X115209408Y-66046413D02*
G01*
X115289664Y-66079656D01*
X115375993Y-66096828D01*
X115464007Y-66096828D01*
X115550336Y-66079656D01*
X115630592Y-66046413D01*
X115632575Y-66046674D01*
X115633340Y-66048522D01*
X115632626Y-66049807D01*
X115616509Y-66063034D01*
X115601214Y-66081671D01*
X115589849Y-66102934D01*
X115582849Y-66126009D01*
X115580486Y-66150000D01*
X115582849Y-66173992D01*
X115589849Y-66197066D01*
X115601214Y-66218330D01*
X115616510Y-66236967D01*
X115632626Y-66250193D01*
X115633330Y-66252065D01*
X115632061Y-66253611D01*
X115630592Y-66253587D01*
X115550336Y-66220344D01*
X115464007Y-66203172D01*
X115375993Y-66203172D01*
X115289664Y-66220344D01*
X115209408Y-66253587D01*
X115207425Y-66253326D01*
X115206660Y-66251478D01*
X115207374Y-66250193D01*
X115223491Y-66236966D01*
X115238786Y-66218329D01*
X115250151Y-66197066D01*
X115257151Y-66173991D01*
X115259514Y-66150000D01*
X115257151Y-66126008D01*
X115250151Y-66102934D01*
X115238786Y-66081670D01*
X115223490Y-66063033D01*
X115207374Y-66049807D01*
X115206670Y-66047935D01*
X115207939Y-66046389D01*
X115209408Y-66046413D01*
G37*
G36*
X117209408Y-66046413D02*
G01*
X117289664Y-66079656D01*
X117375993Y-66096828D01*
X117464007Y-66096828D01*
X117550336Y-66079656D01*
X117630592Y-66046413D01*
X117632575Y-66046674D01*
X117633340Y-66048522D01*
X117632626Y-66049807D01*
X117616509Y-66063034D01*
X117601214Y-66081671D01*
X117589849Y-66102934D01*
X117582849Y-66126009D01*
X117580486Y-66150000D01*
X117582849Y-66173992D01*
X117589849Y-66197066D01*
X117601214Y-66218330D01*
X117616510Y-66236967D01*
X117632626Y-66250193D01*
X117633330Y-66252065D01*
X117632061Y-66253611D01*
X117630592Y-66253587D01*
X117550336Y-66220344D01*
X117464007Y-66203172D01*
X117375993Y-66203172D01*
X117289664Y-66220344D01*
X117209408Y-66253587D01*
X117207425Y-66253326D01*
X117206660Y-66251478D01*
X117207374Y-66250193D01*
X117223491Y-66236966D01*
X117238786Y-66218329D01*
X117250151Y-66197066D01*
X117257151Y-66173991D01*
X117259514Y-66150000D01*
X117257151Y-66126008D01*
X117250151Y-66102934D01*
X117238786Y-66081670D01*
X117223490Y-66063033D01*
X117207374Y-66049807D01*
X117206670Y-66047935D01*
X117207939Y-66046389D01*
X117209408Y-66046413D01*
G37*
G36*
X116209408Y-66046413D02*
G01*
X116289664Y-66079656D01*
X116375993Y-66096828D01*
X116464007Y-66096828D01*
X116550336Y-66079656D01*
X116630592Y-66046413D01*
X116632575Y-66046674D01*
X116633340Y-66048522D01*
X116632626Y-66049807D01*
X116616509Y-66063034D01*
X116601214Y-66081671D01*
X116589849Y-66102934D01*
X116582849Y-66126009D01*
X116580486Y-66150000D01*
X116582849Y-66173992D01*
X116589849Y-66197066D01*
X116601214Y-66218330D01*
X116616510Y-66236967D01*
X116632626Y-66250193D01*
X116633330Y-66252065D01*
X116632061Y-66253611D01*
X116630592Y-66253587D01*
X116550336Y-66220344D01*
X116464007Y-66203172D01*
X116375993Y-66203172D01*
X116289664Y-66220344D01*
X116209408Y-66253587D01*
X116207425Y-66253326D01*
X116206660Y-66251478D01*
X116207374Y-66250193D01*
X116223491Y-66236966D01*
X116238786Y-66218329D01*
X116250151Y-66197066D01*
X116257151Y-66173991D01*
X116259514Y-66150000D01*
X116257151Y-66126008D01*
X116250151Y-66102934D01*
X116238786Y-66081670D01*
X116223490Y-66063033D01*
X116207374Y-66049807D01*
X116206670Y-66047935D01*
X116207939Y-66046389D01*
X116209408Y-66046413D01*
G37*
G36*
X114209408Y-66046413D02*
G01*
X114289664Y-66079656D01*
X114375993Y-66096828D01*
X114464007Y-66096828D01*
X114550336Y-66079656D01*
X114630592Y-66046413D01*
X114632575Y-66046674D01*
X114633340Y-66048522D01*
X114632626Y-66049807D01*
X114616509Y-66063034D01*
X114601214Y-66081671D01*
X114589849Y-66102934D01*
X114582849Y-66126009D01*
X114580486Y-66150000D01*
X114582849Y-66173992D01*
X114589849Y-66197066D01*
X114601214Y-66218330D01*
X114616510Y-66236967D01*
X114632626Y-66250193D01*
X114633330Y-66252065D01*
X114632061Y-66253611D01*
X114630592Y-66253587D01*
X114550336Y-66220344D01*
X114464007Y-66203172D01*
X114375993Y-66203172D01*
X114289664Y-66220344D01*
X114209408Y-66253587D01*
X114207425Y-66253326D01*
X114206660Y-66251478D01*
X114207374Y-66250193D01*
X114223491Y-66236966D01*
X114238786Y-66218329D01*
X114250151Y-66197066D01*
X114257151Y-66173991D01*
X114259514Y-66150000D01*
X114257151Y-66126008D01*
X114250151Y-66102934D01*
X114238786Y-66081670D01*
X114223490Y-66063033D01*
X114207374Y-66049807D01*
X114206670Y-66047935D01*
X114207939Y-66046389D01*
X114209408Y-66046413D01*
G37*
G36*
X113209408Y-66046413D02*
G01*
X113289664Y-66079656D01*
X113375993Y-66096828D01*
X113464007Y-66096828D01*
X113550336Y-66079656D01*
X113630592Y-66046413D01*
X113632575Y-66046674D01*
X113633340Y-66048522D01*
X113632626Y-66049807D01*
X113616509Y-66063034D01*
X113601214Y-66081671D01*
X113589849Y-66102934D01*
X113582849Y-66126009D01*
X113580486Y-66150000D01*
X113582849Y-66173992D01*
X113589849Y-66197066D01*
X113601214Y-66218330D01*
X113616510Y-66236967D01*
X113632626Y-66250193D01*
X113633330Y-66252065D01*
X113632061Y-66253611D01*
X113630592Y-66253587D01*
X113550336Y-66220344D01*
X113464007Y-66203172D01*
X113375993Y-66203172D01*
X113289664Y-66220344D01*
X113209408Y-66253587D01*
X113207425Y-66253326D01*
X113206660Y-66251478D01*
X113207374Y-66250193D01*
X113223491Y-66236966D01*
X113238786Y-66218329D01*
X113250151Y-66197066D01*
X113257151Y-66173991D01*
X113259514Y-66150000D01*
X113257151Y-66126008D01*
X113250151Y-66102934D01*
X113238786Y-66081670D01*
X113223490Y-66063033D01*
X113207374Y-66049807D01*
X113206670Y-66047935D01*
X113207939Y-66046389D01*
X113209408Y-66046413D01*
G37*
G36*
X116819807Y-65437374D02*
G01*
X116833034Y-65453491D01*
X116851671Y-65468786D01*
X116872934Y-65480151D01*
X116896009Y-65487151D01*
X116920000Y-65489514D01*
X116943992Y-65487151D01*
X116967066Y-65480151D01*
X116988330Y-65468786D01*
X117006967Y-65453490D01*
X117020193Y-65437374D01*
X117022065Y-65436670D01*
X117023611Y-65437939D01*
X117023587Y-65439408D01*
X116990344Y-65519664D01*
X116973172Y-65605993D01*
X116973172Y-65694007D01*
X116990344Y-65780336D01*
X117023587Y-65860592D01*
X117023326Y-65862575D01*
X117021478Y-65863340D01*
X117020193Y-65862626D01*
X117006966Y-65846509D01*
X116988329Y-65831214D01*
X116967066Y-65819849D01*
X116943991Y-65812849D01*
X116920000Y-65810486D01*
X116896008Y-65812849D01*
X116872934Y-65819849D01*
X116851670Y-65831214D01*
X116833033Y-65846510D01*
X116819807Y-65862626D01*
X116817935Y-65863330D01*
X116816389Y-65862061D01*
X116816413Y-65860592D01*
X116849656Y-65780336D01*
X116866828Y-65694007D01*
X116866828Y-65605993D01*
X116849656Y-65519664D01*
X116816413Y-65439408D01*
X116816674Y-65437425D01*
X116818522Y-65436660D01*
X116819807Y-65437374D01*
G37*
G36*
X114819807Y-65437374D02*
G01*
X114833034Y-65453491D01*
X114851671Y-65468786D01*
X114872934Y-65480151D01*
X114896009Y-65487151D01*
X114920000Y-65489514D01*
X114943992Y-65487151D01*
X114967066Y-65480151D01*
X114988330Y-65468786D01*
X115006967Y-65453490D01*
X115020193Y-65437374D01*
X115022065Y-65436670D01*
X115023611Y-65437939D01*
X115023587Y-65439408D01*
X114990344Y-65519664D01*
X114973172Y-65605993D01*
X114973172Y-65694007D01*
X114990344Y-65780336D01*
X115023587Y-65860592D01*
X115023326Y-65862575D01*
X115021478Y-65863340D01*
X115020193Y-65862626D01*
X115006966Y-65846509D01*
X114988329Y-65831214D01*
X114967066Y-65819849D01*
X114943991Y-65812849D01*
X114920000Y-65810486D01*
X114896008Y-65812849D01*
X114872934Y-65819849D01*
X114851670Y-65831214D01*
X114833033Y-65846510D01*
X114819807Y-65862626D01*
X114817935Y-65863330D01*
X114816389Y-65862061D01*
X114816413Y-65860592D01*
X114849656Y-65780336D01*
X114866828Y-65694007D01*
X114866828Y-65605993D01*
X114849656Y-65519664D01*
X114816413Y-65439408D01*
X114816674Y-65437425D01*
X114818522Y-65436660D01*
X114819807Y-65437374D01*
G37*
G36*
X113819807Y-65437374D02*
G01*
X113833034Y-65453491D01*
X113851671Y-65468786D01*
X113872934Y-65480151D01*
X113896009Y-65487151D01*
X113920000Y-65489514D01*
X113943992Y-65487151D01*
X113967066Y-65480151D01*
X113988330Y-65468786D01*
X114006967Y-65453490D01*
X114020193Y-65437374D01*
X114022065Y-65436670D01*
X114023611Y-65437939D01*
X114023587Y-65439408D01*
X113990344Y-65519664D01*
X113973172Y-65605993D01*
X113973172Y-65694007D01*
X113990344Y-65780336D01*
X114023587Y-65860592D01*
X114023326Y-65862575D01*
X114021478Y-65863340D01*
X114020193Y-65862626D01*
X114006966Y-65846509D01*
X113988329Y-65831214D01*
X113967066Y-65819849D01*
X113943991Y-65812849D01*
X113920000Y-65810486D01*
X113896008Y-65812849D01*
X113872934Y-65819849D01*
X113851670Y-65831214D01*
X113833033Y-65846510D01*
X113819807Y-65862626D01*
X113817935Y-65863330D01*
X113816389Y-65862061D01*
X113816413Y-65860592D01*
X113849656Y-65780336D01*
X113866828Y-65694007D01*
X113866828Y-65605993D01*
X113849656Y-65519664D01*
X113816413Y-65439408D01*
X113816674Y-65437425D01*
X113818522Y-65436660D01*
X113819807Y-65437374D01*
G37*
G36*
X115819807Y-65437374D02*
G01*
X115833034Y-65453491D01*
X115851671Y-65468786D01*
X115872934Y-65480151D01*
X115896009Y-65487151D01*
X115920000Y-65489514D01*
X115943992Y-65487151D01*
X115967066Y-65480151D01*
X115988330Y-65468786D01*
X116006967Y-65453490D01*
X116020193Y-65437374D01*
X116022065Y-65436670D01*
X116023611Y-65437939D01*
X116023587Y-65439408D01*
X115990344Y-65519664D01*
X115973172Y-65605993D01*
X115973172Y-65694007D01*
X115990344Y-65780336D01*
X116023587Y-65860592D01*
X116023326Y-65862575D01*
X116021478Y-65863340D01*
X116020193Y-65862626D01*
X116006966Y-65846509D01*
X115988329Y-65831214D01*
X115967066Y-65819849D01*
X115943991Y-65812849D01*
X115920000Y-65810486D01*
X115896008Y-65812849D01*
X115872934Y-65819849D01*
X115851670Y-65831214D01*
X115833033Y-65846510D01*
X115819807Y-65862626D01*
X115817935Y-65863330D01*
X115816389Y-65862061D01*
X115816413Y-65860592D01*
X115849656Y-65780336D01*
X115866828Y-65694007D01*
X115866828Y-65605993D01*
X115849656Y-65519664D01*
X115816413Y-65439408D01*
X115816674Y-65437425D01*
X115818522Y-65436660D01*
X115819807Y-65437374D01*
G37*
G36*
X117209408Y-65046413D02*
G01*
X117289664Y-65079656D01*
X117375993Y-65096828D01*
X117464007Y-65096828D01*
X117550336Y-65079656D01*
X117630592Y-65046413D01*
X117632575Y-65046674D01*
X117633340Y-65048522D01*
X117632626Y-65049807D01*
X117616509Y-65063034D01*
X117601214Y-65081671D01*
X117589849Y-65102934D01*
X117582849Y-65126009D01*
X117580486Y-65150000D01*
X117582849Y-65173992D01*
X117589849Y-65197066D01*
X117601214Y-65218330D01*
X117616510Y-65236967D01*
X117632626Y-65250193D01*
X117633330Y-65252065D01*
X117632061Y-65253611D01*
X117630592Y-65253587D01*
X117550336Y-65220344D01*
X117464007Y-65203172D01*
X117375993Y-65203172D01*
X117289664Y-65220344D01*
X117209408Y-65253587D01*
X117207425Y-65253326D01*
X117206660Y-65251478D01*
X117207374Y-65250193D01*
X117223491Y-65236966D01*
X117238786Y-65218329D01*
X117250151Y-65197066D01*
X117257151Y-65173991D01*
X117259514Y-65150000D01*
X117257151Y-65126008D01*
X117250151Y-65102934D01*
X117238786Y-65081670D01*
X117223490Y-65063033D01*
X117207374Y-65049807D01*
X117206670Y-65047935D01*
X117207939Y-65046389D01*
X117209408Y-65046413D01*
G37*
G36*
X116209408Y-65046413D02*
G01*
X116289664Y-65079656D01*
X116375993Y-65096828D01*
X116464007Y-65096828D01*
X116550336Y-65079656D01*
X116630592Y-65046413D01*
X116632575Y-65046674D01*
X116633340Y-65048522D01*
X116632626Y-65049807D01*
X116616509Y-65063034D01*
X116601214Y-65081671D01*
X116589849Y-65102934D01*
X116582849Y-65126009D01*
X116580486Y-65150000D01*
X116582849Y-65173992D01*
X116589849Y-65197066D01*
X116601214Y-65218330D01*
X116616510Y-65236967D01*
X116632626Y-65250193D01*
X116633330Y-65252065D01*
X116632061Y-65253611D01*
X116630592Y-65253587D01*
X116550336Y-65220344D01*
X116464007Y-65203172D01*
X116375993Y-65203172D01*
X116289664Y-65220344D01*
X116209408Y-65253587D01*
X116207425Y-65253326D01*
X116206660Y-65251478D01*
X116207374Y-65250193D01*
X116223491Y-65236966D01*
X116238786Y-65218329D01*
X116250151Y-65197066D01*
X116257151Y-65173991D01*
X116259514Y-65150000D01*
X116257151Y-65126008D01*
X116250151Y-65102934D01*
X116238786Y-65081670D01*
X116223490Y-65063033D01*
X116207374Y-65049807D01*
X116206670Y-65047935D01*
X116207939Y-65046389D01*
X116209408Y-65046413D01*
G37*
G36*
X115209408Y-65046413D02*
G01*
X115289664Y-65079656D01*
X115375993Y-65096828D01*
X115464007Y-65096828D01*
X115550336Y-65079656D01*
X115630592Y-65046413D01*
X115632575Y-65046674D01*
X115633340Y-65048522D01*
X115632626Y-65049807D01*
X115616509Y-65063034D01*
X115601214Y-65081671D01*
X115589849Y-65102934D01*
X115582849Y-65126009D01*
X115580486Y-65150000D01*
X115582849Y-65173992D01*
X115589849Y-65197066D01*
X115601214Y-65218330D01*
X115616510Y-65236967D01*
X115632626Y-65250193D01*
X115633330Y-65252065D01*
X115632061Y-65253611D01*
X115630592Y-65253587D01*
X115550336Y-65220344D01*
X115464007Y-65203172D01*
X115375993Y-65203172D01*
X115289664Y-65220344D01*
X115209408Y-65253587D01*
X115207425Y-65253326D01*
X115206660Y-65251478D01*
X115207374Y-65250193D01*
X115223491Y-65236966D01*
X115238786Y-65218329D01*
X115250151Y-65197066D01*
X115257151Y-65173991D01*
X115259514Y-65150000D01*
X115257151Y-65126008D01*
X115250151Y-65102934D01*
X115238786Y-65081670D01*
X115223490Y-65063033D01*
X115207374Y-65049807D01*
X115206670Y-65047935D01*
X115207939Y-65046389D01*
X115209408Y-65046413D01*
G37*
G36*
X114209408Y-65046413D02*
G01*
X114289664Y-65079656D01*
X114375993Y-65096828D01*
X114464007Y-65096828D01*
X114550336Y-65079656D01*
X114630592Y-65046413D01*
X114632575Y-65046674D01*
X114633340Y-65048522D01*
X114632626Y-65049807D01*
X114616509Y-65063034D01*
X114601214Y-65081671D01*
X114589849Y-65102934D01*
X114582849Y-65126009D01*
X114580486Y-65150000D01*
X114582849Y-65173992D01*
X114589849Y-65197066D01*
X114601214Y-65218330D01*
X114616510Y-65236967D01*
X114632626Y-65250193D01*
X114633330Y-65252065D01*
X114632061Y-65253611D01*
X114630592Y-65253587D01*
X114550336Y-65220344D01*
X114464007Y-65203172D01*
X114375993Y-65203172D01*
X114289664Y-65220344D01*
X114209408Y-65253587D01*
X114207425Y-65253326D01*
X114206660Y-65251478D01*
X114207374Y-65250193D01*
X114223491Y-65236966D01*
X114238786Y-65218329D01*
X114250151Y-65197066D01*
X114257151Y-65173991D01*
X114259514Y-65150000D01*
X114257151Y-65126008D01*
X114250151Y-65102934D01*
X114238786Y-65081670D01*
X114223490Y-65063033D01*
X114207374Y-65049807D01*
X114206670Y-65047935D01*
X114207939Y-65046389D01*
X114209408Y-65046413D01*
G37*
G36*
X113209408Y-65046413D02*
G01*
X113289664Y-65079656D01*
X113375993Y-65096828D01*
X113464007Y-65096828D01*
X113550336Y-65079656D01*
X113630592Y-65046413D01*
X113632575Y-65046674D01*
X113633340Y-65048522D01*
X113632626Y-65049807D01*
X113616509Y-65063034D01*
X113601214Y-65081671D01*
X113589849Y-65102934D01*
X113582849Y-65126009D01*
X113580486Y-65150000D01*
X113582849Y-65173992D01*
X113589849Y-65197066D01*
X113601214Y-65218330D01*
X113616510Y-65236967D01*
X113632626Y-65250193D01*
X113633330Y-65252065D01*
X113632061Y-65253611D01*
X113630592Y-65253587D01*
X113550336Y-65220344D01*
X113464007Y-65203172D01*
X113375993Y-65203172D01*
X113289664Y-65220344D01*
X113209408Y-65253587D01*
X113207425Y-65253326D01*
X113206660Y-65251478D01*
X113207374Y-65250193D01*
X113223491Y-65236966D01*
X113238786Y-65218329D01*
X113250151Y-65197066D01*
X113257151Y-65173991D01*
X113259514Y-65150000D01*
X113257151Y-65126008D01*
X113250151Y-65102934D01*
X113238786Y-65081670D01*
X113223490Y-65063033D01*
X113207374Y-65049807D01*
X113206670Y-65047935D01*
X113207939Y-65046389D01*
X113209408Y-65046413D01*
G37*
G36*
X116819807Y-64437374D02*
G01*
X116833034Y-64453491D01*
X116851671Y-64468786D01*
X116872934Y-64480151D01*
X116896009Y-64487151D01*
X116920000Y-64489514D01*
X116943992Y-64487151D01*
X116967066Y-64480151D01*
X116988330Y-64468786D01*
X117006967Y-64453490D01*
X117020193Y-64437374D01*
X117022065Y-64436670D01*
X117023611Y-64437939D01*
X117023587Y-64439408D01*
X116990344Y-64519664D01*
X116973172Y-64605993D01*
X116973172Y-64694007D01*
X116990344Y-64780336D01*
X117023587Y-64860592D01*
X117023326Y-64862575D01*
X117021478Y-64863340D01*
X117020193Y-64862626D01*
X117006966Y-64846509D01*
X116988329Y-64831214D01*
X116967066Y-64819849D01*
X116943991Y-64812849D01*
X116920000Y-64810486D01*
X116896008Y-64812849D01*
X116872934Y-64819849D01*
X116851670Y-64831214D01*
X116833033Y-64846510D01*
X116819807Y-64862626D01*
X116817935Y-64863330D01*
X116816389Y-64862061D01*
X116816413Y-64860592D01*
X116849656Y-64780336D01*
X116866828Y-64694007D01*
X116866828Y-64605993D01*
X116849656Y-64519664D01*
X116816413Y-64439408D01*
X116816674Y-64437425D01*
X116818522Y-64436660D01*
X116819807Y-64437374D01*
G37*
G36*
X113819807Y-64437374D02*
G01*
X113833034Y-64453491D01*
X113851671Y-64468786D01*
X113872934Y-64480151D01*
X113896009Y-64487151D01*
X113920000Y-64489514D01*
X113943992Y-64487151D01*
X113967066Y-64480151D01*
X113988330Y-64468786D01*
X114006967Y-64453490D01*
X114020193Y-64437374D01*
X114022065Y-64436670D01*
X114023611Y-64437939D01*
X114023587Y-64439408D01*
X113990344Y-64519664D01*
X113973172Y-64605993D01*
X113973172Y-64694007D01*
X113990344Y-64780336D01*
X114023587Y-64860592D01*
X114023326Y-64862575D01*
X114021478Y-64863340D01*
X114020193Y-64862626D01*
X114006966Y-64846509D01*
X113988329Y-64831214D01*
X113967066Y-64819849D01*
X113943991Y-64812849D01*
X113920000Y-64810486D01*
X113896008Y-64812849D01*
X113872934Y-64819849D01*
X113851670Y-64831214D01*
X113833033Y-64846510D01*
X113819807Y-64862626D01*
X113817935Y-64863330D01*
X113816389Y-64862061D01*
X113816413Y-64860592D01*
X113849656Y-64780336D01*
X113866828Y-64694007D01*
X113866828Y-64605993D01*
X113849656Y-64519664D01*
X113816413Y-64439408D01*
X113816674Y-64437425D01*
X113818522Y-64436660D01*
X113819807Y-64437374D01*
G37*
G36*
X115819807Y-64437374D02*
G01*
X115833034Y-64453491D01*
X115851671Y-64468786D01*
X115872934Y-64480151D01*
X115896009Y-64487151D01*
X115920000Y-64489514D01*
X115943992Y-64487151D01*
X115967066Y-64480151D01*
X115988330Y-64468786D01*
X116006967Y-64453490D01*
X116020193Y-64437374D01*
X116022065Y-64436670D01*
X116023611Y-64437939D01*
X116023587Y-64439408D01*
X115990344Y-64519664D01*
X115973172Y-64605993D01*
X115973172Y-64694007D01*
X115990344Y-64780336D01*
X116023587Y-64860592D01*
X116023326Y-64862575D01*
X116021478Y-64863340D01*
X116020193Y-64862626D01*
X116006966Y-64846509D01*
X115988329Y-64831214D01*
X115967066Y-64819849D01*
X115943991Y-64812849D01*
X115920000Y-64810486D01*
X115896008Y-64812849D01*
X115872934Y-64819849D01*
X115851670Y-64831214D01*
X115833033Y-64846510D01*
X115819807Y-64862626D01*
X115817935Y-64863330D01*
X115816389Y-64862061D01*
X115816413Y-64860592D01*
X115849656Y-64780336D01*
X115866828Y-64694007D01*
X115866828Y-64605993D01*
X115849656Y-64519664D01*
X115816413Y-64439408D01*
X115816674Y-64437425D01*
X115818522Y-64436660D01*
X115819807Y-64437374D01*
G37*
G36*
X114819807Y-64437374D02*
G01*
X114833034Y-64453491D01*
X114851671Y-64468786D01*
X114872934Y-64480151D01*
X114896009Y-64487151D01*
X114920000Y-64489514D01*
X114943992Y-64487151D01*
X114967066Y-64480151D01*
X114988330Y-64468786D01*
X115006967Y-64453490D01*
X115020193Y-64437374D01*
X115022065Y-64436670D01*
X115023611Y-64437939D01*
X115023587Y-64439408D01*
X114990344Y-64519664D01*
X114973172Y-64605993D01*
X114973172Y-64694007D01*
X114990344Y-64780336D01*
X115023587Y-64860592D01*
X115023326Y-64862575D01*
X115021478Y-64863340D01*
X115020193Y-64862626D01*
X115006966Y-64846509D01*
X114988329Y-64831214D01*
X114967066Y-64819849D01*
X114943991Y-64812849D01*
X114920000Y-64810486D01*
X114896008Y-64812849D01*
X114872934Y-64819849D01*
X114851670Y-64831214D01*
X114833033Y-64846510D01*
X114819807Y-64862626D01*
X114817935Y-64863330D01*
X114816389Y-64862061D01*
X114816413Y-64860592D01*
X114849656Y-64780336D01*
X114866828Y-64694007D01*
X114866828Y-64605993D01*
X114849656Y-64519664D01*
X114816413Y-64439408D01*
X114816674Y-64437425D01*
X114818522Y-64436660D01*
X114819807Y-64437374D01*
G37*
G36*
X117209408Y-64046413D02*
G01*
X117289664Y-64079656D01*
X117375993Y-64096828D01*
X117464007Y-64096828D01*
X117550336Y-64079656D01*
X117630592Y-64046413D01*
X117632575Y-64046674D01*
X117633340Y-64048522D01*
X117632626Y-64049807D01*
X117616509Y-64063034D01*
X117601214Y-64081671D01*
X117589849Y-64102934D01*
X117582849Y-64126009D01*
X117580486Y-64150000D01*
X117582849Y-64173992D01*
X117589849Y-64197066D01*
X117601214Y-64218330D01*
X117616510Y-64236967D01*
X117632626Y-64250193D01*
X117633330Y-64252065D01*
X117632061Y-64253611D01*
X117630592Y-64253587D01*
X117550336Y-64220344D01*
X117464007Y-64203172D01*
X117375993Y-64203172D01*
X117289664Y-64220344D01*
X117209408Y-64253587D01*
X117207425Y-64253326D01*
X117206660Y-64251478D01*
X117207374Y-64250193D01*
X117223491Y-64236966D01*
X117238786Y-64218329D01*
X117250151Y-64197066D01*
X117257151Y-64173991D01*
X117259514Y-64150000D01*
X117257151Y-64126008D01*
X117250151Y-64102934D01*
X117238786Y-64081670D01*
X117223490Y-64063033D01*
X117207374Y-64049807D01*
X117206670Y-64047935D01*
X117207939Y-64046389D01*
X117209408Y-64046413D01*
G37*
G36*
X114209408Y-64046413D02*
G01*
X114289664Y-64079656D01*
X114375993Y-64096828D01*
X114464007Y-64096828D01*
X114550336Y-64079656D01*
X114630592Y-64046413D01*
X114632575Y-64046674D01*
X114633340Y-64048522D01*
X114632626Y-64049807D01*
X114616509Y-64063034D01*
X114601214Y-64081671D01*
X114589849Y-64102934D01*
X114582849Y-64126009D01*
X114580486Y-64150000D01*
X114582849Y-64173992D01*
X114589849Y-64197066D01*
X114601214Y-64218330D01*
X114616510Y-64236967D01*
X114632626Y-64250193D01*
X114633330Y-64252065D01*
X114632061Y-64253611D01*
X114630592Y-64253587D01*
X114550336Y-64220344D01*
X114464007Y-64203172D01*
X114375993Y-64203172D01*
X114289664Y-64220344D01*
X114209408Y-64253587D01*
X114207425Y-64253326D01*
X114206660Y-64251478D01*
X114207374Y-64250193D01*
X114223491Y-64236966D01*
X114238786Y-64218329D01*
X114250151Y-64197066D01*
X114257151Y-64173991D01*
X114259514Y-64150000D01*
X114257151Y-64126008D01*
X114250151Y-64102934D01*
X114238786Y-64081670D01*
X114223490Y-64063033D01*
X114207374Y-64049807D01*
X114206670Y-64047935D01*
X114207939Y-64046389D01*
X114209408Y-64046413D01*
G37*
G36*
X116209408Y-64046413D02*
G01*
X116289664Y-64079656D01*
X116375993Y-64096828D01*
X116464007Y-64096828D01*
X116550336Y-64079656D01*
X116630592Y-64046413D01*
X116632575Y-64046674D01*
X116633340Y-64048522D01*
X116632626Y-64049807D01*
X116616509Y-64063034D01*
X116601214Y-64081671D01*
X116589849Y-64102934D01*
X116582849Y-64126009D01*
X116580486Y-64150000D01*
X116582849Y-64173992D01*
X116589849Y-64197066D01*
X116601214Y-64218330D01*
X116616510Y-64236967D01*
X116632626Y-64250193D01*
X116633330Y-64252065D01*
X116632061Y-64253611D01*
X116630592Y-64253587D01*
X116550336Y-64220344D01*
X116464007Y-64203172D01*
X116375993Y-64203172D01*
X116289664Y-64220344D01*
X116209408Y-64253587D01*
X116207425Y-64253326D01*
X116206660Y-64251478D01*
X116207374Y-64250193D01*
X116223491Y-64236966D01*
X116238786Y-64218329D01*
X116250151Y-64197066D01*
X116257151Y-64173991D01*
X116259514Y-64150000D01*
X116257151Y-64126008D01*
X116250151Y-64102934D01*
X116238786Y-64081670D01*
X116223490Y-64063033D01*
X116207374Y-64049807D01*
X116206670Y-64047935D01*
X116207939Y-64046389D01*
X116209408Y-64046413D01*
G37*
G36*
X115209408Y-64046413D02*
G01*
X115289664Y-64079656D01*
X115375993Y-64096828D01*
X115464007Y-64096828D01*
X115550336Y-64079656D01*
X115630592Y-64046413D01*
X115632575Y-64046674D01*
X115633340Y-64048522D01*
X115632626Y-64049807D01*
X115616509Y-64063034D01*
X115601214Y-64081671D01*
X115589849Y-64102934D01*
X115582849Y-64126009D01*
X115580486Y-64150000D01*
X115582849Y-64173992D01*
X115589849Y-64197066D01*
X115601214Y-64218330D01*
X115616510Y-64236967D01*
X115632626Y-64250193D01*
X115633330Y-64252065D01*
X115632061Y-64253611D01*
X115630592Y-64253587D01*
X115550336Y-64220344D01*
X115464007Y-64203172D01*
X115375993Y-64203172D01*
X115289664Y-64220344D01*
X115209408Y-64253587D01*
X115207425Y-64253326D01*
X115206660Y-64251478D01*
X115207374Y-64250193D01*
X115223491Y-64236966D01*
X115238786Y-64218329D01*
X115250151Y-64197066D01*
X115257151Y-64173991D01*
X115259514Y-64150000D01*
X115257151Y-64126008D01*
X115250151Y-64102934D01*
X115238786Y-64081670D01*
X115223490Y-64063033D01*
X115207374Y-64049807D01*
X115206670Y-64047935D01*
X115207939Y-64046389D01*
X115209408Y-64046413D01*
G37*
G36*
X113209408Y-64046413D02*
G01*
X113289664Y-64079656D01*
X113375993Y-64096828D01*
X113464007Y-64096828D01*
X113550336Y-64079656D01*
X113630592Y-64046413D01*
X113632575Y-64046674D01*
X113633340Y-64048522D01*
X113632626Y-64049807D01*
X113616509Y-64063034D01*
X113601214Y-64081671D01*
X113589849Y-64102934D01*
X113582849Y-64126009D01*
X113580486Y-64150000D01*
X113582849Y-64173992D01*
X113589849Y-64197066D01*
X113601214Y-64218330D01*
X113616510Y-64236967D01*
X113632626Y-64250193D01*
X113633330Y-64252065D01*
X113632061Y-64253611D01*
X113630592Y-64253587D01*
X113550336Y-64220344D01*
X113464007Y-64203172D01*
X113375993Y-64203172D01*
X113289664Y-64220344D01*
X113209408Y-64253587D01*
X113207425Y-64253326D01*
X113206660Y-64251478D01*
X113207374Y-64250193D01*
X113223491Y-64236966D01*
X113238786Y-64218329D01*
X113250151Y-64197066D01*
X113257151Y-64173991D01*
X113259514Y-64150000D01*
X113257151Y-64126008D01*
X113250151Y-64102934D01*
X113238786Y-64081670D01*
X113223490Y-64063033D01*
X113207374Y-64049807D01*
X113206670Y-64047935D01*
X113207939Y-64046389D01*
X113209408Y-64046413D01*
G37*
G36*
X115819807Y-63437374D02*
G01*
X115833034Y-63453491D01*
X115851671Y-63468786D01*
X115872934Y-63480151D01*
X115896009Y-63487151D01*
X115920000Y-63489514D01*
X115943992Y-63487151D01*
X115967066Y-63480151D01*
X115988330Y-63468786D01*
X116006967Y-63453490D01*
X116020193Y-63437374D01*
X116022065Y-63436670D01*
X116023611Y-63437939D01*
X116023587Y-63439408D01*
X115990344Y-63519664D01*
X115973172Y-63605993D01*
X115973172Y-63694007D01*
X115990344Y-63780336D01*
X116023587Y-63860592D01*
X116023326Y-63862575D01*
X116021478Y-63863340D01*
X116020193Y-63862626D01*
X116006966Y-63846509D01*
X115988329Y-63831214D01*
X115967066Y-63819849D01*
X115943991Y-63812849D01*
X115920000Y-63810486D01*
X115896008Y-63812849D01*
X115872934Y-63819849D01*
X115851670Y-63831214D01*
X115833033Y-63846510D01*
X115819807Y-63862626D01*
X115817935Y-63863330D01*
X115816389Y-63862061D01*
X115816413Y-63860592D01*
X115849656Y-63780336D01*
X115866828Y-63694007D01*
X115866828Y-63605993D01*
X115849656Y-63519664D01*
X115816413Y-63439408D01*
X115816674Y-63437425D01*
X115818522Y-63436660D01*
X115819807Y-63437374D01*
G37*
G36*
X114819807Y-63437374D02*
G01*
X114833034Y-63453491D01*
X114851671Y-63468786D01*
X114872934Y-63480151D01*
X114896009Y-63487151D01*
X114920000Y-63489514D01*
X114943992Y-63487151D01*
X114967066Y-63480151D01*
X114988330Y-63468786D01*
X115006967Y-63453490D01*
X115020193Y-63437374D01*
X115022065Y-63436670D01*
X115023611Y-63437939D01*
X115023587Y-63439408D01*
X114990344Y-63519664D01*
X114973172Y-63605993D01*
X114973172Y-63694007D01*
X114990344Y-63780336D01*
X115023587Y-63860592D01*
X115023326Y-63862575D01*
X115021478Y-63863340D01*
X115020193Y-63862626D01*
X115006966Y-63846509D01*
X114988329Y-63831214D01*
X114967066Y-63819849D01*
X114943991Y-63812849D01*
X114920000Y-63810486D01*
X114896008Y-63812849D01*
X114872934Y-63819849D01*
X114851670Y-63831214D01*
X114833033Y-63846510D01*
X114819807Y-63862626D01*
X114817935Y-63863330D01*
X114816389Y-63862061D01*
X114816413Y-63860592D01*
X114849656Y-63780336D01*
X114866828Y-63694007D01*
X114866828Y-63605993D01*
X114849656Y-63519664D01*
X114816413Y-63439408D01*
X114816674Y-63437425D01*
X114818522Y-63436660D01*
X114819807Y-63437374D01*
G37*
G36*
X113819807Y-63437374D02*
G01*
X113833034Y-63453491D01*
X113851671Y-63468786D01*
X113872934Y-63480151D01*
X113896009Y-63487151D01*
X113920000Y-63489514D01*
X113943992Y-63487151D01*
X113967066Y-63480151D01*
X113988330Y-63468786D01*
X114006967Y-63453490D01*
X114020193Y-63437374D01*
X114022065Y-63436670D01*
X114023611Y-63437939D01*
X114023587Y-63439408D01*
X113990344Y-63519664D01*
X113973172Y-63605993D01*
X113973172Y-63694007D01*
X113990344Y-63780336D01*
X114023587Y-63860592D01*
X114023326Y-63862575D01*
X114021478Y-63863340D01*
X114020193Y-63862626D01*
X114006966Y-63846509D01*
X113988329Y-63831214D01*
X113967066Y-63819849D01*
X113943991Y-63812849D01*
X113920000Y-63810486D01*
X113896008Y-63812849D01*
X113872934Y-63819849D01*
X113851670Y-63831214D01*
X113833033Y-63846510D01*
X113819807Y-63862626D01*
X113817935Y-63863330D01*
X113816389Y-63862061D01*
X113816413Y-63860592D01*
X113849656Y-63780336D01*
X113866828Y-63694007D01*
X113866828Y-63605993D01*
X113849656Y-63519664D01*
X113816413Y-63439408D01*
X113816674Y-63437425D01*
X113818522Y-63436660D01*
X113819807Y-63437374D01*
G37*
G36*
X116819807Y-63437374D02*
G01*
X116833034Y-63453491D01*
X116851671Y-63468786D01*
X116872934Y-63480151D01*
X116896009Y-63487151D01*
X116920000Y-63489514D01*
X116943992Y-63487151D01*
X116967066Y-63480151D01*
X116988330Y-63468786D01*
X117006967Y-63453490D01*
X117020193Y-63437374D01*
X117022065Y-63436670D01*
X117023611Y-63437939D01*
X117023587Y-63439408D01*
X116990344Y-63519664D01*
X116973172Y-63605993D01*
X116973172Y-63694007D01*
X116990344Y-63780336D01*
X117023587Y-63860592D01*
X117023326Y-63862575D01*
X117021478Y-63863340D01*
X117020193Y-63862626D01*
X117006966Y-63846509D01*
X116988329Y-63831214D01*
X116967066Y-63819849D01*
X116943991Y-63812849D01*
X116920000Y-63810486D01*
X116896008Y-63812849D01*
X116872934Y-63819849D01*
X116851670Y-63831214D01*
X116833033Y-63846510D01*
X116819807Y-63862626D01*
X116817935Y-63863330D01*
X116816389Y-63862061D01*
X116816413Y-63860592D01*
X116849656Y-63780336D01*
X116866828Y-63694007D01*
X116866828Y-63605993D01*
X116849656Y-63519664D01*
X116816413Y-63439408D01*
X116816674Y-63437425D01*
X116818522Y-63436660D01*
X116819807Y-63437374D01*
G37*
G36*
X152452166Y-54648874D02*
G01*
X152453001Y-54650500D01*
X152453001Y-54706862D01*
X152452991Y-54707058D01*
X152445904Y-54779019D01*
X152445828Y-54779404D01*
X152426629Y-54842692D01*
X152426479Y-54843054D01*
X152395297Y-54901392D01*
X152395079Y-54901718D01*
X152353122Y-54952844D01*
X152352845Y-54953121D01*
X152301719Y-54995078D01*
X152301393Y-54995296D01*
X152243055Y-55026478D01*
X152242693Y-55026628D01*
X152179405Y-55045827D01*
X152179020Y-55045903D01*
X152107059Y-55052990D01*
X152106863Y-55053000D01*
X152050501Y-55053000D01*
X152048769Y-55052000D01*
X152048769Y-55050000D01*
X152050305Y-55049010D01*
X152128240Y-55041335D01*
X152202997Y-55018657D01*
X152271891Y-54981833D01*
X152332276Y-54932275D01*
X152381834Y-54871890D01*
X152418658Y-54802996D01*
X152441336Y-54728239D01*
X152449011Y-54650304D01*
X152450176Y-54648678D01*
X152452166Y-54648874D01*
G37*
G36*
X152107059Y-53447010D02*
G01*
X152179020Y-53454097D01*
X152179405Y-53454173D01*
X152242693Y-53473372D01*
X152243055Y-53473522D01*
X152301393Y-53504704D01*
X152301719Y-53504922D01*
X152352845Y-53546879D01*
X152353122Y-53547156D01*
X152395079Y-53598282D01*
X152395297Y-53598608D01*
X152426479Y-53656946D01*
X152426629Y-53657308D01*
X152445828Y-53720596D01*
X152445904Y-53720981D01*
X152452991Y-53792942D01*
X152453001Y-53793138D01*
X152453001Y-53849500D01*
X152452001Y-53851232D01*
X152450001Y-53851232D01*
X152449011Y-53849696D01*
X152441336Y-53771761D01*
X152418658Y-53697004D01*
X152381834Y-53628110D01*
X152332276Y-53567725D01*
X152271891Y-53518167D01*
X152202997Y-53481343D01*
X152128240Y-53458665D01*
X152050305Y-53450990D01*
X152048679Y-53449825D01*
X152048875Y-53447835D01*
X152050501Y-53447000D01*
X152106863Y-53447000D01*
X152107059Y-53447010D01*
G37*
G36*
X152452166Y-51648874D02*
G01*
X152453001Y-51650500D01*
X152453001Y-51706862D01*
X152452991Y-51707058D01*
X152445904Y-51779019D01*
X152445828Y-51779404D01*
X152426629Y-51842692D01*
X152426479Y-51843054D01*
X152395297Y-51901392D01*
X152395079Y-51901718D01*
X152353122Y-51952844D01*
X152352845Y-51953121D01*
X152301719Y-51995078D01*
X152301393Y-51995296D01*
X152243055Y-52026478D01*
X152242693Y-52026628D01*
X152179405Y-52045827D01*
X152179020Y-52045903D01*
X152107059Y-52052990D01*
X152106863Y-52053000D01*
X150476094Y-52053000D01*
X150452009Y-52055372D01*
X150428934Y-52062372D01*
X150407670Y-52073737D01*
X150389033Y-52089032D01*
X150373738Y-52107669D01*
X150362373Y-52128933D01*
X150355373Y-52152008D01*
X150352991Y-52176195D01*
X150351826Y-52177821D01*
X150349836Y-52177625D01*
X150349001Y-52175999D01*
X150349001Y-52051000D01*
X150350001Y-52049268D01*
X150351001Y-52049000D01*
X152050407Y-52049000D01*
X152128240Y-52041335D01*
X152202997Y-52018657D01*
X152271891Y-51981833D01*
X152332276Y-51932275D01*
X152381834Y-51871890D01*
X152418658Y-51802996D01*
X152441336Y-51728239D01*
X152449011Y-51650304D01*
X152450176Y-51648678D01*
X152452166Y-51648874D01*
G37*
G36*
X152107059Y-50447010D02*
G01*
X152179020Y-50454097D01*
X152179405Y-50454173D01*
X152242693Y-50473372D01*
X152243055Y-50473522D01*
X152301393Y-50504704D01*
X152301719Y-50504922D01*
X152352845Y-50546879D01*
X152353122Y-50547156D01*
X152395079Y-50598282D01*
X152395297Y-50598608D01*
X152426479Y-50656946D01*
X152426629Y-50657308D01*
X152445828Y-50720596D01*
X152445904Y-50720981D01*
X152452991Y-50792942D01*
X152453001Y-50793138D01*
X152453001Y-50849500D01*
X152452001Y-50851232D01*
X152450001Y-50851232D01*
X152449011Y-50849696D01*
X152441336Y-50771761D01*
X152418658Y-50697004D01*
X152381834Y-50628110D01*
X152332276Y-50567725D01*
X152271891Y-50518167D01*
X152202997Y-50481343D01*
X152128240Y-50458665D01*
X152050305Y-50450990D01*
X152048679Y-50449825D01*
X152048875Y-50447835D01*
X152050501Y-50447000D01*
X152106863Y-50447000D01*
X152107059Y-50447010D01*
G37*
G36*
X152452166Y-46648874D02*
G01*
X152453001Y-46650500D01*
X152453001Y-46706862D01*
X152452991Y-46707058D01*
X152445904Y-46779019D01*
X152445828Y-46779404D01*
X152426629Y-46842692D01*
X152426479Y-46843054D01*
X152395297Y-46901392D01*
X152395079Y-46901718D01*
X152353122Y-46952844D01*
X152352845Y-46953121D01*
X152301719Y-46995078D01*
X152301393Y-46995296D01*
X152243055Y-47026478D01*
X152242693Y-47026628D01*
X152179405Y-47045827D01*
X152179020Y-47045903D01*
X152107059Y-47052990D01*
X152106863Y-47053000D01*
X152050501Y-47053000D01*
X152048769Y-47052000D01*
X152048769Y-47050000D01*
X152050305Y-47049010D01*
X152128240Y-47041335D01*
X152202997Y-47018657D01*
X152271891Y-46981833D01*
X152332276Y-46932275D01*
X152381834Y-46871890D01*
X152418658Y-46802996D01*
X152441336Y-46728239D01*
X152449011Y-46650304D01*
X152450176Y-46648678D01*
X152452166Y-46648874D01*
G37*
G36*
X152107059Y-45447010D02*
G01*
X152179020Y-45454097D01*
X152179405Y-45454173D01*
X152242693Y-45473372D01*
X152243055Y-45473522D01*
X152301393Y-45504704D01*
X152301719Y-45504922D01*
X152352845Y-45546879D01*
X152353122Y-45547156D01*
X152395079Y-45598282D01*
X152395297Y-45598608D01*
X152426479Y-45656946D01*
X152426629Y-45657308D01*
X152445828Y-45720596D01*
X152445904Y-45720981D01*
X152452991Y-45792942D01*
X152453001Y-45793138D01*
X152453001Y-45849500D01*
X152452001Y-45851232D01*
X152450001Y-45851232D01*
X152449011Y-45849696D01*
X152441336Y-45771761D01*
X152418658Y-45697004D01*
X152381834Y-45628110D01*
X152332276Y-45567725D01*
X152271891Y-45518167D01*
X152202997Y-45481343D01*
X152128240Y-45458665D01*
X152050305Y-45450990D01*
X152048679Y-45449825D01*
X152048875Y-45447835D01*
X152050501Y-45447000D01*
X152106863Y-45447000D01*
X152107059Y-45447010D01*
G37*
G36*
X152452166Y-43648874D02*
G01*
X152453001Y-43650500D01*
X152453001Y-43706862D01*
X152452991Y-43707058D01*
X152445904Y-43779019D01*
X152445828Y-43779404D01*
X152426629Y-43842692D01*
X152426479Y-43843054D01*
X152395297Y-43901392D01*
X152395079Y-43901718D01*
X152353122Y-43952844D01*
X152352845Y-43953121D01*
X152301719Y-43995078D01*
X152301393Y-43995296D01*
X152243055Y-44026478D01*
X152242693Y-44026628D01*
X152179405Y-44045827D01*
X152179020Y-44045903D01*
X152107059Y-44052990D01*
X152106863Y-44053000D01*
X150476094Y-44053000D01*
X150452009Y-44055372D01*
X150428934Y-44062372D01*
X150407670Y-44073737D01*
X150389033Y-44089032D01*
X150373738Y-44107669D01*
X150362373Y-44128933D01*
X150355373Y-44152008D01*
X150352991Y-44176195D01*
X150351826Y-44177821D01*
X150349836Y-44177625D01*
X150349001Y-44175999D01*
X150349001Y-44051000D01*
X150350001Y-44049268D01*
X150351001Y-44049000D01*
X152050407Y-44049000D01*
X152128240Y-44041335D01*
X152202997Y-44018657D01*
X152271891Y-43981833D01*
X152332276Y-43932275D01*
X152381834Y-43871890D01*
X152418658Y-43802996D01*
X152441336Y-43728239D01*
X152449011Y-43650304D01*
X152450176Y-43648678D01*
X152452166Y-43648874D01*
G37*
G36*
X152107059Y-42447010D02*
G01*
X152179020Y-42454097D01*
X152179405Y-42454173D01*
X152242693Y-42473372D01*
X152243055Y-42473522D01*
X152301393Y-42504704D01*
X152301719Y-42504922D01*
X152352845Y-42546879D01*
X152353122Y-42547156D01*
X152395079Y-42598282D01*
X152395297Y-42598608D01*
X152426479Y-42656946D01*
X152426629Y-42657308D01*
X152445828Y-42720596D01*
X152445904Y-42720981D01*
X152452991Y-42792942D01*
X152453001Y-42793138D01*
X152453001Y-42849500D01*
X152452001Y-42851232D01*
X152450001Y-42851232D01*
X152449011Y-42849696D01*
X152441336Y-42771761D01*
X152418658Y-42697004D01*
X152381834Y-42628110D01*
X152332276Y-42567725D01*
X152271891Y-42518167D01*
X152202997Y-42481343D01*
X152128240Y-42458665D01*
X152050305Y-42450990D01*
X152048679Y-42449825D01*
X152048875Y-42447835D01*
X152050501Y-42447000D01*
X152106863Y-42447000D01*
X152107059Y-42447010D01*
G37*
M02*
